/* XPM */
static char *cda4f44e0e824585a191b83d782ff058[] = {
/* columns rows colors chars-per-pixel */
"129 129 32 1 ",
"  c black",
". c #040404",
"X c #0C0C08",
"o c #18140C",
"O c #100C10",
"+ c #181818",
"@ c #202010",
"# c #282818",
"$ c #30301C",
"% c #242020",
"& c #2C282C",
"* c #383434",
"= c #403430",
"- c #403C3C",
"; c #444028",
": c #4C4038",
"> c #4C4848",
", c #544440",
"< c #5C4C44",
"1 c #585050",
"2 c #6C5C50",
"3 c #60585C",
"4 c #786458",
"5 c #6C6064",
"6 c #746C70",
"7 c #806C60",
"8 c #807478",
"9 c #947C70",
"0 c #887C80",
"q c #94888C",
"w c #988C90",
"e c #A09498",
/* pixels */
"4ooXXXXXXo@oo@o@@o@@$@......................................................................................@$@@@@@o@oo@oXXXXXXoo",
" &%     O&&**-     +%&*->     %%&&&*>     +%&&*->     +%&&&*-5      +%%&&**>     +%&&**>     %&&&**1     +%&&*1     +&&*-1     %&",
".&%     O&&&*>     +%&**>     +%&&**>     +%&*-->     +%%&&*-3      %%%&&*->     +%&&**>     %&&&**1     +%&**1.    +&&*--     %&",
".&&    ++&&&*-     %%&&*-     +%&&**>     +%&*-->     +%%&&-*>      +%%&&*--     +&&&**3     %%&&*->     +%&-&-.    O&&->*%   +&&",
" &&+ .O++%&&&*     +%&--1     +%&&*-*     +%&**>1     +%%&*-*1      ++%&&*--.    +&&**&5     &%&&&*>     +%&*&-     +&&**&++++%&&",
" &&&&&&%++++%&     +%&*&1     %%&&-*-     +%&**->     +%%&*&->      +%%&&**>     +&&-&*3     %&&&%->     +%&&&*    O%%++++%&&&&&&",
" &&&&&&&&&&%++++  O%&&*-1     +%&&-*-     +%&*-->     +%&&&&-1      +%%&&&--     +&&-**1     %%&&&*-     %%&&&&%   +++%%&&&&&&&&&",
" &&&&&&&&&&&&&&&++O+%&&-*     +%&&*--     +%&*---     +%&&&*->      +%&&&&--     +&&-*-1     %&&&&**O    %&&%+++++%&&&&&&&&&&&&&&",
" &&&&&&&&&&&&&&&&&&&++++&     %%&&&**     +%&*--*     +%%&&---      +%%%&&--     +&&**->     %%&&&**%.  ++++++%&&&&&&&&&&&&*->>-*",
" &&*->>-*&&&&&&&&&&&&&&&+++++%%%&&&&*     +%&**--     ++%&&*--      O%%&&*>-     +&&**->     &%&&&&%%++++%%&&&&&&&&&&&&&*->>-*&&&",
" **-&&&*->>-*&&&&&&&&&&&&&&&&++++%%&&     +%&*&&-     +%%&&*--      %%%&&&*-     +%&*&1*O    &&%%++++%%&&&&&&&&&&&&&*->>-*&&&&***",
" &&&&+%&&&&*->>-*&&&&&&&&&&&&&&%%+++++   O+%&&&&*     +%%&&*--      +%%&&&&*     +%&*&*&%+  O++++%%&&&&&&&&&&&&&*->>-*&&&&%++&&&&",
" &&&&%+&&&-*&&&*->>-*&&&&&&&&&&&&&&%%++++++%%&&&*     +%&&&**-      %%%&&&&*     %%&&&&%++++&&&&&&&&&&&&&&&&*->>-*&&&&--&&%+%&&%&",
" ++O+%+&&&*-&*-#&&&*->>-*&&&&&&&&&&&&&&&%++O++%&&     +%&&&&>-      +%&&&&*&     %%%++++%&&&&&&&&&&&&&&&*->>-*&&&&--1&**&&%++++++",
"     O+&&&&>&**&&O+&&&&&*->>-*&&&&&&&&&&&&&&%%++++   O+%%&&&-1      +%&&&&&%O   +O++%%&&&&&&&&&&&&&&*->>-*&&&&->>+**>&-&&&%+.    ",
"       %&&&>&*-**O%&*>-1-&&&*->>-*&&&&&&&&&&&&&&%%++++++%&&&*-      +%%%%%%+++++%%&&&&&&&&&&&&&*->>-*&&&&51->-*1-+**-&>&&&+.     ",
".      +&&&-*&-**+&*-1->->1-1&&&*->>-*&&&&&&&&&&&&&&%%++++%%&*      %+%++++%%&&&&&&&&&&&&&&*->>-*&&&&&3>*51*3;*>-+--&&>&&&O      ",
".      +&&&*-&&*&O+%&&&&&*=**&%*&&&&*->>-*&&&&&&&&&&&&&&%%++++O    ++++%%&&&&&&&&&&&&&&*->>-*&&&&OO&+%**&**&-&%&&O&&&*-&&%+      ",
"  ..  %+&&&&>&-**O%&&-***-3--*&--O&*&&&&*->>-*&&&&&&&&&&&&&&&%+++++%%&&&&&&&&&&&&&&*->>-*&&&&&*&>+%*%&--*>>*1;*-*O**&-*&&%++...  ",
" 11--*&+%&&&>&>-*+&-***-*-1-1-*1>+******1&&&&*->>-*&&&&&&&&&&&&&&&&&&&&&&&&&&&*->>-*&&&&&%>-&***1%%-&*>1-51*1--1-+**&>&&&%+%&>>11",
" **&&&&++&&&-*&**+&--**-*15-3-*1;O**-***3-*5-1&&&*->>-*&&&&&&&&&&&&&&&&&&&*->>-*&&&&%-****>&&**&3&+-&**1-33-31>>-+-&*>&&&%+&*****",
" &*-*&&%+&&&*-&**+*-***1-13*1-*>-O**&-&*>&*>-12-*+&&&*->>-*&&&&&&&&&&&*->>-*&&&&*+--%>-***1*%&-*>++-**-1->3-5>*1-+*&--&&&+%&&&&*&",
" &&&&&&&+&&&&>&-*+&***-1->3&3-*1>+**%-&&-*-3->--*+&***&&&*->>-*&&&*->>-*&&&&1-%-&O--%-&*-*>-%&-*-++-**->*11-5>*-*+*&>*&&%+%&&&&&&",
" %%%%%%&+%&&&>&-*+&****1>>3--*&33+--%>&*>&-5>>***+****--*-&&&&*->>-*&&&&--,*3*%-*O****&**&>-&*-*-+%-&*->*>1-1-***+-&>&&&%+%&&&&&%",
" +++++%%+%&&&-***+&*-**>>1q1&&%11O*>&1&**&-3-*=-*+--*****-&&*%&&&&&&3--3-->*5-%-*%-**-&&*&>-&*1*1+&-**--*33-1-->>+-*-&&&+++++%+++",
"        ++&&&*-&*+&--**1;3w1**%1>O*-&-&&-&*1-*--&O--*****-***%&&&O+11-->-->*5>%-*+***-&&*%*#&*>&>+&1-&-**11->-*>>+&-*&&&++       ",
"         +&&&&>&*+%--**113e1&*%13+1-%-&&-&->-->**O******--&**%-*&O+->*-1-1<*1;%-*+-**-***%&&&*-*1@&>-&>-*>>*-**--+&>&&&&+        ",
"         +%&&&>&*+&**-*>>1q1-*%11O>-%>&*-&>5-11-*+*****---&**%-**O+11&-1**3&1-%-*%>-**&**%-*&&1-1%&-*%1>-31*-**1-+&>&&&&+        ",
"        .+%&&&-&*+&****-->6>>>*33+>-%-&**%*7>><-*+--**&---&-*&-&*+%>-*15*&1-1-%-&+>**-&**%-***>-3&&-*&->->-*1-->*+*-&&&%+        ",
"       O%%+&&&**&+&**-*1>36>1>&31O--%>&&*%*5>-3-*+>-*****1&**&-**+%-*&-5**5*--%>&O-&&-&-*&-&**-*1%&1-*->*-**1-*-*&-*&&&%+%O.     ",
".11>>>-**%+&&&&-&+*---*>-36-*&%31+>;%-&&*%-1**1-*+--*****1&&*%--*++-*&-3**3--*%-&O*&%>&**&-***1-3&&>-&->*-*&3;*>*&>&&&&++&-->>131",
"O**-*-***&+%&&&>&+&>>****50;*&%>1+>-%-&&*%****>-*+*******>*-*****++>1*-1&-1--*%-&O&&&1&&*%--**1-5&%>-&->*1>*>-->*&>&&&&+%&**-****",
" ***&%&&&&+%&&&>&+&->**-*>6>-*%>1+>;&-&&-&&**->**+--**--->***&-**++33*-5$-5-1-%-&+%&*>*-******>-5%%-**->*>>*-**>*&-&&&%+&&&&*****",
" &&&&&&&&&%+&&&-*&+&*&%&&&>%&o+>-O*&+&+%&+%&+%&%%O&&%%&&*&++%%*&%OO**%&-o%-%*&+%+O+%%*&&&+%&%%*+*O+%%%**&*#%&&%&&**&&&%+&&&&*&**&",
" &&&&&&&&&%+&&&*-&+&*&&>*-3#*&%>1+1>%*%&*%&-&**&&O**&&&--*%%&&-*&O%>-**>**=*3-%&%+&%%&%%&&>*&&>*>++-*&--*>-***&-&-&&&&+%&&&&&&&&&",
" &&%%&%&%%&+&&&&>&+&***-*18;-&%>3%3>&>&&*%*>*1-**O*1-**->>&&*&-**+&13--5-->*5>%>&%&*%&%&&&>-**-*>++-**->*>>*-**-&>&&&&+%%%%%%%&&&",
" %%%&%%%%&&+&&&&>&&*-**-*19>1&%>1+3>%*&&*%***-***O*>-*&**1&&*%-**+%11*-1->2-1-*-&O&&%-&&*&-***-*-+%-&*--*--*-*-*&>&&&&++%%%&%++%%",
"           O&&&&-*&****-*>5>>*%>1+>-%&%&*%&**1-**O&>*-&&*>&&**1-*+%33--1*-5*-&%*&O*&%>&&*%-***1*1+&-**->*1>*-**&*-&&&%O          ",
".           +&&&*-&****-*1813-%33+>-%-&**%*--1-**O*-*-**->&&**1-*++31&-5-1<**&%*%O*&&>&&**1-**>&>+&1-&->*>-*-*-&-*&&&%.          ",
"O           +&&&&>&***&-*>5-5>*11+--%-&**%**-1-**O->*-&***&&*&--*++31*-2->3&*&%&%O&&&-&&**1-**-*1@&>-&>1-****&-&>&&&&+           ",
"           ++&&&&>&&**&>->1*>-&>>+**%-&**%*->5--*+***-&***%&**-**++>1--5->5*>&%&%O&%&*&&*&--**1-1%&-*%13--*&-&-&>&&&&+O          ",
"          O%+%&&&-*&**&---1&--&11O**%>*-*%*-15-1-+*-**%**-&&*&>-*++>1-*>-12**&%*%O&%%&%&**-***>-3&&-*&-1--**>-&*-&&&&+&+         ",
" >>35311>>*&%+&&&*-&***-*>3-3-%>-O--%-*-*%&->3->-+*>*-&&***-**1-&O+*>*-3->1**%&*%O&*%-&&*&>-**-*1%&1-*->*1-&**&-*&&&%+&->->>>-->>",
" ***&**---1*&+&&&&>&***-*36-31&-*O>-%-&**%-->1*-*+--**&&***-*&1-%+%*>&-5>->*-&%-&O&&%*&&*%--**1-3&&>-&->>>-*-*&>&&&&%+&*-*----***",
" ****&****&&&+%&&&>&***>-59>3-*-*O1;%-&&*%*-->*-*+*-**%-**->*&3;%+%**&-3--,**%%*&O&*%-&&*%-***1-5&%>-&->>>****&>&&&&%%&**********",
" &&&*---****&+%&&&-&1-*1-15*3-*1>+--%-&-*%&*--&-*+*--*%-***1>*>-%+%&-&*1-11*-&%&%O&**1&&*%-&**>-5%%-**-1>>***&&-&&&&+%********&&&",
".&&&&&&&&&&&&%+&&&**&-*1-13&1-*>>O**%-&**%*-11&-*+****%****>>&-*%+%&-&->->>&*%%&*+&&*-&&*%-&&*1*1%&***11>>***&**&&&&+%&&&&&&&&*&&",
"O%%&&&&&&&%%%%+&&&&-&-*>-15-3-*1;O**%*&>**1*-5--*+*>**%*1**1;%-&%+%*-&>5-11**%%&*+&%&1&&*%*&%%1-1%%-**>>11-**&-&&&&&+%%&&&&&%&&&%",
" +++++++++++%%O%&&&>&**-*>1-1-*11+**%&%1-*>&*3-**O*>**&-1-*11*-*%+%**%*7>12*&%%&&O&%&1&%*%-*%%-->+%-&*1->>-**&>&&&&%+++%+++%+%+++",
"              +%&&&>&&%&&&-&*&%**O%%+%+&&%&%&*&%%O&*&&%&*&%**+%%+OO%&%&*&*:@&%O%+O++%*++%%*+%O&&&OO&+%-&*&&%%&>&&&&++            ",
"               +&&&-*&&**><*>*&-*O&*%*%*-*&&-3-&&O*-*-*&-&&-*%*&+O+&>&*>&*1&-*%-&+&%&3&&&%&&&%*&*++-&&-*3>*&&*-&&&&+             ",
"               +&&&*-&&-*>3>1-*1>+**%*&->*-*12-**O*-->&*--*1>*-*&O+&>&-5-1<*1;%-&O&%&5*&&%*&****1+%-&&-*>>*-&-*&&&%+             ",
"               +&&&&>&*1-1>*1>*>-O**%&%--***>1*-*+*>->**--*>-&-&%O+&1*-2->3-1-%-&+&%&1-**&1>*-**1%%-&*>*->**&>&&&&%+             ",
"    .         O+%&&&>&*>-3-*1-&**O&-&&%->***->*-*+->*-&&-****%*&%O+&3-*5->5*1;&-&+&**3-***1>***&3&+-&**->1-*&>&&&&+%O            ",
"+>>-->-----**&%+%&&&-*&-*>-*>&&-*O&-&&*---**-,-1-+>>**%&1-*-*%*&%O+&>&*>-12*1-%>#+&*&>-***>-**-*>++-**--*1-&*-&&&&+%&*----->1331>",
"%*---*--->*&&*&%+&&&*-&-*1-*-#%-*O--%-*-****11>1-+>>&***>-->*%>&%O+&-*-3->1*31&-&+%%&>-*-*-***-51+--**-*-1-&-*&&&&+%&**&*****--**",
"O*****&&&*&&&&&%+&&&&>&-*3-*1&%>-O&-**&->***>>->-+--&&&%-**1-&*&%O+*>&-5>->*5>&>&%&&*>****->**-33+11*--*->*&>&&&&%+%&&%&&&&&&&&&*",
">&&&&&&&&&&&&&&%+%&&&>&-*2-*-&%**+&-**%->***11--*+****%%-**-***%&O+**&-3--,*5>%*&+&&*3-**&11**-13%3>&**-->*&>&&&&%+%&&&&&&&&&&&&&",
">&&&&&&&%&&&&&&%+%&&&-*&*5-*-*%**+*>&*%>>>-*12--*+*****%-**-*&-&%+%%**-1*-1*1-%&%+&**>****1-**-11+3>****--&*-&&&&+++%%%&&&&&&&&&&",
"-%%%%%%&%%%%%&&%%+&&&*-&&>-&-&&-*+&-&-&1>->*>3--*+**&*&%-**-***%%O+%-*-5$-5-1-%-&+%**-&&**1-***11+>-*&*&-*&-*&&&&++%%%%%&%%%%%&%%",
"&%%%+%%%%%%%%%%%++&&&&>&%3-*-&&-*+*>&**1-->*13*-*+*&&*%&-**-**-&%O+&-*-3&-3->-%-&O%&&*&&*&--**&31+1;*-*&>-&>&&&&%+O++%%%%%%+++++%",
"&+%++++++O%+%+++%+%&&&>&%3>&*%%-*O&-&&*>>->*31*1-+-*%&****&-*&*%%O%&-*-1&*1--*%-&O*&&*%&**-***%>1+>-*-*%1>&>&&&&%+OOOOOOOOOO+++++",
"&                +%&&&-*&1-*-&%>-O&***&>>*-*1-*>-+--%&&***&>-*-*&+&%>*-5**5*-*%>&O*&&-&&*&>-**%>1+1;*-*&-&*-&&&&+O   ..          ",
"&                 +&&&*-&1-*-&%--O&-**&11**&3-&-*O**&*%&**&--&-*&+&%-*15**3-1-%-&+>&%*&&*%--***51+>-*1-*-&-*&&&&+                ",
"-                 +&&&&>&>-&*&%-*O*>**&1>&*%>-&-*O**&*%&***-*&-*&+&*-*>3*&1*1-%-&%>-&-&&*%-****33+11*>-&-&>&&&&&+                ",
"-                 +&&&&>&-&%%++&&O%&&%%*&++O&&%&+O*&+%++&&%&&%&&+O%%&&&-&&=%*#+&&+&&%*+%%+&+%%%*-O-*+&&+&&>&&&&&+                ",
".                 +&&&&-&2-&&%&-*O%&&&%>*&&%1*&*%O$*%&%&**&-*&-*%+&%-*--*--&3*%**O**&-%&&%*%&&%->+1-&**&-&-*&&&&+O               ",
"+                O+&&&**&5>**%&1-+****%--**&2-**%O&-**%*1-*1-*-**+&%1--1-->*5>%-*%-**1&&*%*&%%%>1+>-****1&*-&&&&++O              ",
"+53>1>1>------1-*+%&&&-&&>***&*1-+****%>-&*&5-***O&-**&-1-*1-****+%%---5>-,*5*%-*+**-1&%*%-*%%%33+>-&-**>>&>&&&&%+&**->>>->>>1>35",
".--**-------*>-*&+&&&&>&***--**>-+&****>&&**>-**&O&->-**>-*>-**&*+o&-*-2*-1*1-%-&O**-1&&**1*&%%11+--*-&*1>&>&&&&&+&******--*->---",
" **--&&*-****&&&%+&&&&>&****>**-*+*-***1*%&*3-**%O&-->**-**-***%&++%-*-3$-5-1-%-*O---5*&*&***%%->+**&-&&3>&-&&&&&+%&&************",
"+&&&**&&&&&&&&&&%+&&&*-&&-&->&*-*+&>--*>-%&&3>*>*O*-->&*-**-*****+%&-&>5*-3->&%**+--15*&&%*&**%11O**%>&&>>&**&&&&+%&&&&***&&&&**&",
" &&&&&&&&&&&&&&&+%&&&-***-**>**-*+&--*&>-&*%1-*>-+->->**-**-*&-*&+&*-*>1&*1--*&**+---3-**&1>*-&>-O--*-&&->*&-&&&&%+%&&&&&&&&&&&&&",
" &%%%%&&%%%%&&%%+%&&&>&**-**-&&-*+&-**&>-&**1-***O&>*-&&-*&-**-**+&*1*-1&*5*-&%**+1-*3-***1>**&-*+>-&-&*>1-&>&&&&%+%%%%&&&&&&&&&&",
" %%%%%%%%+%%%%%++&&&&>&-*****%&1-+&-**%*#&*&>-*-&O&-**%&1-*1-&*&&O&*1-*>&*3-1&%**+--*1-***>-**%-*+1;%-&**1-&>&&&&&++%%%%%%%%%%%%%",
" ++++++++++++++++&&&*-&-***&***>-+&***%&&&**3-*-*O&-&***>-*>-*-&&O&*-**-*-1*-&%&&O***>-*-*-***%>>+--%-**-1-&-*&&&&+++++++++++++++",
"              O+%&&&-*--*--&&&%-*+&&*-&-&%&&**&**+--&&&%-*&-*****+**--***>5*>&%&%O***>****->**%->+**%-**->***-&&&&+++            ",
"               +%&&&>&**&>-**%%&*+%*&&&&>**%%*%&*O>-**%%-*&-***&*+&&->*-*12**&%*%O&**3-**&11**&>;+**&-&*->**&>&&&&++             ",
"               +&&&&>&**&--***%**O+*&&*%--*%&-***O*-***%-*&-***%&+&*--***>1**%&*%O*-*1-**&1>>-*11+**&-&**-**&>&&&&%+             ",
"               +&&&*-&&*&>-&*&%**O+-&&*%-**%&-***O--&*&%-*%-***&*+&*->***->*-&%-&O*>*-*--*1>->*>>+**%-***1-&&-*&&&%+             ",
"              +%&&&-**--*>&&*%&-*+%1&&*%-&*%&-***O-&&*%&-**-***&-+&&---**-,**%%*&O&**-****1-->&--+****&&*>-***-&&&&++            ",
" >>>1>>-*--**&+%&&&>&&&*&*&+%%%&&O+&+%%+&+%+O&&%%O&&+%%%&+%&++%+%O%%&&&%%**&%+O%+O+%%&&%%%*&&&%*&O%&%%++%&&%%&>&&&&+%&&*--->---->",
" --->-----&&&&+&&&&>&*--*-*%&%&**O%>&&&%&%%&%&%*-+**%&%&&%&&%%&%*+&%*-*&&--&&%+&%O%&&-&&&%*&&&%>*O**%*%&*-*&&&>&&&&%+&--***----*-",
" *--**---*&&&%+&&&&-&&->&>-&*%&**O%1&%*%-*%%%&%**+--&*%&*%&*%&*%-+&&->***11**%%&%O&&&*-*&%*&&*%--+&***%&->*&-&-&&&&%+&&*****&****",
" &*********&&+%&&&***&**&>-&*%&**O%1&&**1*&&%*&&*O--&*%&*******%-+&&>>>-*12*&%%&%O&&&****%-&&*%-*+**&*%&*****&**&&&&+%&&&&&&&&&&&",
" &&&&&&&&&&&%+%&&&-&*%&*%*#&*%&-*O&3*&*&*****-&&*O&#&*%&-*&-***%-+*&1>->*>3*-&&*%O*&%*-***1&&*%-&O->>-***>-&**&-&&&&++%&&&%%%&&&&",
".%%%%%%%%%%%%O&&&&>&-&&-&&&&*%&**O&5*&&%*&*&*-***O&&&*%&-**-****-+&&1-->*13-*&%*%O*&%*-*&*-&&*%-&O*-*****>-*>-&>&&&&%++%%%%%%%%%%",
"O+++++++++++++&&&&>&*&&*&-*&&%&-*O&1-**&1>*%&*&**O**&&%&*&&*&**&-+&%>>->*31-**%&%O&&&--*%&1&&*%*&O&****&*-*&-*&>&&&&%++++++++++++",
"           O++&&&*-&*%**%-***%&-*O&3-***1>*%&-&**O****%&-&&-&&*%*+&%>>*-*1-*-&&*%O&%&--*%&1&%*%-*O&*--*-*****&&-*&&&&++          ",
"            +%&&&-***%**%-&****-*+%>-***>-*%&-&-*O*&************-+&&11**&3-*-***%O&%&-**%&1&&**1*O&*--***-**-*-*-&&&&+           ",
"            +&&&&>&&*%&*%-***&*-&O%>-*-*-**%&1&**O****&**&**&***-+&&1>&*%>-**&***O&*%&-*%&3*&*&**O**-*&-*1>*-**&>&&&&+           ",
"            +&&&&>&&*%&*%--**%*1*O&>****->*%&1&&*O--**%***-******+&*1-&&%>---&-*3+%*%%**%&5*&&%*&O&*1-*-*>-*-*-&>&&&&&.          ",
"           ++&&&*-&-*%-*%****%-1-O&3-**&11*%&>*-*O&***%--*--***&*+&&1-**%3-**&*-5+&*%%-*%&1-**&1>+&*>-*-*->*-**&-*&&&&+.         ",
" >>>*---**&+%&&&-*+-*%-*%-***%*>-O&>****1-***>***O****%**&**&**%&+&%--**&2-**%&*;+&*%%-***3-***1>+&&-*&**1>*-**-*-&&&&+%*11>->11>",
".***-**-*&&+%&&&>&+-*&-*%>-**%&>&O&-&&**1-**&*&%*O--**%&*****-***+&%>-&*&5-***-**O&*%%-**&>-***>-+*&**&**1;*-**-&>&&&&+%&**-*-***",
"O&***--*&&%+&&&&>&%-***&%--******O%*&&*&--*&&*%&&O--**********&*&%&*>&&**>-**&*-*O**%&-&%&>-*-*-*+&&-*&-*>-*-**-&>&&&&%+&&&&&***&",
" &&&&&&&&&%+&&&*-&&-**-&%-******-O%*%&**-****-&&*O******-**-**-**%&*1*%&*3-**%***%**%&1*&*>****->+&*-*%**1>*-*->&-*&&&%+&&&&&&&&&",
" &&&&&&&&&+%&&&-*OO&&+%%O&&%%+%%&O+&++%+&&%+%*+%%O%&%%+%&%&&%%&&+O%&*&+%+-*%*%&%%O%%+%*&+%-&%%+**O%&&&%&&*&%-#&&&*-&&&&+&&&%&&&&&",
" %%%%%%%%%+%&&&>&O+-*%&%+-*&&%*->O+&%&&%**&&&***&O-*&&%**&**&&-*%%&&-*%&%>*&-*&*-+%&%%-*&&-&&&&>-O&*&&&-*-*&>*&-&&>&&&&+%&&&%%%%%",
" %+++%++%%+&&&&>&++--&&*&1-**&*13+%-&&*%-**&*&>-*+>-**&**&**&&>>*%&&>-&**1-***&*1+**%&>&**-&&**1-+&**3--*-**1---*&>&&&&+++++%%++%",
"         %+&&&*-&++-**-*&--**%&>>+&1&&*%-&*-**1-*O*-**%&*&**&&>>&+&%*#&*&>-*-&&&*+&*%&**&&*&&*&--+**-5-->3>*>-*1-&-*&&&%O        ",
"         +&&&&-**+%-***&&-***%&*>+&-&&*%-&&-*&1-*O****%&*&&*&&1;%+&%&&&**3-*-****+**%&*-&&*%&**-*+&**;-1->>*-**>-+*-&&&&+        ",
".        +&&&&>&*+&>-**&&>-**%-51+&1&&*%*&%-*&3-*O--**%--*--**11*+&%-*&&*7>**&***+**%&&-&&-&&*&>-+&&**&>-1>*-**--+&>&&&&+        ",
"O        +&&&&>&*+&1-*-&%--***-->+*1&%*%-*%>>*>**O*-***->*->**>>&O&%-***&5>--&-*3@**%&-1&%*&&*%--+&*-**>-33-1-->>+&>&&&&+        ",
"         +&&&&-&*+&1-*-&%-****-*-+*1&&**1*&>>&-**O*****->*->**--&O&&-&***>***&*-5%*&%%>3-&-&&*%-*+&&**&-*13-1-*-*+&-&&&&+        ",
" >>-111*&+&&&**-*+&>-**%%-&***-*1+*5*&*&***1;%-**O*&***->&->&*&&&&&&-********%&*;o-*%&>>-*1&&*%-&O&*-****11-3-***+-**&&&%%*->--->",
" -**-&--+&&&&-&**+&-*--&&-&&*&**>+-5*&&%*&*11*-**O*&&*&**&&&&&*->>-*&&&&******-**+--%&*>**-&&*%-&O&*--*-*>1-5>*>-+*&-&&&&+&-*-*--",
" **&-**&+&&&&>&**+&-***&&*&%%%&*1+*3-**&1>*>>&-**O&&%%&&&&*->>-*&&*->>-*&&&&*&*-*+--%&31**1&&*%*&O&****-*13-51->-+-&>&&&&+&&&&&**",
" &&&&&&&+&&&&>&-*+&-***&&-*%%%&*3%&3-***1>*--&-&*O&&&*->>-*&&&&&&&&&&&*->>-*&&&&>+*&%&->*-1&%*%-*O&-*-->*53-1--1-+*&>&&&&+%&&&&&&",
".%%%%%&%+&&&*-&-*+%-***%&>*&%%&*>+&1-***>-*1>*&&&*->>-*&&&&&&&&&&&&&&&&&&&*->>-*&&&&%&*-*-1&&**1*O&*--*1-31*3;*>-+*&-*&&&%+&&&&%%",
" ++%++%+&&&&-*--*+&1-**%&-**%%**-+&>-*-*-&&&&*->>-*&&&&&&&&&&&&&&&&&&&&&&&&&&&*->>-*&&&&&-5*&*&**O&*--*>>>1-1-*-*+--*-&&&%O%+++++",
"      OO&&&&>&-**+&>-**%&-&**%*->+&>*&&&*->>-*&&&&&&&&&&&&&&&&&&&&&&&&&&&&&&&&&&&&&*->>-*&&&&&%*&O&****>-31-3;*-*+>-&>&&&&O+     ",
"+      +&&&&>&>-*+%-***+%-&&&%&**&&&*->>-*&&&&&&&&&&&&&&&&&&&%++++++%%&&&&&&&&&&&&&&&&&*->>-*&&&&+&*--*5>51*1-*1-+--&>&&&&O      ",
"%      +&&&*-&&&%O+&&%%OO&%%%&&&*->>-*&&&&&&&&&&&&&&&&&&%%+++++O   O++++%%&&&&&&&&&&&&&&&&&*->>-*&&&&*&-&>-&*&&*&O%&&-*&&&+      ",
"+     +&&&&-*%**&O+**%&*%&&&*->>-*&&&&&&&&&&&&&&&&%%++++++%%&&O     OO+++++++%%&&&&&&&&&&&&&&&&&*->>-*&&&1>*>*->>+**>*-&&&%+     ",
"      +&&&&>&%-&*+%-&&&&*->>-*&&&&&&&&&&&&&&&&%%++++++++%%&&**      O+%+%%%%%++++%&&&&&&&&&&&&&&&&&&*->>-*&&&&->>%>>>&>&&&&+     ",
"-->-*&+&&&&>&%-&&&&*->>-*&&&&&&&&&&&&&&&&&%%++++%+   ++%%&&&**      O+%%&&&&O   +++++%%%&&&&&&&&&&&&&&&&*->>-*&&&&-->&>&&&&+&->>-",
" ***&%+&&&*-&&&*->>-*&&&&&&&&&&&&&&&&&&++++++%&&&     +%%&&**-     .O%%%&&**     +%%%%+++++%%&&&&&&&&&&&&&&*->>-*&&&&&-*&&&+&*-**",
" *&&&+%&&&&*->>-*&&&&&&&&&&&&&&&&%%+++.  +++%&&-&     +%%&&**>     .O%%%&%*-     +%&*&&&&O .O+++%%&&&&&&&&&&&&&*->>-*-&&&&&+%&***",
" &&&&&&*->>-*&&&&&&&&&&&&&&&&%+++++%%.    +%&&*-*     +%&&***>      O%%&&&&-     %&&***-+    +%%++++%%&&&&&&&&&&&&&&*->>-*&&&&&&&",
" &&*->>-*&&&&&&&&&&&&&&&%++++O+%&&&&*     +%&&**-     +%&&***>      O%&&&&*-     +&&**->     %%&&&%+++++++%%&&&&&&&&&&&*->>-*&&&&",
".&&&&&&&&&&&&&&&&&&%%+++%     +&&&&*1     +%&&**-     +%&&**--      O%%&&&*-     +&&***-     %%&&&&&%   +++++%%%%&&&&&&&&&&*->>-*",
" &&&&&&&&&&&&&&%+OOO+%&&*     +&&&&*1     +%%&**-     +%&&&*->      O%%&&&*-     +&&**->     %%&&&*-O    +%%%++++O+%%%%%%%%&&&&&&",
" &&&&&&&&&%+++++  +%&&&--     +&%&&->     +%%&*->     +%&&&**>      O+%&&&*>     %&&**->     &%&&&*-.    +&&&&%+  .++++%&&%%%&&&&",
"+&&&&&%++++%&&     +&&&*>     %%&&&*-     +%%&&--     +%&&&*->      ++%&&&*1     +%&**->     %%&**->     +&&&*&.   .+%+++++%%%%&&",
"%&&%..+%%&&&*-     +&&&--     %%&&*->     +%&&*--     +%&&&*>1      ++%&&&-3     %&&**--     +%&&**>     %&&&*>.    +&&*&&%+++&%&",
"+&&    +%&&*->     +&&&*-     +%&&**1     +%&&*--     +%&&**->      ++&&&&-3     +&*&**-     +&&***1     +&&&*>.    +&&**-*   +&&",
" &%     +&&**>     +%&*--     +%&&**1     +%&&**-     +%&&**-3      ++%&&&*1     +&&&**>     %&&***3     +&&**1     +%&**1.    %&",
"-&%     O&&**-     +%&*->     %%&&&*>     +%&&*->     +%&&&*-5      +%%&&**>     +%&&**>     %&&&**1     +%&&*1     +&&*-1     %&"
};
