/* XPM */
static char *_42eaeb55a494d5fb2d7e869eb5e2ff5[] = {
/* columns rows colors chars-per-pixel */
"129 129 62 1 ",
"  c black",
". c #040404",
"X c #080804",
"o c #0C0C08",
"O c #100C08",
"+ c #100C10",
"@ c #141010",
"# c #1C1414",
"$ c #181818",
"% c #201C18",
"& c #28201C",
"* c #242020",
"= c #2C282C",
"- c #302420",
"; c #342C28",
": c #3C302C",
"> c #383434",
", c #541004",
"< c #601404",
"1 c #701808",
"2 c #403430",
"3 c #483C34",
"4 c #403C3C",
"5 c #4C4038",
"6 c #4C4848",
"7 c #544440",
"8 c #5C4C44",
"9 c #585050",
"0 c #64544C",
"q c #6C5C50",
"w c #60585C",
"e c #786458",
"r c #6C6064",
"t c #746C70",
"y c #801C08",
"u c #8C200C",
"i c #9C240C",
"p c #AC280C",
"a c #B82C10",
"s c #C83010",
"d c #905C3C",
"f c #A06C48",
"g c #806C60",
"h c #8C7468",
"j c #807478",
"k c #947C70",
"l c #9C8478",
"z c #A88C7C",
"x c #887C80",
"c c #94888C",
"v c #988C90",
"b c #AC9484",
"n c #B49C8C",
"m c #A09498",
"M c #A89CA0",
"N c #ACA4A8",
"B c #B0ACAC",
"V c #B8B0B4",
"C c #C0A494",
"Z c #C0B8B8",
"A c #C8BCC0",
"S c #CCC4C8",
/* pixels */
">5593223325:2222:22:::2:2:;:;;;;2327322;323355558987985:2;::;;;:#5593223325:2222:22:::2:2:;:;;;;2327322;323355558987985:2;::;;;:#",
"29ttxjxjclxwwqrcrkxZNbbbllckxkckkmmmmmmNNNNNBVVVnNbbbbNNNNZNNBNNbbblccccckccccccccckkkkxxccccccccvvmmvccccccxxmwegkwrww*errrrrwwq",
"*7674444>>>q0qelrjcVrrrhggxgggghrrrggrggrrrrrggghgggggggrgrgrrrrrrrrrrwrrqtgtrtrrrrteeqeqggegrrrrrrrrrrrgrrrrxNwerleqqq*46666699t",
"%>4>=*=*%=%gwwebgjcB9rr9qtwq0qeeeqeqeeeerrrrrreegtqetrteqrtewrjmmmNmmjr9qqrttterrrrrtgeegerrcgrrrcrrtrrrtqrrrjcwrrNewwg%4>444479t",
"%>6>*===o*$gqqgkwjcBwrt9tegeqqeegeeqgerrerrrrrrqtqqrqrqertrgwtmcmvcccmr6ertrreettrrrrtqtrterggerrrgrrtrgre9txjcrrrkrrrr$=o===*29t",
"*>6>==*=%=.kqqqcqtxMwjtttttttrtttttrrtttttttjtjjjttjtjjjjjjt9tcmvmcxccr>rtrttttjjjjtttjjtjjtjjjtttjjjjjjxjxjcwrwrqctqrc.=%=*==>9r",
"%>5>====*o=%$$$$$$qw=txvmMMmvMMMMMMMVMMMMMMmmMmnMnnNNNNNNNNNrtmvvxmcmcr6jjcvvvvvmccmmmmmmmmccvmmmvvvvvvvvvmmm9%q$=$$=$$+o*====>9r",
"%>2>*=*=$o%%$$$$$$r=*tjxxjjjjjxxjxxxjxxjjjxxxxxxxxxxccxxxxxx9tvvxmxmcxrwxkjjjxjjxhxkkjjjhjjhxjjxhjjjxjjxhjjkj==r$$=$=$$+o$=*=*>8r",
"%>4>====++*%$$$$$*k$>eqqrrrrggrqqqqqegweggqtttqrqtegrrggqqqt6tcxcxxcxcr6rgrrrrqrrrrrrrqrrrerrttrrrrrrtrerrrrr>$m*==$=$$+$+====>7r",
"%>62=*=**r*%$$$$$=g$=rrqgttrtegteggqgqtgqrrtrrrrrtrqqgqerqer4rxjxcxjccr6eqqgrwetttrtrrrrqtrrrrrrttrrrrtttrtrr=$r=$=$=$$+>=%=%=29r",
"%>42=%*=w7$$$$$$$$q$*qtrrrrrtrewwqqqeqww0qreqerrqtrqwwqqweqe6rjjcxjjxcr4rtrrtertrtrtrttrteqrtrrrrtrtreqrrrrtr*$q$$$==$$+=6=*%=>7r",
"*>22*==*664%+>9tvt94rterrtrrqteeetqrqeqeeqwreretwrqeweeqweee66xxcxjxcc6>errweqerrrrrtrtrrwqrrrrrrrrrtregerertr49tvt9>+$+>9=***>6r",
"%>>>===%66=*+>jrNx94rrttqwqeeqettwtqrrqwqwwreqrrtqweqwqrwqeq9>64646466>6rrqreqqteetrtrtrtttwerrrrrtrrtrtggqqrr49xNrj>+*=684===>7r",
"%>>>===%6w>$.>xtSj94errrqtqtwtqeqqwqttwqqewwrtrtqqqqrqtrrrrtw6*=*==*=*4wrtrqeeweqqrttrttrtrwqgtrrrrtrrrrrgrrrr49jStx>.$>906===27r",
"*>>>>>==6w=$.4vtVx94ggettrrteqtqqrrrqqtwweeqwereqwqrtrrrrtreeew6444669rrrttrqwtqettrtttrtttrwetrrrrrqttrtrqerg49xVtv4.$=r86=>>>7r",
"*>>>>>=*9w>*.4xtNx94ggtgwretqetqrrerhtttggjttttttjjjttjttjjttttttttttttttjttttjjttjttjjjtthetrerrqeqqrrrreqeqg49xNtx4.*>r96=>>>7r",
"%>===>>=6q=$.>ttmx94qqqtqeeqwqrqrqhcclcclccccmcclcccccccccccccxxccxcxxxxxccxcxcxxccxxcxcxcxxjjhqrqrqwqeeqteeeq49xmtt>.$=tw6>>==4r",
"%>>>==>=6w>*.>jrMxr4gegewretrqrrrxVvvvvmvmvvnvMmMMMMMMMmmllvxcxcxccxccxvccxcccxccxxxxxccxvvmvmNxrrrqrterweeqwr4rxMrj>.*>rw6>==>7r",
"*>>==>>=9w>*.>trBxw4eewgqretrrqtgm9++++$+++$rwr++++++++$$rwr++++++++$$$rwr++++++++++rwr+++++++>vjtqrrterqgrqwe4wxBrt>.*>tw6>>==7r",
"*>>>*===9w=$.>rtAcw4trqrtrttrrtrbc=$+$++$+#$wwt$+++++$$$*wwt$+++++$$$+$wwt$+++++$++$wwt$+++++$+9vttrrttrtrreeq4wcAtr>.$=rw6==*>7r",
"*>>*=>==9w=*+=wrZcr4trtrtrttrtelm=$$+$$+$++$wrx$#++++$$$=wr6$#++++++$$$wrx$#++++++$*wrx$#+++++$$jxetrttrtrtrrq4rcZrw=+*=rw6=>=*7r",
"*==>>>>=9w>$.=9wBjr4rqrtrrqtertb9$$$$$$$$$#$rtr*+++++++*&r9r*+++++++$*$rtr*+++++++$-rtr*++++++$$>cjretqrrtrrtr4rjBw9=.$>tw6>>>>4r",
"*=*===>=9w=*.=6wMxr4rttrrqeteqbx=$*$*=>>==*$rrw*$$*=**=**rrw*$$*=**==*$rrw*$$*=**==-rrw*$$*=*=*$*9cgeteqrrtrtw4rxMw6=.*=rr6>===4r",
"*===>>>=9q=$+=6rMxw4tqrrttrrwhm=*=$*=>3>>>=*www*$;=4644*&rww*$;=6446>=$www*$;=6446=-www*$;=64>=$$*xmwrrttrqqwq4wxMr6=+$>rr6>>2=4r",
"*===>>>=6w**+*6rmxw>trertrregC0****>666>23==wwr*$=>w00w*=wwr*$=>w00w4>*wwr*$=>w00w==wwr*$=>w004*$$>mxerrtrqtrt>wjmt6*+*=rr6>>>=4r",
"*====>>=9w==**4wxt9>rtrrrqqwbg**=*>56w9466>=wrw**=49qrq==rrw**=>9qrq64*wrw**=>9qrq>=wrw**=>9qrq>*$$wMtqqrrrrq949txr6**==rr6>>==4r",
"*=*=>>>=0w**=jxxxxBj9wqerwqkb4*=*=46w974674>wrr**349rqw>>rwr**349rqw64=wrr**349rqw2=wrr**349rqw6=*$$xxqwre9qe9jBxxxxj=**rr6>>>=4r",
"%===>>>=8w**=errtjBj6wqwrrqMw==*=46999963764trt==76wrww4>trt==76wrww96=trt==76wrww64trt==76wrww94=**6vjrrwwqq6jBjtrre=**wr6>>>=4r",
"%=*==>2=6w=*=qqwejMj6qqweebx==*=469ww9rw9w64rtr=>469rwe>>rtr=>469rwe96>rtr=>469rwe92rtr=>469rwe664=*>9mtrwwrr6jMjewqq=**wr6>>==4r",
"%====>>=9w$*=rrrjxmj6qwqtxm4===>69wwweqwrw66rtr=>699erw6>rtr=>669erw99>rtr=>669erw94rtr=>669erww96>==>tvtrqwe6jmxjrrr=*$9r6>>==49",
"*=====2*6w=**rwerjvj6qqwqNw===4699wrwewwrr96ttr>>36qwww6>ttr>>36qwww994ttr>>36qwww96ttr>>36qwwww9964==>mjrwqr6jvjrewr***9r62===49",
"*==*=>==6w*=*9wwqrmj6qeqbj====64wqwrqeqwww96ttj>7699rrq96ttt>7669rrqw94ttj>7669rrqw9ttj>7669rrqwqw46=>=6mtqee6jmrqww9***9t6=2=*49",
"*=======6w=**r9wrtcj9qelx9>>>459wetqrrqwrww9rtj7379wrwrw6rjt7376wrwrww6rtj7376wrwrw9rtj7376wrwrtew954==>xjeer9jctrw9r**=9t6====49",
"*=>===>*6q=*=rr9wwvj9qrxt=>>>66wqtwttrtwrr99rtt6769wrrrw9jtt6766wrrrrw6rtt6766wrrrwwrtt6766wrrrwrqw66>=>wjrre9jvww9rr=**9t6>===49",
"**>*===*8w>=*++$$+*j6qqtl====5qqetqwqtq0rww9rrt77wwwewwwwtrt77wwwewwrr6rrt77wwwewwwwrrt77wwwewwqreqw6=*=rteqg6j=*>****==wj6===*49",
"**>>===*8w==+*$$$**=9qwrxw5245qqqteqqqqwrww9trt7w799qrrwwtrt7w799qrrrw9trt7w799qrrwwtrt7w799qrrerqqw6==>jgrwq9>=*>*=$***wj6===249",
"**>*>==*8w>>=>>=25w66qeejx5544qtq0eerrrwrrrwrrt99999eerwwrrt99999eerrw9rrt99999eerrwrrt99999eere0qrw4==0jqeer66w52=*$=*=wt6==2*46",
"**>====*7wwqwwrqqqrrqqq0rx5>45qeqwwrqrrqwrwwrrr97w09rerrqrrr97w09rerrqwrrr97w09rerrrrrr97w09rerwwqeq4=>rtq0qtrwqqqrrrrtwtj6====46",
"***==>$=8wwqqtqwqerqreqeexr555weqwqewwqwrrrwrrr90w7wrqqwwrrr90w7wrqqrrwrrr90w7wrqqrrrrr90w7wrqqqwqew>=6jreeqrrtreqrqtrtrtj6=2==46",
"**==*=>=6qeeeqqwqqqqeee0etx55=5eq0wqqqqqrqrwrrrw099wwqqrwrrrw099wwqqrqqrrrw099wwqqqwrrrw099wwqqw0qe9>=rjqe0etgrrqqwqrrrrgj6>=*=46",
"**%==*>=6wqqqeqwqqwqqqqeqqxw55wqwq0w0qeqqqwrwwwq00wqew0qrwwwq00wqew0qrwwwwq00wqew0wrwwwq00wqew00qwq6=5jtqqeqqwrqwqwqeqqqtj6>*==>6",
"%*====2*6qqeqtqwqwqqwqqqqqtx55wqqeqeewqqqrwwwwwwwq9rqqqwwwwwwwq9rqqqwqrwwwwwq9rqqqwwwwwwwq9rqqqreqq6=6jqqqqqqrtqwtwqqqeqrj62===46",
"%**==>>=6w55xjtjttjjjjjxmrqx955wqeq0weewwwrww0ww99qwqqqrww0ww99qwqqqrqqw0ww99qwqqqqww0ww99qwqqqweqw4=rtqrmxjjjjjttjtjx59rx6>>==46",
"**=*==>*9q5*6cjxjjxxcxcNjwejj>5eqewqqeqewqw0rwwqr00wrqqw0rwwqr00wrqqwrwrwwqr00wrqqwqrwwqr00wrqqreqw5>jrewjNcxcxxjjxjc6*5rx6>==*46",
"**====>=9q5*49NxccxcxvNjtwqex9>qeqeerwreqqwwqrrw00qqrqqwqqrrw00qqrqqqqrqrrw00qqrqqqrqrrw00qqrqqeeew>6jeqwtjNvxcxccxN94*4wx6=*==46",
"%*=*====6w5*44jBVZBNNNxjjwwqjt5weqqeqqtqqqqqqeeq6qqeeweqrrqqw9eerreerwwqqwqqeeewteqqqwqqqwtrqqeqqe95rtqwwjjxNNNBZVBj44*>wx6**=*46",
"%**====*802*466rtttrtmttjwqqrx6599g6erqtweewweewwtrxxxjxjxjjjjxxjjjjjjjtttjjtjjjtwwweewweewtqre6g96>jqqqwjttmtrtttr664*29x6$$==46",
"%*==*==#7w>*446trrrtrmtjt9eqqxr=rw99ww9999w9ww996wjMMmmmmmMmmmmmmMmmMMMmmmMMNZNmMx699ww9w9999ww99ww9jqqe9tjtmrtrrrt644*>wx6==*=46",
"%*%$====8w=*45=5=2>22r5tjwqqqtxwxwrttjjtrtjtjjtr9=jjtttrtttrtttrrttttrrrtjtttjjjjv9rtjjtjtrtjjttrw4rtqqqwjt5r22>2=5=54*=wx6===*>6",
"**=*===*6wo*9=idpuyupfuwx9eeqexr=tmmvxcvvmMvMvvxw>trr622222222222222222222222229jxwxvvMvMmvvcxvmmt9jeqee9xwufpuyupdi=9*o9x6===*46",
"%*=====*5w%*9=udpuyupfiwc6qwqqrx=rre9ewqrwwrw9094=qqw2uuipppappiiiiuuuuuuuippp2wjj4909wrwwrqwe9errrkqqwq6cwifpuyupdu=9*%9x6====46",
"%*==*>=*48$*9>=622==4r4ct9eeeqqx9teqerrq0twrwq694=qwq2pppiiuuyyyyy11<<<,,<<1us2qjj496qwrwt0qrreqetrgqeee9tc4r4==226=>9*$wj6=2*=;6",
"%*>===>*46%$469jttjjcVxrt6qeqeqqt4****$$***$$$*$$>qeh22222222222222222222222222hjj$$*$$$***$$****4wqeqeq6trxVcjjttj964$%9t6>===76",
"**=*=*>*49%*644rwrw9rvtrr6wqqeq0q75>>>4>>4>=>=>==>qtccccxxcccccccxxxxjjjtxccccxttj==>=>=>4>>4>>>570qeqqw6rwtvr9wrwr446*%6j6=$=*26",
"%*=====*>w*$494rrwt9rjrrr6re0w0600q636998006w63>*>4qwqqwqqqrrrqreqwqwqqeeqqeqrett6*>36w600899636q060w0ew696rjr9twrr494$*6t6===$;6",
"+*=*====>w**449rrwwrwjwrr4rwq0w4qq067qq9weewqr7>>4====$=================*$$%$**===>>7rqweew9qq760q4w0qww46rwjwrwwrr944**9j6===%26",
"***====*>8*$>4=$$$$$$$$4w4q0w00w0wq0q644w900weeq6666636366666644666666664>>>>4666660w9009wwwww9wwewwwew94w4$$$$$$$$=4>$*9t6****46",
"5%*=*==*>6$#=$$$$$$$$*$@o4qwwwwq000004ww4qwqweqq8q99w909w006672777887688275666666etwqgeqqweqqw9qwq4ew0004o@$*$$$$$$$$=#$9j6****46",
"%%*====*48;*=>>>>>==>==44>9wwtghegjgggjjjjjghjjghjjhjjjjhhhhgjeggjjjhgjjjhjjhjjtjjjjhhjgjjggjgjjjejjtww9>44==>==>>>>>=*;9t6====46",
"@*==*===49429552&--6992>6w9rmvvmmmmmmmvmmvmmmmvmmmcvclllllllkllllllllllllxxxxxjjxcvvvcccccccvccvvmmvvmtqw6>2464>-&2559249t6==*=49",
"X%====>=46735553--=4w9343w9mt2565655554555444646456555445>>>444444>>>4444444666444466646666555655565wxcww3439w94--3555379j5=***49",
"@*%*=***4wqrrrw963733wwq90xm4*=============**==*====**=======*$*$$***==============>2==4=2=2$=******$4zxw9w6q004=49wqrw9rj6=*=*>9",
"@*=%*==*4w5wqqrw47;w7wq9wtm9$$=====**=*=***=****====*=*****$$*$$$$$$*******==>==2=====>=====********$$8vrw90qww6>>wewq92tj6==*%49",
"@*%*===*4960wwqw6>>6t9w9wmt=$$*****=********$$o********$*$**$*$$$+++*******=*==*==========**********$$>kmw00ww66>6wqwq97tj6===*>9",
"@*=*==**4weww909w6w6r79wxm=$$$$==**$$*****$$*$*$$$****$*$**$$$$$*$$$$$$$****************************%$$wnxwqqw9664wq9w9qtx6===*49",
"@%=====*6wqqwww997wrwwwjm4=$$$$++++++++...++ +..++++.......+++++++++++.++++++..+++..+..+............+$$*wbgwwqq7w69wrww0tx6====4w",
"$*==*>==6wweqwq99ww99w6mr=$+$ 666446444446466466664666466644696996666969666466664644644>4>>44>>>4446 $$$2tb9www9w99qrqq9tx6=>**4r",
"X=>===>=6wwwqqw666q9wwjm=*$$ *4w9999ww99wwwwrrwrwrtrrrrrwrww99w99w9w999w9wwwww9wwww9w9966646444446w3=.$$$5bjqww6739wtq7wtx62===3r",
"$==*=*>*96q96rq999qwwtm4$$$ +>44xjtttjtjttjtjtjxjjjjttrtrrtttttjtjrrrwrtttttttrrrrrrtttrrw999996wj644$+$$$0Crwrww69qe09qrj62*=$4r",
"$*=====*9wqwt4rqw0qw0cr=$$+ =444wZmmvvNAMcmvmmvmmMMvvNcvvccccccccvvMMvmNAVMMMmmmNmmMmvvmvvcvvvmMVw444> +$$2lcw0009qww0wqgj4==$=;w",
"$==%==**9qw9q44qweqrxm=$$*.$>4>4jbjrrttrttrrrrtxrtrrrwww99w9rwrrjtjxxxjjcxjjrrrrttxjjjjjjjjjkjjxbt4>==$ $$$rMxwwrwrw9q90gj6===%4w",
"X=*====*9wwwwtr6qqwtm0$$$.$=4>4tCqqtrrtrrrrtrtrrxrrrrrrww66twwwhtrrtjjxxjrttttrrtttvjjxxjhxjhxjjvk4>4==$ $$*jmrwrrwrrwwwgj6====;r",
"X**=*==*9wew00tt0wrm0$$$+.=4449bx0g4oo+++++++++rjx++++++++++++++rwr++++++++++++++rrj+++++++..*jjjNw44>== +$$4xcw0wrqqw0qtj6$$*=4w",
"$***===*9wq660t00rxm=$$*.$>>45qnqqj=$o++$++$++$trt+$++$++$$+$++$wwt$+++++$$$$+$$+rvt+..++++++.6jjlb444>==+$$*6kjwrqqww9qtj6====49",
" ===*===trrrrrrrrcm6$$$.+>>45wMhwt>$$$$$$++++$$ttr+#$%#*$$+$$*$$wrx$#+++++$$++++$Mtr$.$+$++$+.*rjwMg44>>$=+$$=glxjxjjjjtgj7==*=;9",
"$*====2*wjxxccjccjw=$*+.=2242xmqtw-$$**$$$$*&$$rtx+$************rtr*++++++++++$$$trr+.+$++$$$++4tweMw44>=*$+$$46>>>=>>4>>r=*$=$;9",
"$=%*=*==35556466964*$%.$>>65rbhqr=$====***$$***txt$**;-=>2>>>2=-rrw*$$*=**=*=*=**jrr+$+*=*=*=$++wtqlv44>==*++$=>>===*****4*oo$o>9",
"$=====2542222=>*=$>*$o+=2949ccwr4$$*$=4545>-=-*ctr$*;=;465464422www*$;>6446646>=*tww$+$465652=$+$rrrMt4=>=*%+$$>$=**$$***=4*$$$49",
"$=====22=*=2==**%$=*oo*26>6gvr6e=$*>=6449w9::=*jwr*=>467www99w42wwr*$>6w00ww964=*rwr$$=9ww6w54=$*>rwjnw4===*$+$=$$****$=**>2==$49",
"$=%**22=%=%%o%o%%o*=o$>2666vxwe=$*>>54wt4r946==rrr=>446wrwwq0w44wrw**>9rqrq9rw6>=4ww*=*9wwrww64=**9twcv4>===*$+=$**$+$%%o%=>>*o>9",
"X==*%%%*o.$+++++oo$oo*>565hxrtw$==>46w9wjr963;=wrt=:446wwrqwww54wrr**4rrrq9tww6>6x9r*=>wwwqwqww4**=rrrbt>===**++  +++++$  o%%%*49",
"$=*$%%$%++ .++ .+.%.*24656btqr$*=>46999wwwr63:=trr=>436qrrrrrw55trt==7wrwwrrrw64=wjr==4rqqrwr996>**5tqjnw>>==***$+   +  ++%%%%o46",
"X=%%%$%%+..........*$=244lmwt6$=>469ww9qrww63>=rrt23>64qqrwrwq62rtr=>4wrrweerq94>trt>>69wwwwrw966>**9twcx6>>>**$         +%$$%%>6",
"$*==*w9rw99999w9996w2=55jmtrt*=>>69wwwwrqtr634>rtr24449wtwwrww65rtr=>6wwerwrww96=rrr>43wewrwwww996>*=rrtmt4>>4wwwww99999999r9*=46",
"#=====jrtrww99999wwrw254xxqr=*>4669wrwwwww9674>rtt464699rrwwrq95ttr>49rrwrwrer96>rww4469rrw9rrww9w6>=>tqjnw>4wrwrrrtrtrttttq$==46",
"#==*=*>ctjttrrwwwrrttjrmmtw6*=466wqwwwwwqw96864tjt446469rrwreww6ttj>46wwrrqwerw9>rww467wwrwt6rrwww96==9trxvwtttttttttttjjcr>*=%46",
"X======4Nccxxxjtjjjxcclnx9r*=>459w9rrqwwww9676>ttj46666wweewqww6rtj436wrrwrrwr094rww466wrtwrtrrwwwww6==wtrvxjjtjjjjxxxxjmt4====46",
"$*=*===>9NNmMMNNBMVMBMccr64*>469wwwwrwwwwq97994trt676766rerwtww6rtt479rwwrrteeq94rww6469wrtewqwwww9w94=4rrtmvvNBMMxxmvjmxw>===*66",
"X==**=*=6jtjjtjjjjjjjjjjt2*>46999wwrwrwrerw6996trt6996wwwqerrww6rrt69wwrewwrwrqw6rww699wwwwrwwwrwwwww96=9r6rw999qwrrwqw9j6=*=**49",
"$%*=====4rrqw999r66wwrq9w=>669999wwrwrq0qqw7099ttr9w969wrr9tqww9trt79wr9qrreerqw6www6w99wwwtwww0wwwrwwr97wr9w9wrrwwrwrrrt6>====46",
"$%===*=*4w59w99966666rqqw69999wwwwwwrqwwwrw0909trw909wwwr6jrqww9rrt69999eerrwqqq9wwr9w6wqwqrwwrrewwqqwww96rwwqwwwwrrrrw9t6==*==46",
"$*o*===*4w590496699999ww9999wwwww0wwwwqrwrq9w0wrwrwq9w9qqrwqwrw9rrr97w09rereqwrq9rwrw0wwrqewrwwwqrtqrq9w9w9rwqewwrrwwr99t4====*49",
"#%%*$*=*49ww966664099900099wwwwww>twwqwwwww99wqwqtw07w99eqqqrqqwrrr90w7wrqqrwwqqqqwrwq80wqqqwwqewrerwwwwww09wwww99www9www4==*=*>9",
"X%**=*=+689660665666666w0wwwww4w>64qwrrwrew99wwrqrqw6909eqrwqqwwrrrw099wwqqwrqqqqrgrqww0qqqqqwwqqereerrw9wwwwwwr4ww9w099w4====*46",
"#%$=%*=*69w99w6666666w9900wwwww66x9rwwwqwqwrw0wrrr0wwqwqqqw0wqwwwwwq00wqew00wrqrwrqr09wqqqqrqqqqeeewrrwrwwwww9wwr9w9w906r6===%*;6",
"$**====*69696xtrrrtrrt6960wwwwwwtwt9wqwwqewwqrrrrrwqw00qqrqqrwwwwwwwwq9rqqqqqrqrqrrrww0wrqqqqwwqweeqtwwrw9rxtrrrtrrt6qw6r4====$;9",
"$*==*=*=6w994jcjxxjxj9>6w0ww0www00qrqrq0rwwqwwwrqrwwwwqwqeqqrwwww0ww99qwqqqrqeqrqrrqqw00qw0qwqqqwqqr0wwwrwwjcjxxjxj9>r9wr6=*=**;w",
"$%=>=*==69w64rxttwrtt6>960wwwwwwwwrrwqwqwwwww0rrqrqq000qreeqrqqqrwwqr00wrqqqqqqqqrqqqw80qqqqqwqeqqqr0rwqrr9rxttwrtt6>twww4=====49",
"X*===$>*6w96>txtwwtjr4>9wrw99www0qqqrwwwrwqw0qqtrqqq00qrewqqrqqqqrrw00qqrqqqwrqqqrrqq0w9wwq0qqewqwqqwwwww90txtwwtjr4>r99r6=2***;w",
"$**====*6966>rcwwrtrr42699w9ww90wwwwrwewrqwwwqrtrqqww0q7werrwqqqqwtqq00qrwqwqqqqqqqqwwq0eqww0qrwwqrwqwwqqw9rcwwrtrr42959r4====$;w",
"X*=*$==*6856>txwrtrwe4296ww9wwww0r0wwwqrrww00wqrqqwwqwwwwqqqrrrwrrqw09wwrrwwqwqqqqqqwwqqwqqqqqqqwwwq0wqrtqrtxwrtrwe42r69w4=**$$4w",
"#*=**==*79w6>tcwqww9e42wwwwww9wwwrewwrwwwrwqqrq9wqrwwr6wwwqwrrerrrrrwqwwrwqqwrrqqwqwq0wwwqwwwqwqwwqqw00wtrwtcwqww9e42w6wt4===**49",
"%*=*=*=*764>>*****%%***99qw9rrwwq0wewwwrrwqwqw9wrtqqwwrqwrrerqqqqrrrwqrqwwwwqqrwrqqqwwrrwwwqqwwwwwwwqwrrwrr*****%%***496r4==*=*4w",
"%*===>==7w55>******%***6wwqwr9qrrwwqqrwwqqqqqq9rxjqqtrrqqwrqrqrqrqrqqqwqrwqrwqwqrqqqrrwrtrwqwwwwww00qw9terw******%***456t4==>==4w",
"X*%=*=>=66w9>**********999w9wrwwrewqqwwwrqqqqqtrwrttqqewqqeqrwwrwerr0wrrqrqwrqqqqrwqrerrwerrrwwwwq00wwqrtrw**********49wr4=>=*=4w",
"%**$==>=6w54>%+>9tvt94rrwrtwrrrwtqrreqrewwqwqqewrrqwqqrqqeqqrqqrrrwrqrrereqqrqqqerqq0wqrtrwrwrrwrw0wqqwwww9r49tvt9>+%445r4=2===4w",
"%*==*>>*69w9>*+>jrNx94wrrrr6tr9jrqereqqqqqqqqrrttrqwqqqqwqqqqrqqqwwqeqewrrqqqqqqqrqqqrwrrrwrerrww0000wqrrwww49xNrj>+*=6ww>===*=4w",
"X*====>=6www>$.>xtSj94wqrwwtqrtq9eqqqqqqwqqqqqqwqqweqqqqqqrqrqrqqeqrqrrwqqerrewrw09qqwwerwwrewwerqwwwwqerrrw49jStx>.$>69t>=====49",
"%*==*=>=6ww4>$.4vtVx9>qqrwtrrrwrweeqqwrrqwqqrqewrrrqqqqqqeeerwqqqeqqrrrwwqwwqwwqqeeqqw4jrrqerrrwrreeewqwww9q49xVtv4.$=69r4===*=3w",
"**===>>=6964%*.4xtNx9499wwwrwrrrtrrqrrtqerqqrqqqqqqeqeqqqqeqqerweqeqrwqw9wrrrwrwq0eqrrxrerwwwqtwrqeeerwweww949xNtx4.*>96w>==2==49",
"**===*2=6ww4>$.>ttmx9>wwwrtrtrrtrtrwrtrq9rqww0qrrqq0qeqwqerwqwqqqwqqwqww0wwwqw9r6qqwqqtqewwwwwwrrqrwwwrrwrrw49xmtt>.$=6wt4==*==4w",
"***=====796>**.>jrMxr4rwrrwtrwrrtwrqrww9jqrrwrqrqqrwqewwwqqqqqw0qqqqrwqq0ww9rw9qj6wqqwrqqqwqqewrerwrwrrrwwwr4rxMrj>.*>99t>=====4w",
"%*=*=*>=666==*.>trBxw>wrrrrrwrrrwwwrwwqtrwrwqrrwweqqqqqqwwwqqeqqwerqqrqwwwww9wqwqt9qqqqrqeerwqeqwttrqrrwttrw4wxBrt>.*>6wt4==*=*4w",
"%**===>=766>=$.>rtAcw>rwwrw9rwwrrwwwqeqqwqqw0wrrreqeqqqeqrqrqqqwwwqrrqrrqrwrqwreqqrqqqeeerrqqqwqqrww9ww9rrrr4wcAtr>.$=99r>=====4w",
"X*=%=*==6994**+=wrZcr4w9rw9rwrwrrrrq9qqwq0qqqqrwweqqrqwqwwqwqqqqqww9qewrrrrqw9rrwqeqqqwqqqer9qwqeqrwwrwwwrrw4rcZrw=+*=69r4====%2w",
"X*====>=696>=$.=9wBjr>r9qw9qrwqqqwqwwqq0wwwqqqrqqqrwerwwww9wwwwrrwwwrrrrwqrwwwqqqqqqrqqwrqwqqw9wqwqrrwrrwwrr4rjBw9=.$>99t4=====49",
"%*$==*>=496>=*.=6wMxr>wwwqw09qwqwwwwqwq00q0wqqqwweeqwttrrwrrwwww9qw9qwww9qwwrrqewqqqrrqqqqqwq9q9qrrrrwwwrrrw4rxMw6=.*=69r>==*==4w",
"X*==>>>=466>*$+=6rMxw>w66066q690w9qrqqwqqq0qqrrqqqqqqrwwwrwwq6rrrrwrrw69w90wwwwqqeeqewerq0qqwwwtqerrwttrwrrw4wxMr6=+$=46t4=====4w",
"**2>2>2=974>=*+*6tmxw>w9q06000www0wrw000060qqqerwereeqwtrww9>rNcxcxxxmr46wwqwwqqqqqqqwtqwqqq9qr9w9qrwrrrr99w>wxmt6*+**24w>=====7w",
"@=*=*2*+93>>* +$*=>46>=*5qw000w90wq0q0q00000wqwqqqrqqwqrrr99>6jrww999r4=49wwwrqwqwrqqerqqq0wqq9r9qqrrrrrw66=>64>=*$+ =>4r4==>==4r",
"*=====$2654>* +$*>=>w>==5w9q09qw6wqq60000w0qwqqweqqwqrrqq9w646xww999ww6=4wwrwr9wwww9rrwwwwqwrwr9ww9rrwwrr96=>w>=>*$+ =>4r42*===4r",
"@=**%=*>9r>>* +$*=>49>==6qwwqww60wq0wqqww0qwqqqqqqw9qqwwqw96>6cww99wwr4=499wwwr9wwwwwwrw9qwwwwr90wqwwrrrw94=>94>=*$+ *>6x42==%=4r",
"O=>===*=>x4>* +$*=>46>=$6trrttrrttggttttttttttrttttgtrgtttt946j9w99w9r4>9rttgrtgttttrttttttttttggttrrttrrt6=>64>=*$+ =>9x>=*===7r",
"%=>>*==*$>w>$ +$*==46>*9rjtjjtjjjejjjjxxjjxxjjxxxxxxjxjxxjjr>6t999999r46rtxxjxjxxxxxxjjxxjjxxjjjjejjjtjjtjr*>64==*$+ *4g6=*==*>7r",
"@=>>>>==$$=4>4xjttjjxvmtejcccxxxcxxcmcxxxccxcvvmBcmmxvvvvcxx66t9ww999r>wjcvvvvxmmcBmvvcxccxxxcmcxxcxxxcccjtmvxjjttjx4>9r=*==>>>7r",
"*=>>>>>==$$$$6trrwrjjxcw45564555555664664444444>>5644>>>>44>o6twww99wr>*=>>>>>4465>>44444446646655555546559cxjjrwrrt6$6*>==>>>>7r",
"@=>>>>>*=*$$$4rr9rtrtjc5+++++++++$++++$$+++$++ +.+++$. o+$+$$6jwww999w>$$$$$$+$$o$$$$$$$$$$$$$$$*$$$*$*$$*9cjtrtr9rr4+==*=*>>>>7r",
"*=2>>>2>>=>$*4trrrrjrxmw++%+$$+++++++$+++++++*+++$$$$$.o.$$o$=4>>>>44>=$$$$$$o$o$$o$$$$o$$$o$$o$+$$$*$%%**9mxrjrrrrt4=%2=>>>>>>7r",
"@*4444444>4>4@9w4646499>>>>>>>>>>>>4>>4>>>>>4>>>>4>>>>>>>>>>==@*$%o%@@>=>>>=>=>>==============>=>>>>>>>>>>>9946464w9@>>4>44444449"
};
