/* XPM */
static char *_69760bde7c74daed28db7967e26b308[] = {
/* columns rows colors chars-per-pixel */
"129 129 31 1 ",
"  c black",
". c #040404",
"X c #0C0C08",
"o c #100C08",
"O c #100C10",
"+ c #141010",
"@ c #181818",
"# c #201C18",
"$ c #242020",
"% c #2C282C",
"& c #302420",
"* c #342C28",
"= c #3C302C",
"- c #383434",
"; c #403430",
": c #483C34",
"> c #403C3C",
", c #4C4038",
"< c #4C4848",
"1 c #544440",
"2 c #5C4C44",
"3 c #64544C",
"4 c #6C5C50",
"5 c #60585C",
"6 c #786458",
"7 c #6C6064",
"8 c #746C70",
"9 c #806C60",
"0 c #8C7468",
"q c #807478",
"w c #947C70",
/* pixels */
"+#++++++oooo@@@@ooo+@++++++++++#++#+++++++#@o++#+++@#++#o#+#@##+#o##+#- %5q77-O.....OOOOOOO#############+++++X+oooXXXXoo+++++ooo+",
"&99909999999999999999999999999999999999999999999999966643332223333343,,,<<11,<<<<,<,<<1,<,<1<<<<<,<<<11,<<,,<<<<<<1<<,<1<111<=::=",
"*099999888886464699999999666666966669996666666333666666666666433344331,,<,1<1<<,<1<<<1<1,11<,<,1,<<1,1<1<<,<<1,<,<1,<1<<<11,<>::=",
"*09644355555333373444444433333335733444334437337337377337737321123443<<<<<,1<<,<<<<1<,11<<<,,<,,,,<1<,1<<,<<1<1,11<<<<<<<11<<,;:=",
"*09432211<<11111<12222222<<111111<2122222221111212122221221121,,14443<<1,,<<<1<<<<<<,<,<<<1<,,,,,,<,,<<<,,1<,11<<<,,<<<,<<<<<,;;=",
"-094211<<<<<<<<<1,,<<<<<<<<<,<<1<<<1,1<1<<,<1<,,,111,11<:<511,;;,3443,<11<1<,1<1<,<1,11<<1<<<,,,<,,1<1<,,,<,<,<<<1<,,,<1<1<<<<,,=",
">9942<1<<1<<<<<<<1<1<,<<<<,,,<,,,,<1<,1<<,<<<,1,11,1115,:<<11,;;14443<,11<,,,,,1<,,,1,,,<15<,1<,,<,<<<<,<<1,11<<1<<1<<<<<<,1<<,1=",
"-9941,1,<<<<,,<<1<<,<,<<<<,,,,,,,,<,,<<<,,,<<1,,11,11,1<:<<11,;;136431<,1<<1,,,,51<,,,,,<11<,,,,,,,<15<<,,,1,,,<15<<<1,<1<5<1<,1=",
"-9931,<<1<,,,,,1<1,<<<<<<<,,<,,,<,,1<1<,,,,,,<<,,<<,,1<,:<<11,;;134431<11<1,,,11<<1,,1<<<<1<,<<,,<<<1<<<<<,,,,,<11<1,1<51<<<1<,,=",
"-9931:1<<<,<<,,,,,,,<<<<<<,,,1<,,<,<<<<,<<,<,<,,1,,1<<<<><,11,;;,3443<11<<,<<<<<<<<,<,<1<<1<,<<<,11<,<1,,,,,111,1,,<,1,<<<1<<,;:=",
"=99411115<<,,,,,<1<,<<<<,<,<,,,,,,,<15<<,,,<,<,,,,,<<1,<:<<<1<;;,2443111<<,,<<,,1<<,<,,11,1<<<<<1,1,,<<,<,,,1,11,,<<,,,,<11<<,;;=",
"*094211111<<<<1<,1,1,<<<,,1,,<<,,<<<1<<<<<<<,,,,,,,1,1<<;<<<1,;;,2443<1<1<<,,<1<<,,,,<,<,1<1<<<<<1<1,<,<,,,,,11<<<<<,,,111<<>,;==",
"-06421<<<<<<<,,,1,,,<<<<,,,<,<<<,<11<<<<<<,<,,,,,,,1<,1<:<1<11;;,24421<11<<1,<<11,,,<,<<,,1,<11<<<1,11,,<,<<,1,1<1,<1,,<<<<<>,;;=",
"$063111<1<<<<,1,,1,<,<<<,,,1<<<<1<<<<1<<<<,,<,<,1,<,,<,<;11<1,;;,3443,11,<,,1<111,,,,,1<,<11<<<<1<1<<1<,<,<<11,11<,<1,11<1<<<,;;=",
"%0631111<1<<<,1,<,,<<<<<,<,<<<<<<,<<1<<<<<,,,,<,,,,1<1<<:1<<<,;;1363311,11<111,11<,<1,,,,,111,1,,<,1,<<1,,1<,1111<1<<5<<<1<<<,;==",
"&0631,<11,<<<,1,,<,<<<<<<<<<<11<<<1<11,<<<,,,,<<<<<<<,<:<<<<<,;;14432,<1<,<1,11,1,,<<,<,,,1,11,,<<,,,,<<<<,,,,<<<<<<<,<,<<<<<,;==",
"*06311<1<1<<<,1,1<<,,<<<<5<1<<1<<<1<1<1<<<,<,<,<,<1<,<<<:<,<<,;;134331<1,1<11,,1<1,<,<,,,,,11<<<<<,,,11<<<,<,<,<,<1<,<<<<<<<<,;==",
"*063111,1<1<<<<<<,,,<<111<<<<<<<<<,<,1<<<<<<<,<1,,,,,,<<><<<<,;;13433,1<<<1,,,<<1,11,,<,<<,1,1<1,<1,,<<<<<<<<,<1,,,,,,<<<<<<<,;==",
"-96311,<,1<<<<5<,,,,,<1<,<55<,,,,11<<,1<<<<5<,,,,,<<<,<<<<11,,;;134431,,,1<,,,<<1<<1<,<,<<11,11<,<1,11<<<<<5<,,,,,<<<,<<<<1<<,;==",
"*6631<<<<,<5<,<,<,<1<,<,<1<11,1,,,1<<<,<5<,<,<,<<1<<,<1<<1<<<,;;13433<<,<,<,,,,<1<<<<1,,1<,1111<1<<5<<<<5<,<,<,<<1<<,<1<<1<<<,;==",
"%6631,,,<11<,<<<,,<,,<,<,1<<1<,<,<<<,<11<,<<<<,1,,1,,,,1<1<<<,;;,3443,,,<11,<,<<,,<,,<,<,1<<1<,<,<<<,<11<,<<<<,1,,1,,,,1<1<<<,;==",
"*66311,<<<<<<<<<,<,1,,1,<1<<<<<,,1<,<<<<<<<<<,<,1,,<,<,<,,1,<,;;136431,,,<<,,<,,1<,1,,1,<1<<<<<,,1<,<<<<<<<<<,<,1,,<,<,<,,1,<,;;=",
"*6631<<<<5<,<,<<<<<<5<<1<1111,<1,,1<<<<1<11,1<<,<<<<<<<<<<1<<,;;134431<<<5<1<,,<<<<<5<<1<1111,<1,,1<<<<1<11,1<<,<<<<<<<<<<1<<,;==",
"%6631<<5<<<5,1,<1<11,1<,<11,11<<,<,<1<<1<<,1,<,<<<<<<<,,,,<<<,;;13443<<<,<<<<<11<<11,1<,<11,11<<,<,<1<<1<<,1,<,<<<<<<<,,,,<<<,;:=",
"&6631<<<<<<,,<<51<<,,1<,1<1,1,<<,<,,11,1<1111<<<<<<<<1<,1,1<<,;;13633<<<,<<,,,1<<<<,,1<,1<1,1,<<,<,,11,1<1111<<<<<<<<1<,1,1<<,;,=",
"-6631<<,555,<<<1,11,,,<<<<<11,,,,,<,<,1<111,1<<<<<,<<<<1,,1,<,;;134431<<,51<,1,<<11,,,<<<<<11,,,,,<,<,1<111,1<<<<<,<<<<<,,<<<,;:=",
"&6631<<<<,,,<<1<<<,,,,<<<,<111,,,<,<<,,1,1,1<1<<<<<<<<1<1,,,<<;;134431<<,<<1<<1<1<,,,,<<,,1111,,,<,<<,,1,1,1<1<<<<<<<><<<,<<<,;;=",
"&663<<<<,,,<<<1<<<,1,>>>>><<11111<<5<11111<,111<<<<<<><<<,1,<>;;13643<<<,<<<,<<<<<<,,<<1<<11,,,,<<<<,,11111<<5<111<1<>>>>,,<<,;==",
"*465<<<<<,1<<<<<<,,,,,>>>,>,,,<<<<<1<<111<<<<<<<,<<<>>>>,,,,,;;;14432<<,,<<<<><<<<<<<<<<<<,,,,,,>><<,,,,<<<<<<<<111<>,,,,,,,,;===",
"=442<,,,<5<,,,>>,,;;;;,,,:;;;;,,,,,,,,,1<,,,,,,,,,,,,::,:;;;;;=;14321,,,,,,,>,,,>><,,,,,,,;;;;;;;:::;;;;,,,,,,,,,,,,:;;;;;;;;====",
"*431:;;;:;;;;;;;;;===;;;;;===;;;;;;;;;;;=;;;;;;;;;;;;;;;;;=====;,11,;;;;;;;;;;;;;;;;;;;;;;=========;====;;;;;;;;;;;;;============",
"*43,;;;;;;;;;=;;=;;;;;;;;;;;;;;;;;;;;;;;;;;;;;;;;;;;;;;;;;;;;;;;,11,;;;==;;;;==;;==;==;;;;;;;;=====;;;;=;;;======;;;=======;=;;;=",
"&43;,,,,,,,,,,,,,,,,,1211,,11,,,,,,,,,,,,,,111111111211,111111112332121111111=111,,,,,11111111==:,,11111111,=,1=111111,,111,,,1,*",
"*43111111223232223323344333332111233322223333333333344333333333344444443434996444434434994444993123343433346334w96999949940643343",
"&44333333344344444444666444433112646643344444444433446644644333344444664444666664333433343344443124444444469446966666666666664463",
">44337337333353333334733333321><2334433373733333325337744443333233753373443344343333357533755321,13443333333334473343473344373373",
"-<121112111<,1<11212211111<<,;;,12222212211112111,<<11222212111112<1<21222212212222<1<<<1211<11,;,23332<11111121<<222552255<<1151",
"=,,1,,,11,:>:<,,<,,,<5<<:<<<:;;,3321,:1,<<1<1<<<<:><<,,111<1,<,:111<<11<<<1,111<1<<<<<<,,::<<<,;;,23321<<,111,<<<<<<,111<<<<<11<<",
"-,,,,,,,,5:>:<<<<,<<1,5<,<<,:==14321,><<<,<1,<<<<<:<<<<,1111<1,:1<1<<<<<1<<1,,,<<<<1<<<>,:,<<<,;;13432<><<,,11<<<<<<<<,<<,,<<<,5<",
"-,11<1,1,1<:<<<<<<<1<<<1,<<,;=;13321>>1,1<,<<<<<:,:,<<<111,1,,1:,,1,11<1<1<,1,,<,<<,<<<<,,,<<<:;;13432<>>,1,15<<<<<<1<<<1<<,1,,1<",
"-<<<11<<11<:<<<<1<<<<1<<,:<,;;;1442,::<1<11,1,<,<<<,<<<11111,11:,11111<11,<,<,,,,<<<<<<<,:,,<,;=;13432<><1<115<<<1<<<<<,,<,,1<11<",
"=<<<<<<<<,<><<<<<<1<1,<<,:,,,;;14421,><1,<1<<<<<<<<<<<,1<1,1,11:11,1<<<1<1<1,,,,,,<<<1<,,:,:<,;=;13432<><1<<,5<<<<<1<1<,,,,,<<11,",
"><<,1<,1,,,>1<<<1,1,1<<1,<<<,;;13351:,<111,11<<<<,<<,<1,12<1,,<,,,1<,<<,1<<<,,11,<<<,1<,,,,<<<:;=14432<,<11,,1<<<1,1,1,,,,,,1,1<1",
"-<,<1<,111<:<1<<<<11<<<<,,<<,;;13321><<1,<<,<<<,<<,<<1<1<<<1,1,:1<11<<<<,1,<,,11111<<11<,>,<<<,;=,4432<<<111151<<<<11<,,,,,,1<,1<",
"=,,,<<111,,;11<1<<<<<1<<:<1<,;;13321<:11<11,11<<<<<,<<<11<1<,,,,<<11,<<<<,,<<1111<1<<<<<:,:<<<,;==2332<:<111,11<1<<<<<,<,<,<,,<<<",
"=,,,<<,1,1<:<<<<<<<1111<,<1<,;=13321,<11<<<1<<<<<<<1<<<,,<,<,,,,1,1<1<<,<1<,,,<1<,<,<<<<:>,<<<,;=;13321<111,1<<<<<<<11,<,,,,<<<<,",
"*<<,<<,11<<:<1<<<<1<11<<><<<,;;,332<<,111<11<<<,<<<<<<1<<<<,,,,,1<,1<<,<<<,<,<1,1<<<1<<,::,><<,;=,2335<<1111<<1<<<<1<1,<<<<<<<,<,",
"*,<,<<11,<<><<<,,<<1111<,<<<,;;14321<:,1,11,1,<<<<<,<<1<<<,1,1,1,,<<<,,,<<<,,11,11,1<<<1,>,<<<,;;12335<<,11,<<<<,,<<11<,<,<<<,<<<",
"*<<<<<1<1<<;<,<1<,,,111,,11<,;;1332<<<,,,<<<<<<<,<<<<<1,<<1,,,,,1<1<,,,,,,<1,,<<,,1<,<<:,,,<1<,;;13335<<,,<1<<,<1<,,,1,<<,,,,<,1<",
"*,,,1<,1<<,>:<<<,1,11,11,<<<:;;13331<,,,,1,1<,<<<<<,1,<,,,,<<<<<<<<<,<<,<,<,,<,,1<11<<<<:,,<<<:;;13335<<,,1<<,<<<,1,11,111<<<,<<,",
"=,,1,,<<<,,::,<<1,,11,11,1<<:;;13351<,,,<,11<<<,<<<<<<,,,,,,<<<1<15<<,,,<,<,,,,,<<11,<<<,<,1<<:;;13355<<,,<<,,,<<1,,11,11,15<<,,,",
"=,,,1<1<,,,:,,,,11,,<1,,,<1<:;;13351<,,,,<1,<,,<<<,,<,,,11,<<<,1<111<<<<<,,,,,,,1,1<1<<,::,<<<,;;13375<<,,<,,,,,,11,,<1,,1111<<<<",
"=11,<<<<,<<:<,<,<,,1,,1<,1,<,;;13351<<11,<<<<<<,<<<<<1,,11111<<11<<<<<<,<,,,,,,,1<,1<<,<,<,1,<,;;144551<11<,<<,<,<,,1,,1<1<<<<<<,",
"&<11<<<<11,:,,<,<,,,,,<<,<<<,*;13321,<,<1,,,1<,1<<,<<<<<<<<<,<<<<<1<<<<,,1,<,<,<,,<<<,,:<,,<1<:;;,33321<,<<<,,,<,<,,,,,<<1<,,<,,1",
"-<11,<<<<<<<<<<,,,,,,,1,,1<<:;;13321<<11<1,1,,<<<,,,<<<,<,1,<<11<1<1<<<,,,,<,,,,<<<<,,,,><,1<<:;;,33321<111<<<<<,,,,,,,1,1<,,,,,<",
"*,1<1<<,1<<,<,<,,,,,,,1<<,1<:;;14321,,,,<,,,1<1<,,,,,,,,<,,,,<11<11,<<<,,,,<<<<<<<,<,<<,<<<<<<:;;,34321,,<<<<<,<,,,,,,,1<,,,,,,,1",
"=<,1<<,<1<<,<,,1,<,1,1,,<<,<,;;13321<1<1<<<1<<,<,<<,<,,,,,,,,<<<<1<1<<<,<,<,<,<<<,<<<,<,<<<<,<,;;,343211<<<<<<,,1,<,1,1,,<,,,,,,1",
"=,<<<,,,<<<,<,,,,<,,,,1<,<1<,;=13321,111<,111,<<<,,,<,,1,,,<,,,<<,1<<<<<<<,<<,,,,<,1<<<<<<,<11,;;,463211<11<<<,,,,<,,,,1<1,<,<,<,",
";<<<,,,,<<<,<,,,,<<<<1<<<<<<,;;13321<<1<1,,,,,,<<<<<<,,,1<,,<,<<<<,1<<<<<<,,,,,<1<,<<<<,<,<<<<,;;164321<<<,<<<,,,,<<<<1<<,,<,,,,<",
";<,<,<<,<<<,<,<,<,<,111,,<<<,;;133311<<<<,,11<,<<<<,<,1,,,,,,,,<<<<,<1<,<,<,<<<,1,1,<<<,,,,<<<,;;144431<<<1<<<,<,<,<,111,<,<<<<<<",
">,<<<,<,<<<<<<<<,<1,,,,,,,<<,;;13431<<<<<11,1,1,<<<,,1,,<<,,<<1<<,<11<,<<1,,<,,<,,,<<<<,,,,,<<,;;,34431<<<<1<<<<<,<1,,,,,,<,<,<<<",
"><,1<<<<<<1<1<<,<<<<<<<<,<,<,;;134321<<1,,,1,,,<<<<,,,<,<1<,<1<<,<<<<<<<<<,<,<,,1,<,<<<,<<,<<<,;;,24431<<11<,1<<,<<<<<<<<<,<<,,,,",
"-<111,1,,<<<<<,,,<<<,<,1<<<<,;;14432,<<<,1,,1,<,<<<,,,11<<<1<<<,,,<<<,<,1,<<<<,1,,<<<<<,,,,<<<,;;13433,<<<,,<<<,,,<<<,,<,,1<11<<<",
"><<<,,,1<1<,<,,,,,,,,<,,<<<>,;;1363211<,<1,1,,<<<<<,<,<<<<<<,<,,,,,,,,<,,,,<<<,,<,1<<<<<<<<<<<,;;1344311<,1<1<,,,,,,<,,,,,<<11,<<",
">,1<<<1<<,<,<,<<,<,,,,,,<<<>,;;13452,,,<51,,<,1<1<<<<<1<15<1<1,<<,<,,,,,,,,<<<,<<<,,<<<<<<,<<<,;;13443,,,<<<,<,<<,<,,,,,,,1,1<1<<",
"*<1<,111,<<<<<,,,<,,1,,,<<<<,;;,34321,,<<1,1<1,,<<<<5<2<111<<1<,,,<,,1,,,<,,<,<,<1<11<1<1,<<<<,;;,34431,,<1,<<<,,,<,,,,,,,1<,1<<,",
"*,<<,,,,,,<<<<<<<<,,,1<,<<<<,;;,3451<<<<<<<<,,,11111<<11<<<<<,<<<<<,,,1<,,<,,<<1,<<<<<<<,,,<<<,;;,34431<<<,,,<<<<<<,,<,<,<,,<<<,,",
"*,<<,,11<,<<<<<<,<,1,,,,,<<1,;;13431<<1,1,<<1,,,,1<,1<<,<<<<<<<<<,<,<,,,,,,,,1<<<<,,<<,<,,<<<<,;;,34431<1,1<,<<<<,<,,<,,,,<<<<,,,",
"&,<<11,1,1,<,<<<,,<,,<<,,,,<<;;13431,<11<,,<1<1,1,,<<<,,,<<<,<,1,<<1,,<<,,<<111<<,,,1,,<,<<<<<,;;,34431<111,1,<<<,,<,<<<<<<<,<,<<",
"*,<<,,1,,,<<<<<<,,,<,<1<<,<<,;;13431<,111<<,<<,,,1<1<,,,,,,,,<,,,,<,<,<1<,<1<,<,<<<,<1,<,,<<<<,;;,36431,11,,,<<<<,,,<,<,<<<,<<<,<",
"&<<<1,,1,<,<,<<<,,,11<<<,<<<,;;,3431,1,1<11,<<<<1<<,<,<<,<,,,,,,,,<,11<<<1<<111,,<<1<1<<,,<<<<,;;,36431<,11,<,<<<,,,,<<,,,,<,1<<<",
"*<,11,<,,<<<<<<<,<,<<<<<<<<<,;;,3431<<11,1,111,111,<<<,,,<,,1,,,<,,,<<<<<<,<1<<<<,<,<<<1,,<<<<,;=,34731<11,,<<<<<,<,<<<<<<<<,,,<1",
"*<<11,,<,1<<<<<<<<<<<15<<1<<,;;,3432<11<1<<1<<,,,,,,<<<<<<,,,1<,,<,<1<15<1<11<,<<<,11<,,<,<<<<,;;,3443111<<,1<<<<<<<<<15<1,,<1<,1",
"*,<,1,1<1,,<,<<<<5<1<111<<11,;;13431111<1111<<,,11<,<<<<,<,1,,,,,,,<2<111<<111111<11<1<<<1<<11,;;,3443211<<1,,<<<<5<1<111<1<1,,<<",
"-,,,<<<,,,<1<1<<<<<<1<<<,<11,;;13432<1<11<<1<111,1,1,<<<,,1,,<<,,<<<11<<<<<,,111,11<1<<<<<,<11,;;,3643<1<1,,,<1<<<<<<1<<<<<<<1<1<",
">1,1,,,<1<,1,1<<,<<<,1,<<1<<,;;134321<11111,,1,,1,,,<<<<,,,<,<1<,<1<<<<1<<<,11,11,11<<,<<1<1<<,;;,46431<11<1<,1<<,<<<,1,<<<11<<<<",
"-<<,,1<1,,<<<<<,,,<<1,,<<1,<,;;13432,11,111,111,,1,<,<<<,,,11<<<1<<11<1<1<<<,21,1111<<<<1<<1,<>;=,4642111,1,,<<<,,,<<1,,<1<11<<1<",
"-,<,,<<<1<1<1<,,,,,,11,,<,<<,;;1343111,1,1,11,1,1,,<<<<<,<,<<<<<<,<11<11,,,,1111,1<1<1<,<<<,<<,;==46321111<1<1<,,,,,,11,,<1<<<<11",
"-1,<1<11<<<<<<,<<,<,<,,<11,<,;;13432,<1<1,111,1,,<,1<1<<<<<1<15<1<1<<<1<1,,<<,111,1<<1<<<<11,<,;;,36321<1<1<<<<,<<,<,<,,<,<<<<<<<",
"=<<1<<11<<1<1<<,,,<,<,,,1<<<,;;134321<1,<1,1,,1,1<1,,<<<<5<2<111<<1,<<,1<,,<111,11,<,1,<1,1<1<1=;134421<1,1<<1<<,,,<,<,,,<<1<<<1<",
"*,<<<1<<<<1111<<<<<<,1,,,1<<,;;13421,1<<<1<<<<<<<,,,11111<<11<<<<<,<<<<,1<,,1,11,11,,,1,1<,1<<,=;1344211<<<<<11<<<<<<,1,,,<11<1<1",
"*<<<11<<<<<<<<<<<,<,,,,,<11,,;;134311<<<<<<11,<<<<<,<<<,,,<,,,,<<11,<<<<,<1<111<<<<<<<<11<<1<<,==,34431,,,<<<<<<<<,<,,<,,<,,1<11<",
"=<<<<<1<<<1<1<<<<,,1,<,1,<,,,;;13431<<<<,1<<,,,1<<<<<<,<<,<,,,,1,1<1<<,<1<<<11,,1<,,,1,<<1,<<,:;;,34421<,<<<<1<<<<,,1,<,,,,,<<11,",
"*<<,1<11<1<1<1<<<,,,,<,,,,1,,;;,2431,<,<<,<<<<<<<<<<<,,,,<<,,,,1<,1<<,<<<<<<111<<,,<,,<,,<,<<,;=;134421,,<1<1<1<<<,,,,,,,,,,1,1<1",
"&<,<1<1<<11,1,<<<,,,,<<<,,<,,;;=1331<,,,,,,<<,1<<1,<,,1,,<<,1,1,,<<<,,,<<<,<<,<1,1,,,,,,,,,,<,;;;134431,,,<<11,<<<,,,,,,,,,,1<,1<",
"*,,,<<,1<1<1<1<<<,<,<,<,1,,,,;;,2331<<<<<,,,<,<,1<<,<<<,<<1,,,,1<1<,,,,,,<1<1,1<<,1<1<<<<,1,,,:;;,3443<<<<<<<<1<<<,<,<,<,<,<,,<<<",
"*,,,<<<,<,1<1<1<<<<<,<1,<,,,,;;,3331<<<,,,,,<,<,,<<<<<,<1<1<<<1<<,<,<<,<,<,1<11<<<11<<<<<1<,,,,;;,2443<<<<<<<1<1<<<<<,,<,,,,<<<<,",
"&<<,<<<<<<,1,1<<<<5<,,,,<,,1,;;14431<<<,,<,<,,,<<<<,,,,,<<<<,111,<<<,,,<,,<<<1<1<,1<<<<<<<<,,,,;;,24331<<<<<<<1<<<<5<,,<<<<<<<,<,",
"&,<,<<,<<<<,<,<5<,<,<,<1<,,,,;;13431<<<,<<,<<<<<<<,,,,<<<1<1,,,,,,<<<<<<,<<1<1,1<<,<<<<11<<,,,,;;,34431<<<<<<<,<5<,<,<<,<,<<<,<<<",
"*<<<<<<<<,<1<11<,<<1,,<,<<1<,;;13331<<<,<,,,,<<<,<<<,<<<11<,,,11<,<<<<<<,11<<111151<<<<11<<<1,,;;134331<><<<<<11<<<<1,<<<,,<,<,1<",
"*<1<,1,1,<<<,,1111<<<5<111,<,;;13331<<<<<<<<<<<<<<1<,,,<<11<<1,1,<<<<<<,111<<<<1<111<<<<11111<,;;13435<>><<<<<<<<<<1,<><<<,,<111,",
"*<<,,,,<<<<<,,,,1<<<<1<<111<,:;11211<<,,,<<<<<<<<<<,<,1<<<<<<,1,,<<<<<,,,,<<<<<1<<11<<,,,11111,;;1333<<>>><<<<<<<<<,,,>><,,,,<<1,",
"*<,,,,,,,,,,,,,1,,,,,,,,,,,:;;;,111,::;;;,,,,,,,::,<1<,,,,<>,,,,,,,,,,,;;;:,,,,,,,,,,:;;;,,,,,:;;1332<,:;::,:,,,,,,;;::::;;;,1,1,",
"&<,;;;;;;;;;=;;;;;;;;;;;;;;;==;,,,;;;;===;;;=;;;;;;;;;;;;;;;;;;;;;;;;;;===;;;;;;;;;;;;====;;;;;;;1321,=;====;;;;;;;==;;;=====;;,,",
"-<1;;;=;;;;;;;;;=;;;;;;=;;;==;;,,,;;;=;;;;;;;;;;;;=;;;;;;;;;;;;;;;;;;;;;;;;;;;;;;;;;;;;;=;;;;;;;,1221;;;;;===;;==;;;;;;;;=;;==;,,",
"*43111,,,111,1,,,11111,,,11,,,112211,,111,11211,111111,111111,,;,,11111,,111,1111111111,;,,11111122222111,,1,,11111,,111111:,,121",
"-4433344333434322333333333443333443333333333664344433443333331<,11233332233433333433332111234333444349433333433333333344444333331",
"%4644444444444433344434446444334444444444444444446444466444631<,12344443344444444444433333344444464444444444444444444444464444321",
"-46433533375333333333333335335333333433333333333333333344322<<:,1333777333533357333333333333333335533533333333357333443374333321=",
"*4632<1<<21<<11111111112<11<,1<21212211111111<112122221221<1<,;=132111112111<,1111111<1121<1111111211<<111112<111222222122222211=",
"-463<<<<<,,<<<<,,:,:,,,,,1,<551155<1,,,1<,1<<,<<<<<<<<<,<>1<<:;;12221,:1,>::,:1,1,<<<<,,,<<<<<,1,<<:,<<<<<,<<<<,,11111151<<11<;==",
">4631<<<<<<<<1:>,,,,:<,,,155551151111,1,,<<<,,,<<<,<,1,<<<,1<:;;13321,><<:<<,<,,,1<1<,,,,,,,,<,,,,<::,<<<,<<<<1,11111151<5<11,;==",
"-462<<<,,,<<<1<,<,,,,<11<,,55<111511,,,1<1<,,,,,,,,<,,,,<><,<,;;13321>>1,<<:,,<<1<<,<,<<,<,,,,,,,,<:::,<,,,<<1,,11<11,151<111,;==",
"-465<<<,,,<<<<1>:<:<,1,,5155<5<51,,<<<1<<,<,<<,<,,,,,,,,<<<<<,=;1332,::<1<,,,,,1<1,<<<,,,<,,<,,,<,,,>:>,,,,,,<<,,<<,,151<5<11,;==",
"-485<<,,,,1<,1<<:<<<<<<<<<,<511511,1,111,<<<,,,<,,<,,,<,:>1,<,;;,2321,><1<,<<,,,,,,,<<<<<<,,,1<,,,,,,,,,<<<<,<,,1,,1<<<<<<,11,;==",
"=4851<,1,1,,<<<:::<<<,<,1,<<,,1,1111,,,,,,<<<<<<,,,<<,,<,><<<,;;,2321:,<1<<,,,,,<1<,<<<<,<,<,,,,,,,,,,><<<<<,<,,,,,<<1,<1<5<1,;==",
"*4931<,,,,1<1<,:::,,:,<,,,,<,5,1,111,,11<,<<<<,<,1,,,,,,,:1<<,;;12321><<11<<<<1<,1,1,<<<,,1,,<<,,<>,:><><<<<,,,,,,,1,1<51<<<<,;:=",
"*4931<<<<1<<,<,<<:<,,,,,,,,<11,<<<<,11,1,1,<<<,,<,,<<,,<<<<<<,;;13321<:111<<<<<<<<<15<<<,,,<,<<<,<>,,>>><<,<,,,,,,,1<,1<1<1<<,;;=",
"=4931<<,111,<<<:,:<,,1,,,<,,1<1<<,<1,,1,,,<<<<,,,<,<<<,<1<<<<,;;13321,<11,,<<<<<<1<111<<,,,1<<<<<>>>,,<<<<,,<,<,1,<,,<,<111<<,;;=",
"*442<<<,,,,,,<<<<<<,,,1<,,<,,1<<,<<<1,,1,<,<<<,,,1<<<<1<1<<1<,;=13321<,11,<1<<<<<<1<1,1,1,,<<<<<<>>>,,><<<,,,,<,,,,1<1<<,1<<<>;:=",
"&442<<<,,11<,<<<<,<,1,,,,,,,<<<,,,<<1,1,,<<<<<,<,<<<<<<,<<<<<,;;14321<:,1<,1<<,<<<,<<,<,,1<<<11<<<<>,,:<<<,,,,<<<<<<<,<,<<<55>;:=",
"*445<<<11,1,1,<<<,,1,,<<,,<<1<,,,,,,1,,<,1<1<<<<<1<1<<1<1<<<<,;=14421<<,,,<<<,,,<,,<,<,<<,<<<<1<<<1<,<:<<<,<,<,<,<1<,<<<<<,<<,;==",
"*645<<<,,1,,,<<<<,,,<,<1<,<1<<,<<,<,1,1<1,,<<<<5<2<111<<11,,,<;;14421<,,,<1<,,,,,,11,,,,,,<1<1<<<<,<,,<<<<<<<,<1,,,,,,<<<<<<<,;==",
"&63515<1,,1,<<1<<<,,,,,<1<,<<<<,<,<,,,,,,,11111<<11<<<<<,1<,,,;;13351<,,,<<<,<<,<,,1<<,,,<<<,,1<1,1::::<<<<5<,,,,,<<<,<<<<11,:;==",
"&6351111,1,,<<111<<<<1<,1,1,<<<,,1,,<<,,,,1,1<<<<11<<1,<,,<<,,;;13351<,,,<<<1<,1<,1,<<<,<<1,<1,<<,<,:,,,1<<<<<<<<<15<<1<<1<<,,;==",
"*635<<<1,,<,11<<<<<<,,,1,,,<<<<,,,<,<<<,,,1<,<<,<<<<<<<<<<<<<,;;13321<<11<<,,,1,<<<,1,<<11,1,,,<1<,<,<,1,,<<<<5<1<111,,1<1<<<,;==",
"*635<<<1,1<1,<<1<<<<,1,,1,<,<<<,,,1<<<<1,1,,<<,<<<<<<<,,,,<,<,;;14321<<,<<<1<11<111<,<1<,11,,1<<<<11<<1,,<,1,<<11,1<<<,<,,1<<,;:=",
"*67<<<<<<<,,,<1<1<<<,1,<,,<<<<<,<,<<<<<<,,1<1<<<<<<<<1<,1,<1,:;==3321<<11<<,11,1<51<1<,<1,111,<,,<<<<<<1<,<,<1<,11,,<<<<<<<<<,;==",
"*64<<<,<<<,,,<11,<<<,1,,<,<<<<<<<<<<11<<<1<<,<<<<<,<<<<1,,<,<,;=13321,,,,<<,<<<<<<<1<1,11111<<<<,,<<<<<<<<<1<,<1,11<<<15<,<<<,;;=",
"&94<<<1<<<,<,<1<1<<<,1,1<<,,<<<<5<1<<1<<111,<1<<<<<<<<1<1,<,1,;;13321<1<1<,1<<<<<<<,,111,1,1<<<<,,,<<<5<1<1<1,11111<1<111,<<<>;==",
"-945<<<1<<<<<<,1<1<<<<<<,,1<11<<<,<<<<<<1<<<<,,,,,1<,1<<,<,,<<;;13321,111<1,,<<<<5<1<11111<1<<5,,,<<5<<<<1,,111,1,1<<1<<<,1<<>;:=",
"*945<<1<<<<5<<<,1<<<<5<,,,,11,1,<<<<<,<<1<<<,1,1,1,,<<<,,,,<1,;;13321<<1<<<<<<<<<<1<<<<<,<<,<<<<,<<<<<<<<,1<11111<1<<,1,<,<,<,;,=",
"%3631<<<5<,<,<<<,<<<,<,<,<,<<<<<<<,<<<<<1,<<1<,,,,1<1<,<,,,<<,;;123511<<<,<<<<5<1<11,<<1,,,,<<1,,<<<1<,<<1<<<<<,<<,<<1,,<,1<,<;,=",
"%34321<<<<<1<<1<1<,,,,<<,,1111,,,<,<<,,1,1,1<1<<<<<<<><<<,<<<,;;,2332<<<<<1<<<<<<1<<<<<<<,,,<1<<11,1<<,,,11,<<1,,,,,,11,,,1,<,;:=",
"-36431<<,<<<,<<<<<<,,<<1<<11,,,,<<<<,,11111<<5<111<1<>>>>,,<<,;=,23321<<1,1<<,<<<,1,<<1,1<1,1<1,1,1<11,<,<<<<<<<,,,<,<,,<,<,<<;;=",
"%44321<<<<<<>><<<<<<<<<<<<,,,,,,>><<,,,,<<<<<<<<111<>,,,,,,,,;==,3332,<<<<,<11<11,,,<<<<,1<15<1,,,,<15<<<,,<<1,1<1,11,,,,1111,;;=",
"-4311,,,,,,,,,,,>><,,,,,,,;;;;;;;:::;;;;,,,,,,,,,,,,:;;;;;;;;===:233211<,1<1<<<1<1,,,<,<<,11<<1<,<<<1<,<<1,<<<<,1<11<1,,<<1111;:=",
"*11,;:;;;;;;;;;;;;;;;;;;;;=========;====;;;;;;;;;;;;;===========,3452,,,<<<1,<<,1<,,,,<<<<<<,<<<<<,1,<,,,,,,<,<<,11,1<,,<<21,1:<=",
"*11,;;;==;;;;==;;==;==;;;;;;;;=====;;;;=;;;======;;;=======;=;;;=33331,,<<<,<<<<,1<,,<<<<<<1<<,<<<<<<,,,,,,,,<<<<<<<,1<,,,,,,,,<="
};
