/* XPM */
static char *_5823a38edf04a519013acb8230a6eec[] = {
/* columns rows colors chars-per-pixel */
"64 64 51 1 ",
"  c #3B2F2B",
". c #3E322E",
"X c #3F3531",
"o c #3F3A38",
"O c #40342F",
"+ c #423631",
"@ c #453A35",
"# c #4A3E36",
"$ c #453D3A",
"% c #4B3F39",
"& c #4C4037",
"* c #46403E",
"= c #4D423C",
"- c #51433E",
"; c #55483F",
": c #464242",
"> c #4D4543",
", c #4D4847",
"< c #4B4748",
"1 c #4D4849",
"2 c #514542",
"3 c #534946",
"4 c #5B4C45",
"5 c #524B4B",
"6 c #5C4E49",
"7 c #5F5046",
"8 c #5F514A",
"9 c #544F51",
"0 c #5A4F51",
"q c #5B5253",
"w c #5D565A",
"e c #604F47",
"r c #604F48",
"t c #63544B",
"y c #68574D",
"u c #67584E",
"i c #69594E",
"p c #645551",
"a c #655853",
"s c #6C5C51",
"d c #6A5D59",
"f c #715F54",
"g c #736155",
"h c #746258",
"j c #79665A",
"k c #7D695D",
"l c #6E6364",
"z c #7C6C64",
"x c #7B6D6A",
"c c #816C60",
"v c #877265",
/* pixels */
"7vczxxjjkckckkkkkkcckkkhhkjhfsyttsr%<-2<>>>2=2>>>>>-,=<,>>>>,22@",
"tkttq0648tutt6660tttee868tptppr-4st>>>2>,,>22>==&>->>=>->=>,>>,@",
"tk22><<>>>>><*==*>=2>=>=---3=5-O-ft=2>==,=-=>5>===>1&>=>5,=>>3,>",
"tj%>>>=>2>><1==&=->>==>=-=-2:>-O-ft:22%=5===>5===>,5>=-&252255,*",
"tj-25>=%==<1>=====51==>=%%2>*>-+%st22=>>>>>=22>1=2=>=&---==->2,@",
"tj222>>-===1===>=>,1<,*&#==>*<2@#ir22>=,-=&<>=,>1--=*>=-,>=#2,>@",
"8h-22<>%==11==11>,>,,===-=>>=22O-f7=-=22-===*-2->>2>=,2-22,,>,<@",
"th%22<>-=,>11,,,,>2,<==>>>>>><<O-f7>2>---=>=&-->>=#21=&>>>>,>,,@",
"th-22,,5,&,229,=>2=>15>==>=><>>+-it=>2#>22>=>2-2>2->115====>1,,@",
"4f-*=,,,===>=52==>>25<,==>=-2>>O=st*====>>>==>2-=15>5,>*=2==,,,@",
"3f>>51>,>-3=>2,>=>>,>>>>=>>>>>>+-ft%>5>=2>2>>2>>=><1>>>>=>>>>2,@",
"4f<555=,,,=,2-->>=22,--><<<>%>>O-st<>1=-,,->2--2>=2>22->11,>==,@",
"4f2>9;>,2=#<><-==>==2-211>12-%2+-ft>>2>>>=#>>2-==:>=2-2><>,<==1@",
";f<<=-1,<=&$*=--25522>22,5::2%>.-f8>>5><1,>,,--#&1-&2>5522>$*=,@",
"3t%@>*@$@OO@@..@$@@%%@@@@#@++.. -e%@@@@@$$@@@+.OX++.+@#@#@@.... ",
";4O+O++O++@@+@@+++++++@@@@@@@+@@-2#@+@++@O+@@@@O.O@@@@.OO@@OO@O@",
"-t277tttttyhyyt;4itetiuuutssuittisffysjfsuuigufg4tyiyfifkhjhhhhy",
"-tttr888ttttt82$eyyrpttt60tiit778p8pyttyt86q8t0e#4itrtttatydydpt",
"@&&=-$$>==3,*>++t4#=>>><**<=222#->>2>2-=,><>&&<*.4y2:%-2<<>22><=",
"$22=2*<1112,=>O@y4@>2=>>>&,,----=--,->=&>,,1*%,$.ti2:-29>11>>>==",
":1>>-*<122>,%>@@i6#2-2>><<,-2---#->22,=-&<>>=#>@.ty2>225<>-2=&>2",
"$2>--%2,>2,>=2@@t4*22=><>>>=23=&=3>1==>-22>2*&1=.4i3>2-3>>2>&&==",
"+=,-2*>>>,22:,@@t4*-222>,,1>=,=#=-2<>>=2>,>1$$1= -t,>--,112=>=>>",
"o,>22:>>>222=,@@t4>=>2><<>,>1==&=>>#>>==-->,#%1*O4tq=->1>>>2>*<>",
"+-=,<@&1=---=5@@pr>%=2><>,>=&=>>>5>==>==>221&*,&Ori9&=>>>=----,=",
"@==,=&&>==-=22+@tq>==2>=<>>=--,>251>>&&&==2,&=,*O6d9=>*&=-=-=25>",
"@3,,>==>=#&>=,@@t4>22=>>>=,>,2>>2>1>==*==>>&*=2*O6y3>,>=>=&&,2=>",
"@-,>,<>===&-=>@@y4==>=-2==*&*==222><==>><>>=<,,&.7i2-,1<==&===##",
"$<=&1>=&=>=>>,@@t422>--:,>>&-==>,-11>=>&>=,<<<2=.ts-2>1=#>==2>==",
"$>>=<<>=>=2==1@@t4><2%-=,<=====><>>><==>==,,%%5=Ots4<>,>=>>2==>>",
"*2>>>,,>><>>=,@@it2>%--=,>#=>>2>=,,><>>=-=1>&*>*O4s4<2>1=<,=>>>=",
"*,=-,=>&&==&1<@@st->3%=>,<=>11>=&*&=&>1=>=<,>,5%Ors2>=,=&===&=,-",
"@3=-=<<=====>5@Otp=>5==-2,5,3,,->=&-==>>2>21>=5*.6f3*2><>>&&&==,",
".,=-=,1<>====,@@pr>2>>2#--,>>1>,,,==&&=,>=>>=>1*.7s42-=>>*=>>>>>",
"X1=-=>>1&=>>=>$@yt%-2=,>=>>&====&>=>>>2->*->*,1=.7g4=-=<1==>*>>>",
"$,===,<,=>11<5#Otr>22->=-=>>>&&===>,,>2>>>>>==1=.7g3>-=1<=>>,>>=",
"+==,=>>,51>3>3@@yt22222=-=>,=====>,3,>-22>2>>>2-.4f4->-><91252>=",
"*====>-,>1->>2@@ut222-2--=>1=->>=22>,,----2<,>2*.7g4>-=>>>1->>2,",
"$-=52,1=&=-*22@@tt------=>>1>*,5>>22-=---22>>5>*.7f-22>>*====221",
"@,,21>2>=>==2,@@yr->2-==-==>5523>2<>2=2--->2>=2*.7s322>2>=>==>,1",
"$12,,>21>>==->@@ir>1>1>>1=,>=>==<2><>>-->2=>2>2& 7s3*,121>=>==-,",
"$<>3,2>1>#===-@Ott=>=,>>,,>&>>&&-2>>><2->=====,@O7s4=>221*&=&#=2",
"X=,=222>>=>>==@O4t:>==>=->>=>>=-2>&&>>>2>-=>>--@O7s3>><2,>====-=",
"X=<<>=21<5=%=&#@te>>&===,,*=>,=2>>:>=>22<211,>&#O;f31<<2511=<=<,",
"@,>>>>>22>2222@@yr<><=>1<2=<22-%=>1,=2>2,3<12>-#O7s4:<1>51>>,=<=",
"@2%-,1=-2,,3-2@@44>%=1,1>,>-,2>-=15==>12,-2=-22=Orp<@<<1,>%%>&=,",
"o$O@O@O@++O@@O.O%@O..@X+++@@+@@O+@+O.O@O@OOO.@OOO74+..OO+O.O. .+",
"=4%&#%%@#%%##%#-2-#%%%-=%%%%%%#@@%%%#%#%%--#O@-%-44-%##%%=%%==##",
"3gififfttfyiffiyisiisihssfigfit>-tdstffifistetfisssgisfsdsiffgii",
"3g45755443443556t67444547767e3,@-t684334444475444845443447ee6674",
"3f><>><&##&&%5w203#==>*=>>:=:*>.-t-@*%%=%>>*#**=#>$><*1>#2-4522@",
"3d1==1>*&*>25qq43--->>====#=>>>X-t-$>>==>>>>======@$=&>==>-505-@",
"4l>&==>>#>:>2>23--==*,,>==*=&>>+%t-%2>>===><>===#=&$>1>=#=>2>52@",
";h,>->,&%=&=#=2->2--->1*====>>>+-t2:22><>225===<:%#*<,*&&=2=525@",
";s<>-=>,>>#-==->><--=>1&=,1>>1>O-t---=1<<>2>-=1>,$$*1*&>==>>>21@",
";u<==-=<>&=>&>>>&=-==>,>>2,>>>,+;i2>=2>%>>>==>121>:=1>&>>>>>>,5$",
"2d5>=->,>&=>2=1>=====-25522>2==+-f3==,>&==2*=>>>,=#=115*==2>1>>@",
"-s22-=22<1====1>=><=#->>>,1>=,=O-t5=-,=>22=>>2==,====,,5,,5=>2>@",
"4a<>===,><===>1>&>1,==>,,<1>=>>O=t2>>>-2,3>>--->>>1,=>2,--2>>>,#",
"4i<><=>2>1=->>,15,>>22>1<>>5===X-t2-2>>>1,----25==15,>=--->5,><@",
"6d<,151=>15>&=2>,<<,2,=#=->>==2+2t2-2>>555>>->,5=>11,=2--2>-==,@",
"*f2,1>,,>>=>&>2=>>>>-2,>=><>=:,+%t4<>><5>2>,=&>>=3,==2<,=*>-==>%",
"-f4>,,:<<>>1>==#*>==2>55-2*$%%*.%y7<>2<>>=>,>-32-=5,>>>>>-2==->$",
"=4#@@@@@@%@#@O.O.@O.@@@@#@@..OO #i4=>>>>2=&>>>,>>=2>==>>>-2==3-#"
};
