/* XPM */
static char *_389a7748c964ffbd5c1dc2ba0c6da23[] = {
/* columns rows colors chars-per-pixel */
"64 64 232 2 ",
"   c #040304",
".  c #0A0404",
"X  c #0B0905",
"o  c #070708",
"O  c #090708",
"+  c #070808",
"@  c #0C0B0C",
"#  c #140503",
"$  c #160806",
"%  c #120E0D",
"&  c #14110F",
"*  c #0F0F10",
"=  c #110E11",
"-  c #141213",
";  c #191515",
":  c #1B1817",
">  c #171518",
",  c #1A1719",
"<  c #1D1A1B",
"1  c #200A09",
"2  c #370C06",
"3  c #380C05",
"4  c #350F0A",
"5  c #36120D",
"6  c #3C120D",
"7  c #221916",
"8  c #20161D",
"9  c #221E1D",
"0  c #3C1A15",
"q  c #341B19",
"w  c #3A1C18",
"e  c #26201E",
"r  c #2B221F",
"t  c #36221E",
"y  c #39231D",
"u  c #35291B",
"i  c #1E1E21",
"p  c #221E20",
"a  c #1F2426",
"s  c #1B222D",
"d  c #1E2431",
"f  c #252222",
"g  c #2A2524",
"h  c #2D2826",
"j  c #26252A",
"k  c #2A2629",
"l  c #2D2A2B",
"z  c #312623",
"x  c #3E2624",
"c  c #322926",
"v  c #3B2B27",
"b  c #332D2C",
"n  c #392E2B",
"m  c #37302E",
"M  c #3A312E",
"N  c #222531",
"B  c #332E31",
"V  c #363132",
"C  c #3B3534",
"Z  c #3E3837",
"A  c #37333C",
"S  c #3C3639",
"D  c #3E3A3A",
"F  c #430700",
"G  c #430C04",
"H  c #4B0C03",
"J  c #530D01",
"K  c #590E01",
"L  c #4D1006",
"P  c #46140C",
"I  c #4C140B",
"U  c #541105",
"Y  c #5B1204",
"T  c #551609",
"R  c #58190C",
"E  c #421C16",
"W  c #491F17",
"Q  c #421E18",
"!  c #501F18",
"~  c #630D00",
"^  c #631404",
"/  c #6A1A0A",
"(  c #701100",
")  c #751906",
"_  c #701908",
"`  c #44221D",
"'  c #452926",
"]  c #4F2B26",
"[  c #432D2A",
"{  c #4E2E2C",
"}  c #552C27",
"|  c #522C28",
" . c #5B2F29",
".. c #41362F",
"X. c #4B382C",
"o. c #51332F",
"O. c #5A342B",
"+. c #413633",
"@. c #443A35",
"#. c #4A3C35",
"$. c #433C3C",
"%. c #493E3A",
"&. c #553735",
"*. c #523E37",
"=. c #613126",
"-. c #633731",
";. c #763C33",
":. c #664F13",
">. c #685312",
",. c #7D6215",
"<. c #7A661C",
"1. c #5F462A",
"2. c #46403E",
"3. c #4C413D",
"4. c #5D4235",
"5. c #52443E",
"6. c #725C2A",
"7. c #75463B",
"8. c #6E593A",
"9. c #7E6625",
"0. c #796629",
"q. c #443E41",
"w. c #464142",
"e. c #4C4443",
"r. c #4E4847",
"t. c #444149",
"y. c #4D4649",
"u. c #4E494A",
"i. c #524642",
"p. c #544945",
"a. c #5A4B45",
"s. c #514749",
"d. c #534B4C",
"f. c #5A4E4B",
"g. c #5C514D",
"h. c #554E51",
"j. c #594F50",
"k. c #554E59",
"l. c #575052",
"z. c #5B5354",
"x. c #54525E",
"c. c #5D5659",
"v. c #5D5A5C",
"b. c #604F4C",
"n. c #62534C",
"m. c #68564E",
"M. c #625654",
"N. c #655955",
"B. c #6A5C55",
"V. c #615759",
"C. c #685759",
"Z. c #635A5C",
"A. c #6A5D5B",
"S. c #705E56",
"D. c #6D605D",
"F. c #73635C",
"G. c #79665C",
"H. c #7A685D",
"J. c #5F5D62",
"K. c #665E61",
"L. c #695F62",
"P. c #666063",
"I. c #6C6264",
"U. c #6E6569",
"Y. c #736564",
"T. c #786563",
"R. c #766967",
"E. c #7B6B64",
"W. c #71676A",
"Q. c #746A6D",
"!. c #7A6D6C",
"~. c #766D71",
"^. c #796E72",
"/. c #7C7275",
"(. c #7F7579",
"). c #971C02",
"_. c #826D62",
"`. c #806F6C",
"'. c #84726C",
"]. c #8D776D",
"[. c #837573",
"{. c #8D7A74",
"}. c #82767A",
"|. c #837A7D",
" X c #8D7E7E",
".X c #94837E",
"XX c #9D887F",
"oX c #7F7C82",
"OX c #857D82",
"+X c #897E83",
"@X c #868083",
"#X c #8C8285",
"$X c #8E8589",
"%X c #938585",
"&X c #998680",
"*X c #978985",
"=X c #9E8C86",
"-X c #92868A",
";X c #94898C",
":X c #9A8D8E",
">X c #978D91",
",X c #998E91",
"<X c #9C9195",
"1X c #9F9598",
"2X c #A5928D",
"3X c #AA9388",
"4X c #A29393",
"5X c #A69895",
"6X c #AB9993",
"7X c #A1979A",
"8X c #A49A9D",
"9X c #AA9C9B",
"0X c #B09F98",
"qX c #B2A29F",
"wX c #A69CA0",
"eX c #A99EA3",
"rX c #ABA2A5",
"tX c #AEA5A9",
"yX c #AFA8AA",
"uX c #B2A4A3",
"iX c #B1A6A9",
"pX c #B3ABAD",
"aX c #B6AEB1",
"sX c #BBB2B6",
"dX c #BEB5B9",
"fX c #BFB9BB",
"gX c #C0B7BB",
"hX c #C2B9BD",
"jX c #C5BEC2",
"kX c #CABFC3",
"lX c #C8C1C3",
"zX c #D1C9CD",
/* pixels */
"f c C l b C @.#.%.5.r.Q.}.+X[./.{.{.{.%X&XXX4X7X8X4X2X3X6X0XqXuXuXiXiXrX9X:X9X5X8X7X7XeX8X2X2X2X2X7X8X8X7X7X4X:X<X,X:X+X{.[.`.`.",
"g c C b b C @.2.5.2./.-X+X$X%X*X;X=X=X#X;X*X#X#X+X+X%X;X#X@X#X$X#X.X|.OX|.^.(./.|.;X$X}././././.~.(.}.|.}.}.(.OX+X}.+X-XV.h.j.s.",
"f z Z M m %.3.2.i.U.OXj.j.K.K.Q./.}.Q.K.I.U.K.V.K.L.W.^.^.U.z.c.Z.K.Z.l.d.c.l.Z././.U.K.z.z.z.z.K.K.V.L.L.L.L.U.~./.K.OX$XM.*.@.",
"f z Z Z Z 3.%.D I.^.M.Y.y.V q.S t.q.V C Z q.q.$.$.S D S y.t.m V $.$.D V A D V q.q.S S C B b B A D l V C A D q.$.$.q.Z.V.[.+Xs.%.",
"f v V #.3.5.$.U.~.M.A.y.* 9 m m c m m z b h f f k g e r g r e c l c c c z b l c h f k l h f g g f f k g k f h f g < < K.c.!.}.@.",
"f m C 2.D C k Q.d.C.t.* M C.L.A.I.'.E.G.F.D.u.q.M.M.g.m.f.5.p.G.Y.A.!.R.F.E.`.}.!.F.H.T.U.V.g.I.D.f.K.L.c.u.Z.A.Z.z.j < V.C.*Xx.",
"e m c q q c l w.v [ 1 g a.z.Y.F.D.G.G.H.!.S.M.e.S.C.D.S.F.A.N.!.[.!.].!.!.[. X}.F.E.[.'.~.I.M.!.T.f.U.!.z.z.R.N.c.f.w.p p A.^.j.",
"e h W ~ K ;.~.R./ ~ ) Y.OXZ.$.A.A.F.B.F.Z.B.g.w.C.N.D.A.D.A.Z.J.F.Y.F.Y.U.R.E.I.U.Q.}.!.!.Q.U.}.!.C.g.V.#X|.~.I.L.c.d.D g A.^.d.",
"e k Q ^ K -.P.b.R Y Y C.Q.q.= f k k j b k j l h k j f k g g j f f f * @ @ V /./.R.H._.D.G.!.!.[./.Z.B h.gX:X/.}.(./.^.d.f L.L.j.",
"f k Q K K =.J.f.T K Y z.K.k.V l.V.Z.V.Z.P.L.P.U.Z.z.I.U.^.P.P.W.Q.l.u.z.Z.w.f.z.f.f.f.p.s.g.z.f.f.s.p k y.$.S A C A q.l , V.C.h.",
"g b E K J  .v.z.T Y Y b.c.Z.W.eXsXdXdXdXgXhXjXjXaX8XdXlXlXdXjXjXzX;X~.>X8XP.b q.w.t.w.u.u.e.y.w.q.q.$.j , < 9 , 9 9 @   @ A.Y.d.",
"f b q H J | c.h.I H L z.A.z.K.|.+X-X;X;X>X;X,X<X<X|.>X8X1X8XwX8XrX/.g j l k W.<X<X1X8X8XeXrXrXtXiXtXrX<X,X*X-X$X-X+X$.f - A.~.h.",
"f b w P J ] c.j.I H L f.V.d.D z.z.V.c.c.Z.V.Z.Z.L.l.V.I.W.U.I.I.U.q.- & - - k D $.$.y.r.d.d.r.d.d.d.h.s.q.$.q.s.s.t.p & , n.Q.h.",
"g c 0 G 3 { U.K.P 6 6 f.Z.e.< B b V C D S $.D D D C $.t.$.w.$.q.D f o O @ O . @ @ * @ * * * @ @ * @ @ j q.$.S A C C l 9 , z.A.s.",
"e b 7 # # 7 b b $ . # h b g * @ O % X % , - & @ & - - & & - - : - - o   o , m Z V C D C C D Z Z M j , V.kX<X}.}.}.}.}.k.8 V.A.s.",
"e n e * - - +   - - @ @ @ ; g g r g g e l c g m m b v l b Z @.Z D +.m g t #.X.#.5.C p.B.z.z.C.g.s.S k V c.t.q.q.$.q.$.k ; j.A.s.",
"f M f : e e ; : V S - e h M m C M Z Z C 2.r.5.r.r.f.h.f.h.N.S.B.S.n.m.n.5.4.#.i.r.2.p.n.n.n.g.g.f.f.%.: O O O O o o @ @ = z.Z.e.",
"e M h < : 9 * f 5.l.: h 2.Z Z C $.p.5.r.f.n.m.z.M.n.f.a.5.g.g.n.n.n.B.B.a.5.p.b.b.#.u.n.B.N.f.M.M.f.a.M p p p f f < p 9 - h.V.r.",
"e z b m M h * r m.Z.; l m Z Z D Z.U.Y.U.W.I.Q.W.I.P.N.I.R.Y.D.I.T.E.R._.F.N.f.b.n.+.2.h.r.l.f.f.p.e.q.%.%.%.%.$.D $.$.@.< z.K.e.",
"e g Z 5.3.b * u n.U.: b D w.D |.;X#X|.^.|.|./.^./.^./.^.!./.E.~.W.W.U.I.U.[.U.h.m.+.p.r.I.:XOXOX}.}./.L.I.Q.^.Q.U.Z.e.3.p s.V.e.",
"f h Z r.i.h & g N.Q.; V $.q.~.Q.- @ @ @ + o @   + + + o @ @ @ @   +       < ^.^.p.5.p.5.Z.tXtX.X%X-X;XOX}.}.Q.Q.z.l 3.i.9 s.d.e.",
"h c C d.r.b ; g g.I.- S D e.@Xi p k f k g f f f j k h f < w.h.r.r.r.u.e.e.w.f Q.u.i.5.d.u.Z.~.e j j p I x k.<.0.B p 5.b.9 p.d.e.",
"h m M e.2.n & z g.D.> D V S ~.- u.e.< u.u.: d.y.k h.u.m k Z.R.g.N.Z.P.z.N.M.: D.2.3.5.g.Z c.Q.i N s 8 ).! x.,.9.B i %.p.f f.c.e.",
"f l @.2.2.h % z n.J.: D V C /.- ~.P.* ~.I.- ~.U., Q.U.j l z.Z.i.u.N.z.i.f.i.: R.D 2.a.g.t.P.W.< N d 8 ~ Q J.:.6.A - Z s.e *.j.s.",
"h c $.w.D b * v f.Z.: 2.C M ~.< I.h.> P.h.; J.z.: v.z.j l c.D.b.B.B.A.g.M.5.< ~.$.i.p.f.e.P.^.B q.t.A [ Z U.1.8.D - V w.9 5.M.d.",
"f z Z i.w.V ; c f.P.< D M V /.: P.d.- Z.h.> Z.l.9 P.h.k m h.i.+.@.q.w.$.#.Z 8 ~.e.3.i.z.u.W.s.$.%.%.%.$.@.%.%.a.j - g q.f i.f.s.",
"r r M 2.r.B - c f.Z.< 2.V V ~.< P.u.- Z.d.- v.h.< J.h.h D k < > , - - < ; < g Y.e.u.5.f.r.>                       @ j %.9 a.z.e.",
"f g M w.e.k @ c f.N.e D C V ~.: I.d.* U.h.* P.l.; P.l.f w.D D D $.D $.D D D 2.U.i.3.i.f.$.: - - - * = - - & : - - < +.d.f 3.r.e.",
"f r M w.e.v - h f.N.< $.C C /.: P.r.& P.d.@ v.h.< J.h.i i.v.h.h.l.k.l.l.l.h.$.W.r.p.p.s.i.%.@.c i g l k l h g e b C i.e.e %.l.s.",
"f u M e.r.m - h g.N.< D C V ~.< U.w.& U.r.@ K.d.< D.d.< i.V.u.h.h.d.h.d.h.d.m Y.e.p.s.f.3.5.b.f.b A %.+...3.Z M 3.5.w.@.7 3.V.s.",
"f g +.2.3.m - h i.Z.p $.M M ~.e U.e.* U.y.= L.d.: P.u.9 i.u.2.t.q.q.t.w.w.w.b W.2.p.5.5.5.s.z.#.M 2.5.2.5.2.$.@.5.i.<Xy.& f.z.s.",
"f c +.$.#.v - h 3.N.9 $.n C Q.; Q.e.& !.u.& W.d.< Q.h.< i.e.C D C D V C V V k W.2.a.f.s.3.e.f.5.M 2.h.i.f.s.$.+.5.5.-Xe.- w.s.s.",
"e v M 3.5.h * c f.Z.9 D m Z Q.; e.f = s.k * C l , S k p f.q.V D B V B A V V p I.2.f.p.i.i.2.i.r.$.i.b.f.N.N.2.+.a.5.W.Z - f.z.s.",
"e z m 3.3.g - h i.V.9 D V V U.- - , : % , f @ - b , - B s.q.l D A S b S m b f K.i.5.a.5.5.5.5.f.2.i.f.5.f.m.+.@.5.a.Q.V - h.z.d.",
"e h @.5.2.u > g 5.A.9 D c V /.g , l 9 - k l @ < z 9 9 c 3.Z k l b l l b l k k U.2.5.i.2.5.i.i.r.p.f.f.a.5.a.2.@.f.5.~.D - i.M.l.",
"e z C i.5.m - h i.M.f Z C g h.W.q.d.$.C t.q.S S %.$.$.h.V.$.V C V C A S C S Z.z.C f.f.p.a.i.$.5.f.p.5.a.5.f.5.#.a.3.W.V @ f.z.u.",
"e r C 5.i.b * b p.M.k 2.2.e < y.c.r.u.l.r.e.d.d.k.z.l.l.h.s.u.l.u.l.l.l.u.y.q.> C p.i.a.g.i.d.3.g.l.r.d.5.n.e.2.l.2.Q.Z & 5.z.s.",
"e r M %.5.c - h i.N.f 3.$.f 9 & @ o + o + + o o . .   @ O o + @ @ o @ @ @ @ @ : V i.+.5.z.f.r.i.f.z.f.5.5.5.5.2.p.3.~.C - 3.f.f.",
"e z M 3.3.b - c p.Z.f D #.h : ; - - * = @ @ @ - * - - @ * * & @ * @ @ & : < 9 e #.f.5.i.i.f.i.i.5.5.5.i.5.d.5.3.p.3./.B - 5.h.p.",
"9 c C 3.5.M & r i.v.e 2.3.#.l b f g f f f 9 : a f < f f f i < a f p f f h f v @.i.f.i.i.5.p.5.3.5.3.i.e.f.5.3.5.g.2.Q.V - 5.z.u.",
"u b M 3.5.Z ; r 5.v.e 2.i.i.5.M C D Z +.e.3.2.3.e.e.%.3.$.3.2.e.w.2.3.3.5.2.i.5.5.#.2.3.3.i.5.3.i.5.i.5.5.5.i.u.g.Z D 9 ; 5.h.u.",
">.b Z 5.i.b * g 5.v.f 2.5.e.z.Z.Z.V.N.g.c.z.V.N.z.g.f.f.u.f.s.d.i.e.r.p.a.g.g.f.r.i.5.i.#.i.i.r.u.r.i.r.f.f.z.u.i.2.< ; < 3.u.d.",
"e z Z e.3.h & k d.v.f V b 3.N.!.OX#X;X:X>X,X<X<X<X1X7X8XeXrXeXrXtXtXyXtX5X#Xl.f.w.5.s.r.e.i.s.u.h.u.r.w.e.p.z.g.3.2.h < e r.h.i.",
"g m M 2.2.V % b a.z.k ; a b 2.r.N.U.!./.(.|.#X$X>X,X<X<XrXeXrXiXyXrXrX8X(.q.g e.@.@.r.r.f.d.i.5.r.u.f.i.r.p.i.z.h.u.M g f r.h.w.",
"g b Z 5.i.b & h d.z.h ; @ k m 2.w.w.D 2.$.D D w.e.2.e.e.e.e.e.e.y.y.l.l.e.S e.l h h %.5.i.5.i.r.5.i.i.p.f.p.i.f.z.p.+.C b r.l.i.",
"g b C 2.2.h ; z i.z.k e ; < g m $.Z Z $.S Z S Z V @.$.Z S D $.$.D D D $.D V < - 9 z Z 5.i.5.z.c.a.i.a.i.a.5.f.p.p.i.5.$.h r.r.e.",
"f n h M 5.k & g 5.Z.f f < ; ; ; @ % & % & & ; ; ; % ; ; - - ; ; - - - = - - < f r M #.r.r.r.a.f.e.5.i.f.5.f.i.p.a.h.e.e.g w.u.w.",
"e z n 3.2.m & g p.v.f f : : 9 e : e < : : e e e 9 9 r f 9 9 f f f f f < 9 g g f n #.5.e.%.$.$.2.2.i.r.f.i.i.a.u.h.d.p.f.f s.p.e.",
"e r M 5.#.l - h p.g.f l p < 9 e r 9 ; : 9 9 e < e f e f f e 9 f 9 e z f e e e c 5.2.2.5.2.2.i.5.i.p.p.i.5.i.f.i.3.p.f.s.g 2.z.e.",
"e r l w.w.l * h i.c.a k f < < 9 9 9 8 : : 9 9 e e e 9 9 9 9 e 9 < e g e r r c 3.5.5.3.5.i.5.5.5.i.5.a.r.f.5.3.5.i.f.i.p.c e.l.i.",
"e u n ` w 0 V D +.` 5 ' $.%.M r c ..M +...M v v k m @.C C Z ..n z c M M @.%.+.5.5.5.d.5.5.l.5.3.i.5.i.e.f.f.s.s.f.z.i.p.Z e.r.y.",
"f h u Y ~ _ T.^.7.~ ( ;.oX+Xg : p f g k b e e g < e h z g g f p e f e & ; 9 2.r.i.3.d.r.r.r.d.h.s.p.+.V -XaX/.(.^.!.Q.K.C i.p.s.",
"f b y Y Y R C.c.O.J K  .U.K.j b S q.$.q.w.t.e.y.d.u.t.y.d.s.t.s.d.y.l k l l Z r.r.u.u.d.u.r.u.d.r.s.l l U.OXc.Z.c.c.Z.z.B e.s.s.",
"e m W K Y Y f.J.O.K K  .v.K.l./.7XwXeX8XrXeXtXtXyXyXpXpXaXpXpXpXpXrXU.<X1X<Xl f f l g h l l j k f 9 < , . + @ o O @ @ o + r.h.e.",
"9 b 0 J L L g.J.O.K K } Z.V.Z.+XwXtXpXpXpXpXaXsXaXaXsXdXdXsXfXgXhXfXl.t.r.r.2.(.@X$X$X;X<X>X,X,X<X>X>X#X(.(./.^.^./.d.f - r.r.2.",
"e b w G U U a.c.o.F J | P.A.q.k.V.V.K.Z.L.Z.Z.I.I.W.W.Q.Q./.~.Q.!.I.l @ - - k Z.I.I.Q./.^./././.|.}.|./.!.P.U.W.Q.^.d.e a h.f.e.",
"e c 0 L I L s.J.&.H L ] V.N.m V w.w.r.d.d.h.h.d.l.d.z.Z.z.v.c.l.l.e.- * * - o + @ & * , - , - - - = - < p p f f j f p * > f.d.$.",
"9 h 0 F 2 4 z.U.&.3 2 ' V.z.< @ - @ - * * > * - - - - > - - - > > - @       - < 9 < i < 9 p i i < i < B +XpX~.^.Q.Q.W.Z.A d.s.q.",
"e z 7 . $ $ e e : .   = f f - @ * @ + @ @ @ * @ @ * @ @ @ @ & @ & - - - - < p f f f f f f f f f f p , g Q.#XZ.P.V.V.Z.c.B r.s.$.",
"e c e + @ @ X   % @ & 9 f f B l b f j B B B C A D D D A V C B D V S S S q.$.+.+.q.w.$.D $.$.q.q.q.$.S l j f k j j j k B e.f.s.w.",
"9 v e + < f < @ * < B $.q.e.y.t.r.e.d.d.e.r.d.e.d.l.Z.l.z.h.s.d.e.l.z.d.s.e.r.f.g.M.N.Z.Z.Z.C.V.Z.Z.v.z.c.z.z.c.z.v.N.N.z.i.u.p.",
"e n 7 & f a < - : B m k k b l D C B B B l V C b B k V D q.M V V D C C $.V S D C b C S @.i.2.2.i.e.w.3.2.w.2.@.w.2.3.3.$.#.w.e.Z ",
"e m e : 9 : < @ @ @ @ = @ - @ - - - , < > - ; , - - ; ; ; ; : ; - < < 9 p p 9 < < f e e e 9 f p f 9 f f f f 9 f f g 9 e f < f e ",
"e b e - f < e 9 < & : < 9 9 < < 9 f ; , p i 7 9 ; < e f p e p f f l k f k b l f l l k l h C c c V V m b f j c b k m C B V C Z +."
};
