/* XPM */
static char *_1ee73aad2a04cb0c6aa2e5f34df1f8f[] = {
/* columns rows colors chars-per-pixel */
"64 64 64 1 ",
"  c #343130",
". c #393534",
"X c #3E3A3A",
"o c #474243",
"O c #4B4546",
"+ c #4D4847",
"@ c #4C4749",
"# c #4E494A",
"$ c #534C4D",
"% c #564F50",
"& c #584F50",
"* c #575052",
"= c #5A5254",
"- c #5E5659",
"; c #5F585B",
": c #60575B",
"> c #635A5D",
", c #665D61",
"< c #695F62",
"1 c #6B6265",
"2 c #6E6569",
"3 c #706564",
"4 c #71666A",
"5 c #736A6E",
"6 c #766D71",
"7 c #796E72",
"8 c #7C7276",
"9 c #7F7478",
"0 c #81767A",
"q c #85797D",
"w c #887B7F",
"e c #877C80",
"r c #8A7E82",
"t c #8D8185",
"y c #8F8488",
"u c #908387",
"i c #92868A",
"p c #95898D",
"a c #988B8F",
"s c #978D90",
"d c #998D91",
"f c #9D9295",
"g c #9F9598",
"h c #A09397",
"j c #A1969A",
"k c #A4999D",
"l c #A79DA0",
"z c #A99EA2",
"x c #ABA2A5",
"c c #AEA5A9",
"v c #B0A6AA",
"b c #B2AAAD",
"n c #B6AEB1",
"m c #B9AFB2",
"M c #B7B0B3",
"N c #BBB2B5",
"B c #BEB6B9",
"V c #C0B7BA",
"C c #C4BBBD",
"Z c #C7BDC0",
"A c #C9C2C3",
"S c #CEC5C9",
"D c #D0C7CB",
"F c #D0C9CC",
/* pixels */
"*=<--=&&%&$:>=&=:>%%&oo$$&=-:=:::=&&O@-:=$->&=@@=&%&*,;@$->=&<33",
"fhkeque867ufjjduqady05ereffyiazjdprhy6uvauhfppqrlpirinzefCNdijkz",
"dq>8que2>qqr08909uy5:7r56re60rkfrw0ai=7je87ip3qkj60apfiekci8rajj",
"d11xke640zue0wiriy05<qy5,8fyq0ih055pw&0a0<0jw7py5=ymdh0rhdy00uap",
"u0znd58u0uaiuvp0syfe4684<dmy0eia55i0<>6aaqehrdariejzidedpsBywafi",
"0pjqp6uj10zguke0ifg028927xc90epe7rf>5raxr45hfpfljja0gjdlukBzakda",
"upa6fdff1ekq7au15is6;9d88ka052825hy5qedd<=7fr0gdrra0fkvbdikni0hv",
"gkkp0hfq;qsu80p21ta5>rfi<qfk62057ha0e00a2=rf7rae5axpkxnvkfcc5qcc",
"cjdp1wp47pedp9f07fzpuer0-5ju25e80pear,1g5>ake85iazjdfailczxp5fhk",
"kpdr<8f2981ffuu8axkdr2654ux027itqrdkr55yr5hbr1ejg0earfpnzeue7akn",
"epd0ruq4:=0np56skr7uerr8app07ekq8ddfeyapd6yd00ddi5gcdcdxz58duyVV",
"uha17e><-5ezk7tcp06rjf62dueduet9wrufiiipp40fccpda9jvlxfkt<yg50Zz",
"jkp4,w058wecj0wza02ecy,1afpxu9w655ep881yl48hvgrareflhfa811fj0fDV",
"cjq2850r00uxe88ae05imi54indrr9r19yp75iedk070lf848rafr42,7<zlebBZ",
"ci7721idu08q7iuprqrhj00qjSf9p5r50lp72rurk0>5jkr5qajkr75ye5kx9jcZ",
"kr11-0pedi5udkst0rdj92kpivppsudtia471iyqhq=,yir0yicf8e7jy0zbqfbV",
"i7%<qdu7tr2iysp5qspjutz0quxcdwqqj46uey2rp5@:rrkjrime750ljrfze4jz",
"85edzdq0yi226ty268yxgpu68tjd9662r28050=ir<>:exZi6fle8<idiq7d06da",
"0efdi858991,pfe258kCbq266ip09u8-8005>1eiaq:60njridi079yyjl5redas",
"jzp871<45899zt89wuxnt>8t5wf09u8=<4i2=ri8i<>zfdhmr8riyjmalr45ali8",
"xxe8du859fspy68qrsxsy9qp8qge11<=<=85-470r3rnfaxz49aijhd87;,27hdi",
"jke8pi87ppyre66qggq9q64iu8ia2>900><21=1e0e00xzrr7eerpdq0><,8yg0r",
"gja750w0tqpt79ippq66s48f9qep2=6451&15>,r088ek00r5id5ak7056eye960",
"jfh61pu767it2ti659q9x9pzqww61*%<7,:-200hrrdjr0ar7ry2ad,9d458759h",
">1q86qeu66089u8559ptq48p=>85,#6j427*rfpdjppa40fq7605pr<q07re5,y0",
"#*4it9ue14q9t6,27pst02>p<=7q4*0y;2<>pafeup0p74pe0002r6:<4pzd24i:",
"90ubu88511qqq9;6ieesd7278=2k6$$18:=0fpy,0kfjr0rpw41>70242icg5qer",
"jksi8>2q516ps2$tce8f5$*<817v4%>1d51irf1@5ciaw774<:<0ie8eeclriy9e",
"aw40q<7pe86ii%%xnp1,O$7u00uv15q8he5e89>=5hrr067:6r8ayrujlkiilkja",
"88187<186426q6>gj2#1188ew80w5jw8i5=,68::rjie860yde0rehddjr640lie",
"0q1><>-,&:650f8,dq6u755ue75ukl<66<,802<80e00e7yi08807kr0p2=28ji8",
"q945uq:=#9d65q48p81<,<8jd8fzh9&-<<>2e,9h,0a8ie0>5iir0r06ir8rdji5",
"ae00dji67kr*<5<8<,<2ppdf09dr82@%2:>105jf4e00f71=dfja50irnlj7yxii",
"iirqagla504$,a4,6weuzji87852>1->6<48rrjr0p7pj526xdre7rdrrdr25ddd",
"0rerjr85:27,eg7gh8jjpqa46979<9765078de070aaap15eg02808q50g680ld0",
"8r90y4=*<48yarie54juqueO60<60ry87848rp96epr60,<ir47e0rryid95dx21",
"ur259,*=257apxg59808ia,o0d98ep7<0540pf56rp5-er,dfr9ifie0re,2pr96",
"y<>27<;=5e6yjAg08qqyzy><seq79a6<8886ii580r748ryidze9pr,rxr-4p9rx",
"745608,-8e7jbny79irabd6451818i2-<r0rpr2yj0776re9fr687rifvf7461rk",
"007rg8,>,16era98deedgr2=--9iy9>4pa6rfi4yfe5ei949i015edzrrze1>eha",
"rarrz5&&,666679675ei074,;<ejje4ik09iri7err6e7=42681aBy9rearpyyp8",
"akrak5o-407166e6;598004;145epa94fey0795ip888269146aNj6,rjdayp40e",
"fk0aj0@20r7,80792255e7<><18qe4eid864660p5-dfrr8>%5sft79lza9ea415",
"jlrdkr14dy449917721rie75,5r772iNe>5869rp8*gBr1<*$qkiq9dryr9pre6i",
"mzaff055yr7rp87779izce5924i987fg22e75>epr7abf5>4,abd>9a50iad8rdl",
"Vbyyr<=re87ye78<<dj0y2=59876674<2e8524liygijf1@56qxg,7e4eafp0rmC",
"kh805&>r9<6e174,9p9<0<,672;69,=rr5,99ri0ir9ri1*yfr8-20,qq5arr5kV",
"gh05>:2094r85p66t8;47164,-,77-6ae&=ir765006892258*#.5x5yqqhr82zN",
"df7>1556979,9r8196*1962;,-8767p92$;kfu928rrt791OXX%=5z5tzstiudbg",
"fh026<5895560<2562;eiq<>52pt16r4q29spNt883ui>=;OO;;2wt;gM98iiqzj",
"aiq92-5524297$yg252sppq-698q8<02qwpgyzwu9=8r#%71;6>,s4>kx5qpeqkc",
"7ar84:42470r56za58160qd11<<k72d16t9s28yty69s5gd2>>266<ucd89strlM",
"6aqqr<<767r62rie6622wedq6>6p7kcu90is6purjdqq7rru2%:421py48dg79ld",
"8q50i2<2176>6rrr89r907w0,;6,9Ns1qsks6uqjbs21yldd>21=60985gg9qti7",
"005ea<:<86548eidey8268e8;2q66xg<ix9086rffq11gi27>85*wt6ysgk>tl21",
"rq6eh6<5e5688efdqr<>9w71169t2gs2wkde6>5wde2,w2=>21sw4iudrrg<7k><",
"6000hr5:65ee56pe59>-ei2>18w01i9ujjft95t9qq>761;qk6it=6wwsj6O6k0,",
"er55dv7=97pe6rr00p9>0hu1,<895qiptrdzd90*>,2p56qijtu1;4tpfy##px5,",
"a8,4jh58fid89p649d9=8bu:>=296uuw5izs91*#;1,trdi7w9;30tisq848bs,0",
"r44icr4edye15r6,qy,1pxq161150utw6gp0>=-$5y98dd08t9-qdkt8q5r50013",
"p52rp9eeri615r00a4&ixx0<i918qrawwc0>oO4ikbkr9<5qsyq9kx100*4-8xh<",
"e<<arerrrr166e0r616afs;2g995;0jtqt4: $bVgds9-<wwsq0t0r9q8+=6kn0%",
"e45ar080i0>169eq,8i0u6qzt1>;6ikt0881OrFN9wde;5r9q8r9=3886-4xg7>7",
"i70rr04efr>85%>0t85tf5qd2,16lptwpi584rZb66gi2,8ds9uw,60s06pg7,qp"
};
