/* XPM */
static char *_53e27fb80c94dbcf19d6f9662057d3d[] = {
/* columns rows colors chars-per-pixel */
"129 129 45 1 ",
"  c black",
". c #040404",
"X c #080804",
"o c #0C0C08",
"O c #100C08",
"+ c #100C10",
"@ c #141010",
"# c #1C1414",
"$ c #181818",
"% c #201C18",
"& c #28201C",
"* c #242020",
"= c #2C282C",
"- c #302420",
"; c #342C28",
": c #3C302C",
"> c #383434",
", c #601404",
"< c #701808",
"1 c #403430",
"2 c #483C34",
"3 c #403C3C",
"4 c #4C4038",
"5 c #202840",
"6 c #38446C",
"7 c #4C4848",
"8 c #544440",
"9 c #5C4C44",
"0 c #585050",
"q c #64544C",
"w c #6C5C50",
"e c #60585C",
"r c #786458",
"t c #6C6064",
"y c #746C70",
"u c #801C08",
"i c #8C200C",
"p c #AC280C",
"a c #807478",
"s c #887C80",
"d c #94888C",
"f c #988C90",
"g c #A09498",
"h c #A89CA0",
"j c #ACA4A8",
/* pixels */
"%@@@@@@OOOO$$$$OOO@$@@@@@@@@@@%@@%@@@@@@@%$O@@%@@@$%@@%O%@%$%%@%O%%@%> =eatt>+.....+++++++++++++++++++++++++++++%%%%%%%%%%%%**%**",
"17ee000773377773>333333000770077007077000007770073733333337733077000e0ettteeeeeee000eeeeeettttteettteeeeee0000eee000000000000eee1",
"*7477007007777773733>>>3000700070777077770777033077773733737707000000etettteeeee00e00000eeeettty0teettee00e0etyttttttte000eeeee=$",
"%@e47777007770000373333eee000e0777007770000000000007777377000ee00eeeetetteeeeeeeeeee0e00000tettty7ttyteee0e0tattttttteeee0000e%%$",
"%@oy8wqq700777ee073300eetrete0777e07700000003e0ee0e07777700eeetttteeeetttttttttteeee000eeeeeettttatytttteeetsyttytteee000qwet%@%$",
"*@@=dttttytyyetyyytyyaayaas0dattttyytyyyaayttytttyyaaa00gssyaayaayyyasaasssysyysyytyyyyttyyaayyaaasaayyayyysssysyysyyyyyssaa>@@*$",
"%@@=t03773773>>*>>>=3>>33>t=37>33>7777777733777777777077707070077737377377733773377773>733373333>>>>>>==>>33>=>>=>>3>>>33>>0=@@%$",
"%@@=e773333333=733333>33>3=7*>>377>37777777737777777733077e00e07333377773373773773333333737333333>>333>=>33>3>===>3>>3333337=@@%$",
"%@@=e721113=1=t372311311322133737*e2>73>27321727173333770700e0733>333373777771711271237737313221137372>=37372>==>27133111137=@@*$",
"%@@=e3333371>73337312113773113737e3737373237323733333770700t0733>33333337733333773237777733377311777373=37737==>332117331330=@@*@",
"%@@=t3111111133737111333373333777333737777323773737770730et733>>33377733333333373333773733333733377737>=37737>=>37711111113e=@@*@",
"*@@>e3112172137737211112227131177337373772233700007eeee7est00077733333337777777330077371711222733777373=37737>=331371::11=3y=@@*@",
"%@@=t31==1373373773311111111113333773777311330$$$*$**%%%***%%%%%%%***%%%%%%******@e33133371::1137333773=333773=>31132212113e=@@*$",
"%@$=73>11717312113333777323111373333737>733330@@@@@O@OOO@O@OOO@O@O@O@OOO@OO@O@@@@@t3>331332212333733333>33333>>>311311322130=@@*@",
"*@$$y==33213717133333333331111377373337>237330$@@@OOOOOOOOOOOOOOOOOOOOOOOOOOOO@@@@e>33>1331132277773733=773733=3312113771130=@@%@",
"*@$=>=7333133333133333333372113133373771333330$@@@@OO@OO@OO@OO@O@O@OO@OO@O@OO@@@@+73>>>1211377777733373>13333>>3111333371130=@@%@",
"%@$=y7333333733137311133337311311213337>21373e*$XOOO@@@OOO@@@O@O@OOO@@@O@@@@OOOX@+3>>3>1133337333771::11111133=3211112223230=@@%@",
"%@$*t3333333737137311323773333333337337>33373t$$@@**@*@***@*@*******@*@**@*@**@@@$33>>>11112227773322121111373>3111211111130=@@*@",
"*@@*t3333333333333333733313713337733333313337t%*@******************************@$+3>3>>1121111137731132211133333317111122230=@@*@",
"*@@*e3337333373733333333313111333313>>=333313y*%@-*%-*--*%-*--*-*-*%-*--*-*-%*-@%+3>>3>1711112133771377311113>>3371331312230=@@*@",
"*@$=e31331337333337331711111113311111:=333323t*%@*%-----%---------%----------%*@$$33>3171337337377331111111111:3377333712230=@@*@",
"*@+=e3333333333733331277731331333112:11211337e**@------------------------------@*$33>377733731211333377732312:11331111117730=@@*@",
"*@$=t33127737777333333333712217732131::1113370*%@=>>33313333311331>>3311:::;=**@%$3733331113717133333333331131::111117721330=@@*@",
"*@+=e3111137733213333333131112377371311:=1137t**@==>331;:>33:::111>=3>11>:3>=**@*$33311=:11333331333333333771311:=1113111130=@@*@",
"*@+=t3=11=23337373733733337113331371::11113270*%@===;1;1:1;1:11131>71131::1;=**@%@37231111:373313731113333333337333337733230=@@*@",
"*@$*t31111111111321113221211112111322121111337*%@=1331;;1331:::11;13311;;;1331*@%$03711112137371373113333333333121111377773e=@@*@",
"*@$*y31221273311313113113221132311311322111137**$=1=1;;11;133113:33>3313>:;3=1*o*$77111122333333333331333377732313337373737t=@@*@",
"%@$=y31111111312113121137731137312113773113337*%$;;=1;11;31=31:3:31:331>:1;1=--$%%73331137733737333337733111111117733213377a=@@%@",
"%@$*y31121211111331113333733331111333373333=37**@;3313;133*0:131:7333311>;3133-@**77173337337333337337773173337333777737370t=@@%@",
"%@$=t3233111221111211112227131121111222713>737%%@113111113713333717313113111311@%$37113>72233337333317111172273373333737707e=@@%@",
"*@$=t31111111111211112111111132111211111113337%*@131311;3131111>13313113:133131@**733>=311137777333333331311133733737377073e=@@*@",
"*@$*e32212111317113171111211113317111121111137-%$1=11;31:=7:33333733733113=31*1$%-337=03121773321333333313233332333737707330=@@*$",
"*@$=032211212733711713313133131337311111111130-*$1133113103113:17:13111;;111311$*-777e33111333737373323773121717733373773730=@@*O",
"*@$=e322233171337733>3333322131121332122111137=%$13111;331333331333173311113331$*=733371221233121131221733377777731777233370=@@*@",
"*@$=e33333211337033>>3333311217711333333>3>237=-$11331;;133>3;3>;>7333:;1:13311o*=732737333333117712111111113337337372733737=@@*@",
"*@$=03333327>37e3>>333333211111131711733313337>-$111;;;113>>33>>>37>>>>>>>=;111$*=073313337117131111112112111333373772337370=@@*@",
"*@$*e313731137t73>3737331733111313373713131330>-$11;1311>33333>>>31>>>111131;11o->033131317373313111337123313333733311137130=@@*@",
"*@@=032222773t033>7373331133133>33>>93331111301-$1133111133>>>>3>>>>>>>>>>13311$->0731127733>33>3833331133133>30>33333113270=@@*@",
"*@@=033123130t773737>13333112137733777>31113301*=377773373777737773377777777773>*103311313373>7377>13333112133e3333733111330=@@*@",
"*@@=e31121177@@@O@O7>3337331113OO@@@@*3>11117037770700000000700000000777077000007377311117*@@@O@O7>3337331117OO@@@@*7>111330=@@*@",
"*@@=031111127@@@OOO7>>333311317OO@O@@*3313373eeettyagsyttyyttytyyttttyyttyyyyyyytt0733>113*@@@OOOe>>333311113..@O@@*33133330=@@*$",
"%@@*731121127OOOOO+3>>21771131eOOOOOO*7333737733737t737370898873883777773798070773333=71>7*OOOOO+7>>2177111>7.OOOOO*73333330=@@%@",
"%@@=031111213+OOOO+7>>313321327OOOOOO-731337377737e7333377332337717121377>2773777333>73373*+OOOO+3>>313321223.+.OOO-73333137=@@%O",
"*@@=031121117.O@OO+73>111333233@OOOOO*7>333777377012111137777333233332313e>237773733333337*+O@OO+73>111333217..OO+O*07733330=@@*@",
"*@@=e31121113..@@O+333337113137OOOO@O*3313773773727133373737373773711171337773737333737377*++@@O+333337111117..O++O*e7733330=@@*@",
"%@@*031>81117+.OOO+733311111137OOOO@@-7337331117111177332133333733722711117373333373373070*++OOO+7>3311111117.+.++@-03773330=@@%$",
"%@@*0313>1117 +O@O+331232211137OOOOOX*7373731733773337777333373337733713777333337337333700* +O@O+731232211117..++OX*73333337=@@%@",
"%@@=032332127++O O+331111321233OOXOO@-333711172273373333733337711111111337711733373337337y*++O O+731111321223..X+.+*73311330=@@%@",
"%@@=e31112123 +O OO331121111333OX XXX-3>333131117377373333373331=237773>731=1333737373777e* +O OO731121111317..+++X*07333337=@@%@",
"*@@=e321121>7.O  X.73212=111137X@@@@@17>333132333323337373333112133333*0333121111377373337*.O  XX33212=111113.+..++$73333330=@@*@",
"%@@=t321211>3.+@@..333333111110#@@@@@-3323773121717733333333333373333333331733333773333107*.+@@@@333333111113...+..*07737270=@@%$",
"%@@>>***==**=.....@==*=*=**=*==X@ @  -*=*===*=**==**********===****==*=======*******==*===$....@@=********===X... .-=***=**==@@%@",
"%@@>**=***=*=.....@****=*=*=***X $$$ ==**==*=*=****===****=******=====*********=**===*=*==$.....@*=******=**=X ... =**=**=*=>@@%$",
"oO$3$@@@@@@@@O#o.@@@@@@#@@@@@@ O@  @ @#@@@@@@@#@@@@@@@@@@@@@@@@@@@@@@@@@@@@@@@@@@#@@@@@@@#@o@oo@Oo@@@@@@#@@@@@@.o#O@@@@@@@@$=$Oo$",
"+$>$O@@##@@#@OO@O@@@@@@#@@###@@OOO@@ @@@@@@#@@@@@@@@@@@@@@@@@@@@@@@@@@@@@@@@@@@@@@@@#@@@@@@o@@OOO@@###@@#@@@@@@O@OO@#@@##@@O$=$%@",
"$=$@O#@@@@##@#@@@@@@@@@@@@@O##@@@@@@@@@@@@@@@@@@@@@@@@@@@@@@@@@@@@@@@@@@@@@@@@@@@@@@@@@@@@@@@@@@@@##O@@@@@@@@@@@@@#@##@@@@#O@$=-$",
"=+..... . ..   .          . ..................................................................................................+*@",
"$.#O++++++#OO+++++XOOO#+++++++++++++++++++++OOOOOO@OOOO @OOOO     @OOOO  OOOO@OOOOOO####OOOXOOOOOOO+++++++OOOXXOOO.O++++++++++$=$",
"+*.# ++++++O#++++++++++++++++++++++++O OOOOOOO @O@OO@O  OO@O      OO@O    O@OO@O@ OOOOOOO ++++++O++++OO @O++X+++++O+++++++++#$>%$",
"@$3*OOOOOOO+$=**=**$+O@@@OOOOO$*==>=**$O+++  OOOOOOO OO@OO OO@O@O@OO OO@OOO OOOOOOO++O #O+$*=**=>$OOOOO@@@O+$*===*>$OO++OOOO*7%@@",
"X@$e>=33>=>=3.+@@@@*3=>==>=>>=3#@@@@@-3>>3>>>>>>=>>>==>=>>>=>>==========>>===>===>=**===>3-@@@@@#3>>>=>===>3=@@@@+.3>>>3>>70t-@X@",
"@@@8syyttytty.O  XX=tytetytttta.@@@@@1atttteeeeee00eeeteee00000eeteee0000ee00yeteee00ettta1@@@@@.attttytetyt=XX  O.yttytaaaa7@@@@",
"@@@>y3>>>3120 +O OO*03>3>333313.X XXX-e33333333333333333333333333333333333333333333333333e-XXX X.313333>3>30=OO O+ >213>>>3e=@@@@",
"@@@>t31111127++O O+*e121>>13327.OXOO@-032232333312113>>>=>>>=>>>>=>>=>==1=====213333232230-@OOXO.72331>>121e*+O O++321111130=@@@@",
"@@@>y31111113 +O@O+$0113>1>3110.OOOOX*03211173733170ee00e077707337777777070ety3>1737111230*XOOOO.0113>1>3110=+O@O+ 31111113t=@@@$",
"@@@>y31121113++OOO+$012>>>33117+OOO@@-731273373773=>tyte00033>33707333770etye70>3222122137-@@OOO+71133>>>210=+OOO++>1112113e=@@@$",
"$@@>t33213117++@@O+*01==173*=17+OOO@O*731173121133=*=>fdsdhdsdssdddgfsssfsj0037>1211211137*O@OOO+71=*371==10*+O@@++31131233e=@@$$",
"X@@>t32111117+O@OO+$e==>03=1=13+OOOOO*731=37171333**$=yee0tatttt0teeeee0tts7373=711111=137*OOOOO+31=1=30>==e=+OO@O+31111123t=@@X$",
"$O@>e31112217+OOOO+$0=>03=18=27+OOOOO-03==33333133$*$$t00tsty$         $tys0733>7732====30-OOOOO+72=81=30>=0=+OOOO+312211>3e=@O$$",
".O@>e31111123OOOOO+*03732=81=10+OOOOO*03==37331373$$$$tetatey pip 6 6 6 yys73733333311==30*OOOOO+01=18=23730*+OOOOO>21111>3e=@Oo$",
".O@>t33113127@@@OOO$01321111217OO@O@@*73=137371373$$+$ytyte0a <p<  5 5  aea7777=3333711=37*@@O@OO71211112310=OOO@@@321311330=@Oo@",
"X@@>e>1211130@@@O@O$01313211417OO@@@@*032133333333$++$ayte07d u<u 6 6 6 yes7373=3333711230*@@@@OO71411231310*O@O@@@371112>3e=@@X@",
"X@O>q31>11137t0777777>3312111133733>3>731333737333$+$$dte070a ,<,  5 5  yea3737*13773=3137>3>33>3311112133>77777700731111>3e=O@X@",
".@O>0>1>8121333333333111113=81>>>>>>>3>q8137333337$++$te070ey <,< 6 6 6 ats7733=13313218q>3>>>>>>>18=3111113333333331218=>30=O@o$",
" @@>e3>21111121-213-8*11233111121121181=1=33337333$++$e0ee00y$         $sea7333*1331=1=1318112112111133211=8>312-12111112>3e=@@ @",
"$@@>0>11111=111*1*33111113121131111=11==1237777373$+$$yet00etatyyyasassatta>7>3*11111121==11=1211311113111113>>1>111=1111>30=@@$@",
"$@@>t>1=>1===1131337-213333313311181=8=33377332173$++*et00etttytteetttettes>>73=77731-1=2=8=133133111833312>7331311===1==>30=@@$@",
" @@>y>=>>>=121111221312371113312113111173333373737#+$>*$+$$+$+$**+**+$*$+#>0=>>=3337172111211113332111173213122111121>>>==3e=@@.@",
" @@>s==>=>===1131337>21333113333133111831373733133+#=$+$$$$$+$$+$$++$+$+$$$*7>>*33131333133131133333337...............3>==30=@@.@",
" @@>y>11>>>121111221312371331111333211133733372337**++$$++++$++++++++$+$+++%#3>*33337731171333311133330+.............+721>30=@@.@",
"X@@>t>11>3...............71133113333333773333731373*O #++...++++.... +.  ++ &&=311=33131211331133133337+++$@@@@OO@O@++311>3e=@@X@",
" @@>y===27+.............+02111331113333333311133333333>3>3>>3313733337777333337311131113333132111773337+++++@OO@@@O@$+>===3e=@@.@",
"X@@>y=3=13++@O@OO@@@@$+++72171113313337333373317337373333>>7331=3137337333111323=223733173117217123137e++++@@@@OOO@@$+3=>=30=@@X@",
" @@>t=>1=>++@O@@@OO@+++++711112111773331373733133733333>>31311113373333711111377232373313312111111337e0+$*$**$%$$**$$+7=>430=@@.@",
"#@@>y==1=3+$@@OOO@@@@++++31217217123133373337233333373>>31277731773333731773333337333723331111217177e00++*===-=--=*-$+0=>230=@@#@",
"#@@>y>===7++$**$$%$**$*$+723331111133777333373173777733333*0337123233733723233777333373133111233332e037+$*>>>::1:==%$+7>>>30=@@#@",
"X@@>a>=1=0+$-*=--=-===*++0111712171>732323373372773321333>7331317777333337777332323373371311=1117307777+$=1>>33121=%$+711>30=@@X@",
"$@@>f==3>7+$%==:1::>>>*$+772272333$e3277773333373337373733333337373331113373331777733333731113227077337$+=3333333>>*$+333330=@@$@",
"X@@>s>3=>7+$%=12133>>1=$+773371117077737333111337333111323=2237733711111333711137333111323=223730733710+$*>31>33>>=**$333330=@@X@",
"$@@>y>==>3+$*>>3333333=+$711217227337333711111333711111377232133111821333112113337111113772321377371117+$=>1123>72>%$+733>30=@@$@",
"$@@>t>>>>3$**=>>33>13>*$+0133173377337111271313333311>>111111333211113333112133333131721112133731331113+$=>3321733>*$+733330=@@$@",
"$@@>y>=>37+$%>27>3211>=$+733771121131183333313133>21>>3737111333333333337>333=13133>2133233137337333373$$=11333333>**+e33330=@@$@",
"#@@>y==>37+$*>3371233>=$+3113313313311337733373223123>3211133111333373333307733733333337113771133333337$$=11233113>=*+733330=@@#O",
"XO@>t>=>3e+**>33333311=$$3331133773333337.............72111113313333311133t.............217033311133330+$>113311211=*$333330=@OX@",
"#OO>t>1>37+*=>31133211=$$7113311333337770+...........+311112111333333733120+...........+770131133133337+*>3331111>>>*+311>30=OO#@",
" @O>t>1133$*=112113311>$+0211133111333377++@@OO@@@$+++72111213323137373311e++@@OO@@@$+++0e7312111773331$*>333332213>*$721>30=O@o+",
"$@@>t>1113+*>>>1111333>*+7217111331333373+$@@@@OO+++++01111111113373337237y+$@@@@OO+++++y73132171231373$*>3>>3>>311>*$731>30=@@$+",
"$@@=t31227$*>312233333>*$1111121117733737+$$*$$%$*$*$+7121312131773333737t0+$$*$$%$*$*$+021711111133737$=>>>1333>3>3*$332>30=@@$$",
"X@@>t>1137$*>113>>3>>3>*$3121721712313330+$-=--=-==*++713112333323233737e07+$-=--=-==*++311111217177337$=>3111313>3>=$331>30=@@X=",
"$@@>t>=133$*3>3>3331>>>=$72333111113373>7+$%=:1::>>*$+01211111337777337e770+$%=:1::>>*$+712112333323237*>32131323313=*331=30=@@$-",
"X@@=t>1133$=>3>3131113>=$7111712171773317+$%12133>1=$+t3331332333733370777e+$%12133>1=$+e233711173>=770*>31373321113>$3>1>30=@@X$",
"#@@>y>**33*=31332313123>*7722723333232733+$*>333333=+$012127333333717077370+$*>333333=+$7111372273=e330*>373731117371=7>==30=@@#@",
"%@@>t>11>3$>31112337313>*0733711173777337+$%27>321>=$+713771123131170733737+$%27>321>=$+372277337303717=>311231212373>3>1>30=@@%@",
"%@@=t731>7=173711137373>*0112172273373137+$*337123>=$+0370113=>*31703337377+$*337123>=$+373371121131117=2111121812373>311330=@@%@",
"X@@=y>>>>3>373212132113>=733317337733713e+**3333311=$$77e33330=73773373373e+**3333311=$$711277337113333>21121121211337333330=@@X$",
"%@@>y>>313>3732181211112=7333111211311137+*=3113311=$$0e7>1113t>77333333737+*=3113311=$$713311311113333773373111211733333330=@@%$",
"%O@>t>213373311212112112>3333111181323733$*=1211311>$+e71113333773737333333$*=1211311>$+733731811113333773333118214118211230=@O%$",
"X@@=y313333371121113733773733128==8117327$*>1223333>*$721113337337333111327$*>1223333>*$311318==82133733737311121331111==>30=@@X$",
"%X@=y>1312811412811333377373331111=1>7337$*>13>>3>3>*$711133331773333733137$*>13>>3>3>*$33311=1111333773373773311111111==>30=@X%$",
"* @=a311113323777333733737733111111133333$*33>333>>>=$321333331231373733133$*33>333>>>=$11133333333337731211333377732=111>30=@ *$",
"*XX=s312212133333333731211333377732=33333$=>>313113>=$313313111133733372333$=>>313113>=$121137773373333717133333333331122>30=XX*$",
"*XX=a>11223733333333371713333333333171733*=333231123>*712131217177333373133*=333231123>*=21733333773333333313333333337221>30=XX*#",
"% X=y>111137333311133333313333333337313>7=1771113373>*3131123333232337337>7=1771113373>*111133333733333733137311133337111>30=X %#",
"%XX=t>321333773231133733137311133337333>3>3721213113>=3121111173777733333>3>3721213113>==12137331373333737137311323773312330=XX%#",
"XXX;e337333313337337373713731132377331313>37218121112=337317227337333111313>37218121112=123333337733333333333333733313337330=XXX#",
"XXX=e31211231333333>733333333373331317733733121212112>112127337733711111333733121212112>21113337333733337373333333331=112130=XXX#",
"%XX=t>11113111171337=33373333333331=7333333712111733771133111211311112233333371211173377172233373333333733333733171111111130=XX%#",
"XXX=t3112111377721330=333337331711112311111333333373731311113313311182133317373333333111173333333337333333733331277731121130=XXX#",
"*XX=t>111131733333333e>37333312777317313373333337333713311111133321111333317333733333373311273373337333777733333333371111130=XX*%",
"@XX;t31111213133333337777333333333717333373373333373773373773333337377333377373333373373333233733337377733213333333131111130=XX@%",
"*XX;y31331273333733777332133333331313333337333377337777337777373733777737777733773333733337113333333333337373733733337133130=XX*%",
"@XX=y>1122337133273733373737337333373333333333333111737111737131311173713737111333333333337>11133333333333337372331733221130=XX@%",
"OXX;y71111331331121713333333333331181332221113737213233313233323231323332332312737311122233181133333333333317121133133111130=XXO%",
"% X;y73333334434444443333333333334444333333443433343333443333444444333344333343334344333333444433333333333344444434433333330=X %%",
"@XX=e33777777777737777333333333333777733333333333333337333337373733333737733333333333333333333333333333333773737777777777777;XX@@",
"* Xo%%%%%%%%%%%%%%%@%%%%%%%%%%%%%%%%%%%%%%%%%%%%%%%%%%%%%%%%%%%%%%%%%%%%%%%%%%%%%%%%%%%%%%%%%%%%%%%%%%%%%%%%@%%%%%%%%%%%%%%%%X *%",
"@XX     X X X   X   X     X X X   X   X X  X  X XXXXX XXXXX XXXXXXXXX XXXX XXXXX X  X  X X   X   X X X     X   X   X X X     XX@%",
"*   X X       X  X X XX X       X  X X XX  X XX X X XX XX XX X X XX XX X  XX X X XX X  XX X X  X       X XX X X  X       X X   *O",
"@OOO@@@@@@@*OOO@@@@O@@@@@@@@O%@@@@@@OOO@@*OOO#O%O@O*@@*OO*@@*O*O*OO*@@*O**@@*O@O%O#OOO*@@OOO@@@@@@%O@@@@@@@@O@@@@OOO*@@@@@@@OOO@%"
};
