/* XPM */
static char *_e6f34cafe6843239bd1fa6f3cf26084[] = {
/* columns rows colors chars-per-pixel */
"129 129 53 1 ",
"  c black",
". c #040404",
"X c #0C0404",
"o c #080804",
"O c #0C0C08",
"+ c #100C08",
"@ c #18140C",
"# c #181818",
"$ c #201C18",
"% c #202010",
"& c #28201C",
"* c #282818",
"= c #30301C",
"- c #242020",
"; c #2C282C",
": c #302420",
"> c #342C28",
", c #3C3824",
"< c #3C302C",
"1 c #383434",
"2 c #403430",
"3 c #483C34",
"4 c #403C3C",
"5 c #444028",
"6 c #4C4C2C",
"7 c #4C4038",
"8 c #545434",
"9 c #605C38",
"0 c #4C4848",
"q c #544440",
"w c #5C4C44",
"e c #585050",
"r c #64544C",
"t c #6C5C50",
"y c #60585C",
"u c #686440",
"i c #706C44",
"p c #787448",
"a c #786458",
"s c #6C6064",
"d c #806C60",
"f c #8C7468",
"g c #807478",
"h c #947C70",
"j c #848050",
"k c #8C8854",
"l c #949454",
"z c #989C58",
"x c #9CA45C",
"c c #B89068",
"v c #A0AC60",
"b c #887C80",
"n c #AC9484",
/* pixels */
"$,=*=5u95,===,685,=**=869865,=,,=59i5====,6,*%*=,65*%**=585**,69u6596,**585**%*56,=*%*,6,====5i95=,,=,568968=**=,586,===,59u5=*=,",
"$,5,=,9p96669u96565=,59u85,,5,5==6ukju9885,=%*=,58,**==685=5,=99u6599=,5=58==**,85,=*%=,5889ujku6==5,5,,58u95,=56569u96669p9,=,5,",
"$=66,=6pjpiuuu8686,,69u65,=565==58iu99865=**,=,5685==,686,5=*898i95898*=5,66,==5865,=,**=56899ui85==565=,56u96,,6868uuuipjp6=,66=",
"$=589659pu9869686556985,==,6,==,7ur8655,=%*,,5568u86986566656968p956696566,66668u8655,,*%=,5568ru7,==,6,==,5896556869689up956985=",
"$=,89i69i6,68966566985,=*56,==,6986,==*%%=,,6,,65,,555,65,5686,8k955,6865,5,55,=,56,,6,,=%%*==,6896,==,65*=,58966566986,6i96i98,=",
"&,,69i896,,6966569965,,586<=<579q65,,*%@=,56568,=586,=56*%*85%*uk95,%,5=@*,,=,55==,86565,=@%*,,56q975<=<685,,5699656696,,698i96,,",
"&,58i696,,5966569966,,686,,,,59865665=*=,66888,=686,=669,*68=*,9k95=*=,=*@*,,=,655=,88866,=*=56656895,,,,686,,6699656695,,696i85,",
"&59i6968ui96666996655696<,3,3976q865,*;,,,566=,586,=65=,6589,=8ik95=%%,5=%@*,,=,665,=665,,,;*,568q6793,3,<69655669966669iu8696i95",
"&ui66669986568996655896=,5899658986,=5688666=,566,=6,=%*568u9uipk96,,555==*%*55=,665,=6668865=,6898569985,=69855669986568996666iu",
"&,9,659u86,,8uu66558u6=,76397536965=>6w9wu7=,6965,5,*%*565,5688up9855,=,55=*%*56,5696,=7uw9w6>=56963579367,=6u85566uu8,,68u956,9,",
"&6,659u85=,8uu6656896=,685,9569886=,688898=,6965,55=%=56,=*%*=6ii595*@@%,*,,=%=55,5696,=898886,=6889659,586,=6986566uu8,=58u956,6",
"&,=,8ii8658ui8,568u8==367,tjt8qi9==,q8q9t5=5885,56,%*,,,*%%%%*5i9,95<*@%=%=6=*%,65,5885=5t9q8q,==9iq8tjt,763==8u865,8iu8568ii8,=,",
"&**,uu99899u8,6569u,=,86,9p99u8u<=56889u6,5696,565*%,5,*%%@%@%,i6=96,=@@***56*%*665,6965,6u98865=<u8u99p9,68,=,u9656,8u99899uu,**",
">*,8u96,,,88,,,59u,,,6q5qi76q9u,=578w8a6,56u6,<6,-%=56==*@**%@,i,*96*@**@===6,*%-36<,6u65,6a8w875=,u9q67iq5q6,,6u95,,,88,,,69u8,*",
";,6u86=5885,5,,9u,,,6888u5688u<=568989u5,6965,56=%=56,5*@,,*@@6i=%98,@*,,@,==6,*%=65,5696,5u989865=<u8865u8886,,6u9,,5,5885=68u6,",
";6896,9jjk5=5589,,,6q6q976q8u6=578q8wi5,79q5<57*%=,6,5%@**,@*%99%O98,*@,**@@==5,=%*75<5q97,5iw8q875=6u8q679q6q6,,69855=5kju9,6986",
";99856ujp8=668i8=,5868968669u=<58899i6,6886=56,%*,6,=%@*,**@@6i6O@796@@**,*@**,8,=%,65=6886,6i99885<=u9668698685,=8i866=8pju65899",
";65568ip6,656uu,,,q6quq8w9qu,=26q9quq,76q6:,36;%=66=*@*66,@*%9i*O%*98,*@,66*@*=66=%;63,:6q67,quq9q62=,uq9w8quq6q,,6uu656,6pi86556",
"2=,58ui9,6689u5,,7879w8w68i6:26q9r9e<5886,=56=%=56=@@*,<,*@&8p6O@@%69,&@*,,<*@6=65=%=65=,6885<e9r9q62:6i86w8w9787,,5u9866,9iu85,=",
"1*=58uu65568i8=,5878w8q678u,<2q979w6,6q63=<63%=,8,@@*,6,*@*,jp*O@%%*98,*@*,6,*@*,8,*%36<=36q6,6w979q2<,u876q8w8785,=8i86556uu85=*",
"2==69u85666u9<,2876r87536i,<27w78rq,6898==56*-*86***,666*&@&8i6*%%*586&@*&696,*5=68=-*65==8986,qr87w72<,i63578r6782,<9u66658u96==",
"2=,6uu6666uu1,26q6w8q5<5r6=2qrw9ww<5q8q6757=$=56=,***66,6,*@&695**59,&@*<6,66***6=65=$=7576q8q5<ww9wrq2=6r5<5q8w6q62,1uu6666uu6,=",
"2,58i85668i8=<5q6wuq676qu==<2257w3=699,*565%=,9,*6@,66*&,<,&@@596685@@&,,<*&66,@,=,9,=%565*,996=3w7522<==uq676quw6q5<=8i86658i85,",
"7669u5,68uu,<5q6quw63,<i6=<=q9q67=36r6$*<6&%,86=**,66,,*@*<,&@@8885@@&,<&@*,,66,86668,%&6<*$6r63=76q9q=<=6i<,36wuq6q5<,9u86,5u966",
"368u6=,56u6&=7678w63,<8u,76ruajr:<78t%@,75%;,5,,**688<67,$*76<%$65%$,76&%<67,q96,5655,;%57,@%t87<:rjaur67,u8<,36w8767=&6865,=6u86",
"78u9=,568u<,:q77rq7<76t6;678quf3&7qr<@$3q*-=5=5%%,,86,667,&<767<$%<776<*<666,68,=,,==5=-*q3$@<rq7&3fuq876;6t67<7qr77q:,<9865,=9u8",
"3u9,*,68i8=<7q7qw7<35rt4<78q9rj;=6r6&%<8<-=58,,**,67,&*<,7,&,767,<676<*<6<,&*<67,*,6685=-<8<%&6r6=;jr9q87<4tr53<7wq7q7<=8i86,*,9u",
"78,*=,8uu,:5qqqrq3<3qi0=2qq8rj0*7qqr773q&%,85*5*6886,,*%&,7w<<r7777r<<76<*$*,,688655558,%&q377rqq7*0jr8qq2=0iq3<3qrqqq5:,uu8,=*,8",
"7,**=58i8:,7q7qr7333u9=<7q7q8r,<7,$@$,q,$=59,=,*6u8687,$@&w7676rpar76767*$%<6q6uu6,==,95=$,q,$@$,7<,r8q7q7<=9u3337rq7q7,:8i85=**,",
"7**=,8uu<=2qqqw7<<3qi,;<272676:37$$@@$r&-,86=6**,66,666,@@<777<3773<777<@@,676,66,**,=68,-&r$@@$$73:676272<;,iq3<<7wqqq2=<uu8,=**",
"7*=,58i8=3677wq<:<<9u4,<<<,<87<67=$@$*q**59,=8%,66,&%&,7,&@<6r6<22<7r7,@*<6<*$*<66,,66895**q*$@$=76<78<,<<<,4u9<<:<qw7763=8i85,=*",
"0*=,8uu,:,76:,2*:45i6,76dptu7=6q8<%@%:6*,86=6*%6u86,*%$*&,&,<7rarrar7<<&<*&%%*,68u6=86568,*6:%@%<8q6=7utpd67,6i54:*2,:67,:,uu8,=*",
"q=,58i8:=76<8u8,;0yu,<6quajt=<79r,$@&6:=,95,6*%6j8686<@@@&,&,767,<776<*<*@%$,787ij6**,,59,=:6&@$,r97<=tjauq6<,uy0;,8u8<67=:8i85,=",
"w,56uu=*3826qplj6ei6;5q9rif6&79t8<%$=7*,9956,%*,6668866,@@&<qr<<$$<<77<&@@,6788666,***,599,*7=$%<8t97&6fir9q5;6ie6jlpq6283*=uu65,",
"q568u8*&6q,q8uj94uu,,7qrutj<:6ri3*&,q=;6u6=8*%,686,&*<,<,@*7w<<7rr7<<76&@<,<,&*<686,,6868u6;=q,&*3ir6:<jturq7,,uu49ju8q,q6&*8u865",
"w68996%=w,78rui56i9,<7wttjr:,qit,$*q6-,88,,8%*6ju86,**&*&&<q<7<whhw<7<7<&*&***,68ij6*,56,88,-6q*$,tiq,:rjttw7<,9i65iur87,w=%69986",
"w=565=%3878r89u,9iu;2qraki,:39fi&%<9,%496=6%%%,8878q87,@@&q<*777rr777&,7*@@<8865688,%*===694%,9<%&if93:,ikarq2;ui9,u98r8783%=565=",
"q,58,@%,78r9q6,;,us64qrr4,@&5rja9ti7*;695=8%*,6jj,,6667,@*<&<qwq77qwq,&<&@,68655,jj6,*%8=596;*7it9ajr5&@,4rrq46su,;,6q9r87,%@,85,",
"q569*@%26q8q624@*6pe64,4,;#*79fnfpr,-,69,,8%*,,ju,@&*@,7*$@&,7wraarw7<*@@&6,@&*=,uj5,*%,,,96,-,rpfjf97*#;,4,46ep6*@426q8q62%@*965",
"q68,@@%,68q62,,5&6t6q9t80#;<6rpfpt8%%,86=6**,,6u8**@**@,<&@@&<7wrrw7<&@@&,=@%%@*=8u6,,**6=68,%%8tpfpr6<;#08t9q6t6&5,,26q86,*@@,86",
"w96*@*@=,665*@*,,q6<,76q6*<,78apt86%:695=8,*,,886@@@*<*@*&*@@&<7777<*@@&*&%&=*%@%6885,*,6=596:%68tpa87,<*6q67,<6q,,*@*566,5%*@*69",
"q6,@*%*@=,5*6;@*787,&,765<4<6qpt6<,-=68,=5*,6866,%@@%,*=%&,<&$&<77<&$&<,&%=*,%@@%,6686,*%=,86=-,<6tpq6<4<567,&,787*@;6*5,=@,*=@,6",
"q,*=@=6,@=*@46,*6q6<*&,3<47468t8<,*%,88,*568866,*@@@@*5,&%&,7,%$<<%$,7,&%&,5*@@@@*,6688,*,,88,%*,<8t86474<3,&*<6q6*,64@*=@%=5%,*,",
"q*6*,*,**@@@*,&,76<6<*&*<7e3e886*%*%,86=8u96865*%%%@@@,=,*%<77&&&&&*77<%*,=,@@@%%%*688688uj68,%*%*688e3e7<*&*<6<67,&,*@@@**%=6,6*",
"q,8,*@**,*@@,&*66<*76&*<77w0wet4-%,*695=89j6*5=%,5,*@=*,8,&*<66<67,76<*&,8,*=@*,5,%,68u6,6u596*,%-4tew0w77<*&67*<66*&,@@*,=*@,68,",
"qpu,,*@,86*@&@<6,*@6q8<6w737e7s7,<6,88,=568**6=,5665=*@%,8,&,77raar77,&,8,%@*=5665,66,8u8,=,88,6<,7s7e737w6<8q6@*,6<@&@*56,@*,5up",
"q8p5686558,*@@,68,*<6qut833etetuw67,68=*,68*=,=,=%@%=%O@$696&,676767,&696$@O%=%@%=,=6,,8u,*=86,76wutete338tuq6<*,86,@@*,=,*5689p9",
"76i%%%@@*,6,&@@,6u7@<678747tstsfjt8,988885,*,=*=@@ O%=*@%,6=6&&,77<*&6=6,%@*=%O @@=*==,6588889,8tjfstst747876<@7u6,@@&,5,*@@===u8",
"75u%,*@*5696,***,8,&@&,74<ww7078qut69668lz,*5=%,=*%@@*5*$,8=*5*&,<*:5*=8,$*5*@@%*=,%=58,zl86696tuq8707ww<47,&@&,8,***=665**@*=596",
"7,9%*@*,6,65***,*6,,&@&4<073,:*<6qu685,=9z*%9*@%@...O%,6,56==5<,:6*=5==65,6,%O...@%@=9%*z9=,586uq6<*:,370<4&@&,,6*,**,86,6,*@*=85",
"7*8%@*,5,**55,@6*6,,6<,7074@@@@@<8q685,,6z**9%O=*%@@O@,,%=,56,*$,9**,65,=%,,@O@@%*=O,9**z6,,586q8<@@@@@4707,<6,,6*6@,5=**,,,*@@8,",
"3*6%*55*@*,,66,**<8766q87,@#@:@@*7668,,56j%,8@O=%O. .@56=%*=,%&%59&%%,=*%=65@. .O%=O58,%j65,,8667*@@:@#@,78q6678<*=,66,=*@*,,*%6,",
"7=8=56*%,66,8u6***68,<6q,$*<*,&%&,6685,6,9%68@O,*@O  @6u=%%==*53565:*==%%=u6@  O@*,O686%9,6,5866,&%&,*<*$,q6<,86***6985,5,%*66,8=",
"7,8,5,*,665,68,,%%*7*&77&&<6<7,&,76695,66=*698@%,*%O@=6u*@*9=5=*=,655=9*@*u6=@O%*,%@896*,66,59667,&,7<6<&&77&*7*%%=,86,5665*,668=",
"359=,*,65,**,66,**,**,6<*76q,6<*<6,uu=,99*=6u9%@*,=,,56,%%*5@*@@@%*=*@5*%%,65,,=,*@%9u6=*99,=uu,6<*<6,q67*<6,**,**,55,**=565*,695",
"76u,566,*%*,,6886*6<67,&<7qt7,*<66*i=%588*,8pi5=%%%*%=,@@@*@++%@%@@@++@*@@@,=%*%%%=5ip8,*885%=i*66<*,7tq7<&,76<6*5886,,*%=5665,96",
"7u65665*%%,686uu6*,6,**$,78t86,6q669*@=5,*,6pkku6**%%==@@@**@@**==**@@**%%@=*%%*=6ukkp6,*,5=@*966q6,68t87,$**,6,*6u8686,%%,688669",
"76,666,%%,666,66,**,*$%&7q7q6,6q6,,u*@=,,*,,5pkkj966=,=%*=**%*5u,,u5*%**=*%=,=669jkkp5,,*,,=@*u,,6q6,6q7q7&%$*,**,66,666,%%,698,6",
"q,696,%*,6,*%*,66,%,,%%*,886,688,*%9*%566=,565ipi65iji6,5pj,*,,=%*=,,*,jp5,69ji66ipi565,=665%*9%*,886,688,*%%,,%,66,*%*,6,*%,696,",
"7p96,,*,**%%*,68u6%*6,%&,<6<6qu6,*%6866uju96**56u58ilv9=,lv8=ili68ili=8vl,=9vli88u65**69uju6686%*,6uq6<6<,&%,6*%6u86,*%%**,*,,69p",
"7866,*,*%%%,686uj6%*,6,*,6,,6uu,,%%69uji,8lk*@*,699ijl8*5il6=89i56i98=6li5*8lji996,*@*kl8,iju96%%,,uu6,,6,*,6,*%6j8686,%%%*,*,669",
"7,,66,*%%,6688666,*%,6866,,88u8,*%*8855==5ju*@*56jj8ii6*=9i,*,9u88u9,*=i9=*6ii8jj65*@*uj5==5588*%*,8u88,,69u6,%*,6668866,%%*,66,,",
"36,,66*%,,,,**,686,%*,66,,68,u66,**8,=,589p9*%=56iipup,%5ij5@5ij55ji5@=ji5%,pupii65=%*9p985,=,8**,66u,86,,66,*%,686,**,,,,%*66,,6",
"76,6,6,******,68pj6*%*,,*68u68686666,=5888j6*%=66699p6=%5ij5@5ii55ii5@*ji5%=6p99866=%*6j8885=,66668686u86*,,*%*6ju86,******,6,6,6",
"7u66*,6*%%,6888688,%%%**,668886,,,66,,6988i5%%=5668665=*,56=@56i55i65@*65,*=5668865=%%5i8896,,66,,,688866,**%%%,8868886,%%*6,*66u",
"3j96,*,*%,6666,,pj6,*%%***,6666,**,6,,688886%*=566,,55,*,65%%566**665%%i6,*,55,,665=*%688886,,6,**,6666,***%%*,6jj,,6666,%*,*,69i",
"3i96,*%%*6,%**%,uj,,*%%,66,*,6,6**68,=56856,*%=,5,**=,=**5,%%=,****,=%%,5**=,=**,5,=%*,65865=,66**6,6,*,66,%%*,,ju,%**%,6*%%*,69j",
"396,*%%*,,%**%**8u6,,**,68u,*,66*,u9,,685==*%%*,5=**%=%%%*%%%**%**%**%%%*%%%=%**=5,*%%*==586,,68,*66,*,u86,**,,6u8**%**%,,*%%*,69",
"36,*%%***%*,%@%%688,,*,6,,8u6,6,*,86,=56,*,6,,,896=*%*%@%%@@@%**,,**%%@@%%@%*%*=698,,,6,*,65=,68,*,6,6u8,,6,*,,886%%@%,*%***%%*,6",
"3,*%*,,*%,%%@@@%,6686,*%*,68,6,,*,65,=,666ui6999,*@@*=55,=*%@@%*,,*@@@%%*=,5=*%%*,9996iu666,=,66,*,,6,86,*%*,6866,%@@@%%,%*,,*%*,",
"3%%,6,*%*==%@@@@*,6688,*,686*,6,%*,5,=5866ip9u,%@@=68uju65,=*%%@**@@%***=,8865=*%@%,u9pi6685=,6,*%,6,*686,*,8866,*@@@@%==*%*,6,%%",
"3**66,%*,%=@@@%,%*688688uj8,686*%%*6,=565==,5*@%=68,=*%%%%*=,=*%@@%**%%@@@%@%*,66*@@*5,==565=,6*%%*686,8ju886886*%,%@@@=%,*%,66**",
"3,69,**,6=@@@%,6*,,68u6,6uu6u88,**,5,=,55==,=*=,65*%@@OOOOOO@*=,==,%%OOO@*5@@O+@68,@%=,==55,=,5,**,88u6uu6,6u86,,*6,%@@@=6,**,96,",
"3996,*,6=%@@%,6,6,65,8u8,588u86,*%*,65=,56685,5u,%=@OO@@@O@@OOOO%%OOO@@@O@@@OO@=,6u6569665,=56,*%*,68u885,8u8,66,6,6,%@@%=6,*,699",
"366,*666=@O@*56,8686,,8uu6586u6,*5%69,*,5uli8iu,%*@O@*%@O%@%OOOO%%OOOO%@%O@%*@O@*,=ui8piu5,*,96%%*,6u6856uu8,,6868,65*@O@=666*,66",
"7,**6,6,%%O*=686jul86,68uu86868,*6p88=*,689869,%%OO*=*@O@**@OOOO$$OOOO@**@O@*=*OO%@=u68986,*=88p8*,86868up86,68luj686=*O%%,6,6**,",
"7**,*,6,55@*,69,u8u86868juu86686=,6,6**,566,,6*@@@%,,%O@%@%OOO@=55=@OOO%@%@O%,,%@@o%6,=,86,**6,8*,68668upj86868u8u,96,*@55,6,*,**",
"3,,6,66,5%@*,8u,868886,6jju886,8,*,=,**=,5,=,=*=,=66=%@=*%OOO@:,77,:@OOO%*=@%=66=, @=,=,,,=**,=**,8,688ujj6,688868,u8,*@%5,68,6,,",
"7%*%=6,%%@O*,9p66,6,,9l,8u88u86,6,*,,=*=5,==55%6iu6,*@=,=@OO@=,=55=,=@OO@=,=@*,6ui6@55,5,5=*=,,*,6,68u88u8,i9,,6,66p9,*O@%%58,%*%",
"7%*%=,=%,%@*,8u8,=%=,,6868uuuu8,,**=,=56i6=,66@56,,=@%6,$OO@:,7=33=7,:@OO$,6%@=,,65@66,,8i6==,=**,,8uuuu8686,,=%=,8u8,*@%,%,6,%*%",
"q*,**65%%**%=589=%%=,5,68ujjju86,,*%=565u9=,86@=,=%@%*=%@@@:,6u<66<u6,:@@@%=*%@%=,=@68,=6u=65=%*,,68ujjju86,5,=%%*985=%**%*68=*,*",
"q=6=%86=*=*@%=68*%*@@=55=ujzj86,6,**,5,*=85*6i@%=@@%@%$=<*@*:,<%35%<,:*@*<=$%@%@@=%*i8*,j**,5,**,6,68jzju,55=%%*%*86=%@*=*=89*=6=",
"q=5**55,,,%O*%58=%=*%*,6=68uui86,6,*,5=*%55%6u*O,=*%*%,=*@*:*$%:53:%$*:*@*=,%*%*=,O*u6%,6%*=5,*,6,68iu986=6,***=%*85%*O%,,,66=*5=",
"q*,=*,5,==%*@%=6,===,*=8,6uipiu8686*=,==%*,%56*ou6,*<6:@@=<,:*@,76,@*:,<=@@:6<*,6uo*65%,*%==,=*6868uipiu5,8=*,====6=%*=%==565==,*",
"7*56==65*,,*O@*58,*%=,,6,=,6898565%@%=,,*%5*,,%O6,=*6,@@@<r7=$@:53:@$=7r<@@@,6*=,6O*,,*5%*,,=%@%5656886,=,6,5=%*,8,*@O*,,=68,=65*",
"q*=6**86=,5%OO*59,@@=,56,*%=565,5,*@*=,=**6***@@6=O@<@$O$=7,&@:6r96:@&,7=$O$@<@O=6@%**=6**==**@*,5,565=%*596,=*%,9,*OO%5,=89**6=*",
"7*=5*%5,,=,%@@=56=@%**,,,=*%=55,=*%@*,,=*=,%@@@@=@*OO=%@=<=&@$7<77<7$@&=<=@%=OO*@=@@@@%,=*5,,*@%*=,55=%*=65,***%=65=@@%,=556**5=*",
"q%*,=*,86==%%=5,5*%**=,=,=*@%*==*%@@**6*=*%*@%*@@=*@:,@=75:%@=<=33=<=@%:57=@,:=,=@*=*%*%*%***%@@%*==*%@*,,=,=**%*,,5=%%=,565==,*%",
"q@%65**6,==,=@O*5,==,98,=,*%@@%*%@%@%%==,%%=,,6=,*@@*@%3u7<$@::<77<::@$<7u3%@*@@*,=6,,=%%,5=%%@%@%*%@@%*,=,89,==,5*%*=,==56==56%@",
"7@%,6%%,=**=@OO*585=*,65=5,%@O@@@OO+@@*6=%*,6,6,@+&@.o:6r5&@@=&&$%&&=@@&5r6:o.@&+@,6,6,*%55*@@+@@@@@@@%,5=56,*=,65*OO%=**,5**6,%@",
"7%%=,*=,5,=,%@@%,88=%%,5,,5%%@OOOOO@O@%5,**===,,@*,*+.*36<%@$&:&&&&:&$@%<63*.+*,*@,,===***=%@O+@@@%%@%%,,,5,%%==5,%@@%,=565,*,=%%",
"q@%*6,,*5,*=*%=**56,*%=5,=,=*%@OOO@%@+@*5=%*=5=6%%@5&o@*:%+@$*<*,:&,&$@+%:*@o&5@%%6=5=*%,,*@++@%%,5,=*,5=,5=%*,65=*=%*==66=,,6*%@",
"q@@*55**,5==*=*@*,86*%=55=6,=*@@@@%*%@+*55%*=5=,*@*=@.O@@+O@=<&%==%=,=@O+@@O.@=*@*,*5=*%5,*++%**%,65==55=55=%*68,*@*=*==65==55*@@",
"q@@*,,**=6,*=%%OO=5,*%%=,=66,=*@O@*,*@O%5,*%=5=*,@O%@%OOOO&=<=&*****=,=&OOOO%@+O@,*==*%**=%@%*,*@O@*=*65=,=%**,5=%O%%=*68,=*,,*@@",
"q%**=5,=*66===%@O%,65*@%*%565*%@@@=,,%@@*55%%=,*=%O*=+%%%&,73&$*%%*%%56,*++++OOO%=%,*%@=5*@%%,,=@@@%*56,%**%*58=%O@%==586==,5=**%",
"q@@%*,5=*,8,=,*%@*=5,=@@%*,5,=*%@*,66*%@%,,*%%5*%*+@@+@=:,:67%@%%%%@@66=,==@+OO+*%%=%@%,5,@%*66,*@%*,65,*%%@=,6=*@%*,,885==5,*%@@",
"qu8,86,,=*68,,,=,==56=%@%%=,55,**=66,,%*,6,*@%,,@=@O*%O&==*:6&@@%%@@%6=*==*Oo+O@=@*%@@*,6,*%,,66=**,66,=%%@%=65==,=,,896==,,68,8u",
"wju8886,%=5885,==,569,*%@%*5696,***,6,*%696=@@=5@=*+OOO@&*&*3=+@%%@+=5****@OOO+*%@,*%@*696%*,6,***,6965*%@%*,965,==,8u9,,%,6888up",
"qj9,u8,**==588666668u86,,*,6ii96,*,69,*,6i9,***,,%*+O@%O%*=,=:@+%%+@==,=*%Oo@O+*@*,,*%,9i6,*,96,*,69ii6,*,,68u96689uu96,,**,8u,9j",
"qu8,j,*%==,=58uij9ijji96*,6ijj9,=%*,69669i6,*%%,5@%%OOOO@%&=&%@@@@@@%*=*%@OoOO%%@5=*%*,6i96696,*%=,9jji6,*69ijpi9jiu85=,==%*,j,8u",
"q8,8j,%@*,5,,569ii9ii96,*,9lji6,**,6i96,,966,@%=5*@*Oo@@O@@@@@@@@@@@@@@@@OOOoO*@,5*%@,669,,69i6,**,6ijl9,*,69ii9ii965,,5,*@%,j8,8",
"w8*8u6%@%,5665,,566665,*,6lli9,6669iji,,6,996,*=56*%%O++OOOOO+$*%%*%+OOOOO++O%%@6,=*,699,6,,iji9666,9ilk6,*,566665,,5665,%@%6u8*8",
"w,*688,@@=,68965,,,,,,**,6ki9,69ijjzl9,696,666,,=86@*+@@@,8,%@******@@@Oo+%++*@,8%,,666,696,9lzjji96,9ij6,**,,,,,,56986,=@@,886*,",
"q,,68u8*@*=,689uuilpu8,*,9i9,6669iji99i9i96ii965,98*,%@@*88j8,**%%@@@***@@@+%,*89,6,9ii69i9i99iji9666,9i9,*,8upjiuu986,=*@*8u86,,",
"w88uu8u,*%%*,68999uu986,6i9,,,,,66,69ijj96i9ji865u,%*=@@@%=88,@@*%@@@%%%%+++=*%,8,*6ij9i69jji96,66,,=,,9i6,689uu99986,*%%*,u8uu88",
"q6,,8u88,%*%*=,,5688866,6i9,8,69i9669ilji9699999u9**,5*@@@@=8*@@*@@@@%@+@O@*5,**68,699969ijpi9669i96,8,9i6,6688865,,=*%*%,86u8,,6",
"0885,8u88*,*%%**=,,,,,,*69688,9jji9i99ii96669iji9,6,*=%,5*@@@@@@@@@@@@@+*5,%=*,6,88,686,69ii99i9ijj9,88696*,,,,,,=**%%*,*56u8,588",
"78uu86888,*,,,6,********,9,8,6ili969ii96969,69i6,*,8,%@%=565%*@@@@@@*%565=%@%,8,*696,%,96969ii969ili6,8,9,********,6,,,*,688688u8",
"7uki6,8,888,8686,66,*%%%,6**,9i96,,6,=,6i69=,696,*%*8*%*%*56@%,8998,%@65*%*%*8*%*6985%%96i6,=,6,,69i9,**6,%%%*,66,6868,686,8,6iku",
"7jxj,*8,,86pj6u86u8,,5,*%,*%,96*,6996,69i96%*,6965*%*,%=,*@@@*,9uu9,*@@@*,=%,*%*5,896,%69i96,6996,*69,%*,%*,5,,8u68u6jp66,,8*,jxj",
"7uu8886%,69ui8ju8ju59986,*%%,6*%,6ij969ii6****5u9,6*@%*%,,*@@,88,,88,@@*,,%*%@*6,*8i8*,*6ii969ji6,%*6,%%*,68995uj8uj8iu96,%6888uu",
"3jxju8,*65685,8,,88,8u9886,*,,%**,9ii96i9=,==*,9u=58*@@%*5=@%,8,**,8,%@=5*%@@*85@*up9,,,,9i69ii9,**%,,*,6889u8,88,,8,58656*,8ujxj",
"788865%969,6=%*=*,5*,696,**5%%*,%*,,66,69,5,**=6i6=58,**,8,%*,**,,**,*%,8,**,85%@8i9,,,6,96,66,,*%,*%%5**,696,*5,*=*%=6,969%56888",
"3,565=9696,=%@%%@,,%%=696,,,%%*6666669ii966,*%=6p8*=8,88i8,*,*,8998,*,*,8i88,8=%6u8,**,669ii9666666*%%,,,696=%%,,@%%@%=,6969=565,",
"7%%=,9i69,*%@@%*%6,*%%=5666,,669966,699ii65%%*,9j9=*,%*,5,*,8**,88,**8,*,5,*%,*55*5,,%%,6ii996,669966,,6665=%%*,6%*%@@%*,96i9,=%%",
"2=*%9i69,*,%@%=,=66,%*569996699i9,**%,69j9,%*,6iju5,8%@@%*,8u*,yggy,*u8,*%@@%8,%*,86,*%,9j96,%%*,9i996699965*%,66=,=%@%,*,96i9%*=",
"2,=9i9,9*,%@%*,,696,=569i96,9ii9,*%%%%,6ji6,69pju6,,,*,=*,9p,*egccge*,p9,*=,*,%,89ji96,6ij6,%@@%*,9ii9,69i965=,696,,*%@%,*9,9i9=,",
"26ipi,5i5*@%*,556i95669i96,6ii6,,,*%%%*6iiii9ii96,**%%**,89,*,8ybby8,*,98,**%%**,8uii9iiii6*@@%*,,,6ii6,69i96659i655,*%@*5i5,ipi6",
"1jji65ij5%**=5*%59i699696,6996,665,,**,699669666,*%%%%%%,8,%**,8888,**%,8,%%%%%%*=,56966996,%*,,566,6996,696996i95%*5=**%5ji56ijj",
"2ii959i9,**,5=%%%6p9ii96,*6,66999965,*,6ii9999ii568665,**%%**,,,,,,,,**%%**,566865ii9999ii6,*,56999966,6*,69ii9p6%%%=5,**,9i959ii",
";9969965%*,6,%@@%6ki9j95=*,59iijji95**,9i9669ijjiii99986,*,*44*,ee,,44*,*,68999iiijji9669i9,**59ijlii95,*=59j9ik6%@@%,6,*%5699699",
";96965,%*,686,@@*6zj996,==59i9pji96,*,69656999iiu86=*%*,6*5,;4ee4,ee4;,8*6,*%*=68uii99965696,*,69ijp9i95==,699jl6*@@,686,*%,56969",
";666,*%*,,6996,,89jiii996,=5699996,*,686569iii96,*%@+XO@=565*;eyaaye;*8*,=@OX+@@*,69iii965686,*,6999965=,699iiij98,,6996,,*%*,666",
";,5,*%*,,*,9i9689ijjlji996,=,5665,**695,69ilji6,*%%@@@%,56uj6,=eyye,,**.o@%%@@@%**,6ijli96,596**,5665,=,699ijljji9869i9,*,,*%*,5,",
">95=%*,,*@@,86996uikji9965,%@***@@*,95,69ijji6,5=%@@%*%OO*5iu65,65,56ui5@OO@*%@@%=5,6ijli96,59,*@@***@%,5699ijliu69968,@@*,,*%=59",
"&,,%*,5*@+O@,58998uii9965,*%=%@@@%,96,699i96565=*@%*=@OOO@,898656556898,@OOO@=%*@*=56569i996,69,%@@@%=%*,5699iiu89985,@O+@*5,*%,,",
"&*%*=56,*@O@*=698,566585=**=**%%%=69,6,665,565*%%*=5*@@%@@58865865,56885@@%@@*5=*%%*565,566,6,96=%%%**=**=585665,896=*@O@*,65=*%*",
"&***,696,*%%*=5865,=*,65,=5,==**=,8u*,*,==,65*%%*,6=%@%@*=85,58896,5=%58**@%@%=6,*%%*56,==,*,*u8,=**==,5=,56,*=,5685=*%%*,696,***",
"@*5*@*5*@*5*@*5*@*5*@*5*@*5*@*5*@*5*@*5*@*5*@*5*@*5*@*5*@*5*@*5*@*5*@*5*@*5*@*5*@*%*@@@@%@%@%%%%@@%%%%@%@%@@@%*%@@@@@*5*@*5*@*5*@"
};
